<svg xmlns="http://www.w3.org/2000/svg" xmlns:xlink="http://www.w3.org/1999/xlink" viewBox="0 0 432 334.72"><defs><style>.cls-1{isolation:isolate;}.cls-2{opacity:0.2;}.cls-3{opacity:0;}.cls-4{opacity:0.09;}.cls-5{opacity:0.18;}.cls-6{opacity:0.27;}.cls-7{opacity:0.36;}.cls-8{opacity:0.45;}.cls-9{opacity:0.55;}.cls-10{opacity:0.64;}.cls-11{opacity:0.73;}.cls-12{opacity:0.82;}.cls-13{opacity:0.91;}.cls-14{fill:url(#linear-gradient);}.cls-15{fill:url(#New_Gradient_Swatch_copy_35);}.cls-16{fill:url(#linear-gradient-2);}.cls-17{fill:#fff;}.cls-18,.cls-19,.cls-27,.cls-31,.cls-32,.cls-39,.cls-42,.cls-46,.cls-52,.cls-58,.cls-62,.cls-66,.cls-80,.cls-81,.cls-83,.cls-84,.cls-85,.cls-86,.cls-87,.cls-88,.cls-89,.cls-90,.cls-91{mix-blend-mode:color-dodge;}.cls-18{fill:url(#New_Gradient_Swatch_copy);}.cls-19{fill:url(#New_Gradient_Swatch_copy-2);}.cls-20{fill:url(#linear-gradient-3);}.cls-21,.cls-34,.cls-86{opacity:0.3;}.cls-21,.cls-26,.cls-34,.cls-38{mix-blend-mode:screen;}.cls-21{fill:url(#linear-gradient-4);}.cls-22{fill:url(#New_Gradient_Swatch_copy_34);}.cls-23{fill:url(#linear-gradient-5);}.cls-24{fill:#bcbec0;}.cls-24,.cls-40,.cls-47,.cls-48,.cls-49,.cls-50,.cls-53,.cls-59,.cls-60,.cls-67{mix-blend-mode:multiply;}.cls-25{fill:url(#linear-gradient-6);}.cls-26{fill:url(#Radial_Gradient_1);}.cls-27{fill:url(#radial-gradient);}.cls-28{fill:url(#linear-gradient-7);}.cls-29{fill:url(#New_Gradient_Swatch_copy_35-2);}.cls-30{fill:url(#linear-gradient-8);}.cls-31{fill:url(#New_Gradient_Swatch_copy-3);}.cls-32{fill:url(#New_Gradient_Swatch_copy-4);}.cls-33{fill:url(#linear-gradient-9);}.cls-34{fill:url(#linear-gradient-10);}.cls-35{fill:url(#New_Gradient_Swatch_copy_34-2);}.cls-36{fill:url(#linear-gradient-11);}.cls-37{fill:url(#linear-gradient-12);}.cls-38{fill:url(#Radial_Gradient_1-2);}.cls-39{fill:url(#radial-gradient-2);}.cls-40{fill:url(#linear-gradient-13);}.cls-41{fill:url(#New_Gradient_Swatch_copy_7);}.cls-43{fill:url(#Radial_Gradient_1-3);}.cls-44{fill:url(#Radial_Gradient_1-4);}.cls-45{fill:url(#linear-gradient-14);}.cls-46{fill:url(#radial-gradient-3);}.cls-47{fill:#b9afbf;}.cls-48,.cls-49,.cls-59,.cls-60,.cls-80,.cls-85{opacity:0.8;}.cls-48{fill:url(#New_Gradient_Swatch_copy_36);}.cls-49{fill:url(#New_Gradient_Swatch_copy_36-2);}.cls-50{fill:#e6cfc8;}.cls-51{fill:url(#New_Gradient_Swatch_copy_7-2);}.cls-52{fill:url(#Radial_Gradient_1-5);}.cls-53{fill:url(#linear-gradient-15);}.cls-54{fill:url(#New_Gradient_Swatch_copy_9);}.cls-55{fill:url(#Radial_Gradient_1-6);}.cls-56{fill:url(#Radial_Gradient_1-7);}.cls-57{fill:url(#linear-gradient-16);}.cls-58{fill:url(#radial-gradient-4);}.cls-59{fill:url(#New_Gradient_Swatch_copy_36-3);}.cls-60{fill:url(#New_Gradient_Swatch_copy_36-4);}.cls-61{fill:url(#New_Gradient_Swatch_copy_9-2);}.cls-62{fill:url(#Radial_Gradient_1-8);}.cls-63{fill:url(#radial-gradient-5);}.cls-64{fill:url(#radial-gradient-6);}.cls-65{fill:url(#radial-gradient-7);}.cls-66{fill:url(#radial-gradient-8);}.cls-67{fill:url(#linear-gradient-17);}.cls-68{fill:#138bbd;}.cls-69{fill:url(#linear-gradient-18);}.cls-70{fill:url(#linear-gradient-19);}.cls-71{fill:url(#linear-gradient-20);}.cls-72{fill:url(#linear-gradient-21);}.cls-73{fill:url(#linear-gradient-22);}.cls-74{fill:url(#linear-gradient-23);}.cls-75{fill:url(#linear-gradient-24);}.cls-76{fill:url(#linear-gradient-25);}.cls-77{fill:url(#linear-gradient-26);}.cls-78{fill:url(#linear-gradient-27);}.cls-79{fill:url(#New_Gradient_Swatch_copy_7-3);}.cls-80{fill:url(#radial-gradient-9);}.cls-81{fill:url(#radial-gradient-10);}.cls-82{fill:url(#radial-gradient-11);}.cls-83,.cls-88{opacity:0.5;}.cls-84,.cls-85,.cls-86,.cls-87,.cls-88,.cls-89{fill:#9f19ab;}.cls-84{opacity:0.6;}.cls-87{opacity:0.15;}.cls-90{fill:url(#radial-gradient-12);}.cls-91{fill:url(#radial-gradient-13);}</style><linearGradient id="linear-gradient" x1="226.6" y1="154.17" x2="388.12" y2="154.17" gradientUnits="userSpaceOnUse"><stop offset="0.06" stop-color="#9f79b8"/><stop offset="0.26" stop-color="#a17bba"/><stop offset="0.36" stop-color="#a783bf"/><stop offset="0.43" stop-color="#b290c9"/><stop offset="0.49" stop-color="#c1a1d5"/><stop offset="0.51" stop-color="#c4a5d7"/><stop offset="0.52" stop-color="#cdb3dd"/><stop offset="0.53" stop-color="#dbc8e7"/><stop offset="0.55" stop-color="#efe7f4"/><stop offset="0.56" stop-color="#fff"/><stop offset="0.57" stop-color="#ece0f3"/><stop offset="0.58" stop-color="#ddc8ea"/><stop offset="0.59" stop-color="#d4b9e5"/><stop offset="0.6" stop-color="#d1b4e3"/><stop offset="0.66" stop-color="#b395d6"/><stop offset="0.72" stop-color="#9c7dcb"/><stop offset="0.77" stop-color="#8e6ec5"/><stop offset="0.81" stop-color="#8969c3"/><stop offset="1" stop-color="#b086cc"/></linearGradient><linearGradient id="New_Gradient_Swatch_copy_35" x1="223.17" y1="149.94" x2="378.56" y2="149.94" gradientUnits="userSpaceOnUse"><stop offset="0" stop-color="#9f79c8"/><stop offset="0.14" stop-color="#a580cb"/><stop offset="0.33" stop-color="#b492d3"/><stop offset="0.55" stop-color="#cdb0e1"/><stop offset="0.58" stop-color="#d1b4e3"/><stop offset="0.76" stop-color="#dbc4e9"/><stop offset="1" stop-color="#ebdef3"/></linearGradient><linearGradient id="linear-gradient-2" x1="224.9" y1="149.94" x2="376.82" y2="149.94" gradientUnits="userSpaceOnUse"><stop offset="0" stop-color="#3d065f"/><stop offset="1" stop-color="#5f27bd"/></linearGradient><radialGradient id="New_Gradient_Swatch_copy" cx="1415.92" cy="-952.49" r="28.32" gradientTransform="matrix(1, 0, 0, 0.66, -1063.34, 817.05)" gradientUnits="userSpaceOnUse"><stop offset="0" stop-color="#972a74"/><stop offset="0.04" stop-color="#8a266a"/><stop offset="0.19" stop-color="#601b4a"/><stop offset="0.35" stop-color="#3d112f"/><stop offset="0.51" stop-color="#230a1b"/><stop offset="0.67" stop-color="#0f040c"/><stop offset="0.83" stop-color="#040103"/><stop offset="1"/></radialGradient><radialGradient id="New_Gradient_Swatch_copy-2" cx="1174.89" cy="-1589.97" r="21.72" gradientTransform="matrix(1, 0, 0, 0.59, -900.97, 1064.01)" xlink:href="#New_Gradient_Swatch_copy"/><linearGradient id="linear-gradient-3" x1="-757.49" y1="-22.76" x2="-828.31" y2="-76.3" gradientTransform="matrix(0.87, 0.5, -1.5, 0.29, 922.13, 553.47)" gradientUnits="userSpaceOnUse"><stop offset="0" stop-color="#3d065f"/><stop offset="1" stop-color="#12054e"/><stop offset="1" stop-color="#10054d"/></linearGradient><linearGradient id="linear-gradient-4" x1="289.16" y1="114.24" x2="328.84" y2="176.51" gradientUnits="userSpaceOnUse"><stop offset="0.06" stop-color="#9f79b8"/><stop offset="0.25" stop-color="#a17bba"/><stop offset="0.35" stop-color="#a883c0"/><stop offset="0.42" stop-color="#b490cc"/><stop offset="0.48" stop-color="#c5a3dc"/><stop offset="0.54" stop-color="#dbbbf0"/><stop offset="0.56" stop-color="#e6c6fa"/><stop offset="0.6" stop-color="#d6b6f1"/><stop offset="0.69" stop-color="#b595dd"/><stop offset="0.77" stop-color="#9d7dcf"/><stop offset="0.85" stop-color="#8e6ec6"/><stop offset="0.92" stop-color="#8969c3"/></linearGradient><linearGradient id="New_Gradient_Swatch_copy_34" x1="3846.03" y1="2.75" x2="3684.37" y2="143.17" gradientTransform="matrix(-1, 0, 0, 1, 4077.31, 0)" gradientUnits="userSpaceOnUse"><stop offset="0" stop-color="#9f79c8"/><stop offset="0.14" stop-color="#a27dca"/><stop offset="0.27" stop-color="#ac88cf"/><stop offset="0.4" stop-color="#bc9bd7"/><stop offset="0.52" stop-color="#d1b4e3"/><stop offset="0.65" stop-color="#dbc4e9"/><stop offset="0.9" stop-color="#f4edf8"/><stop offset="1" stop-color="#fff"/></linearGradient><linearGradient id="linear-gradient-5" x1="352.26" y1="172.67" x2="317.07" y2="23.69" gradientUnits="userSpaceOnUse"><stop offset="0" stop-color="#2a0c5c"/><stop offset="0.69" stop-color="#5f27bd"/><stop offset="1" stop-color="#b4299a"/></linearGradient><linearGradient id="linear-gradient-6" x1="1386.96" y1="159.63" x2="1307.49" y2="32.65" gradientTransform="translate(-985.58)" gradientUnits="userSpaceOnUse"><stop offset="0.06" stop-color="#9f79b8"/><stop offset="0.26" stop-color="#a17bba"/><stop offset="0.36" stop-color="#a783bf"/><stop offset="0.43" stop-color="#b290c9"/><stop offset="0.49" stop-color="#c1a1d5"/><stop offset="0.51" stop-color="#c4a5d7"/><stop offset="0.52" stop-color="#cdb3dd"/><stop offset="0.53" stop-color="#dbc8e7"/><stop offset="0.55" stop-color="#efe7f4"/><stop offset="0.56" stop-color="#fff"/><stop offset="0.57" stop-color="#ece0f3"/><stop offset="0.58" stop-color="#ddc8ea"/><stop offset="0.59" stop-color="#d4b9e5"/><stop offset="0.6" stop-color="#d1b4e3"/><stop offset="0.61" stop-color="#cfb2e2"/><stop offset="0.76" stop-color="#be9ad6"/><stop offset="0.89" stop-color="#b48bcf"/><stop offset="1" stop-color="#b086cc"/></linearGradient><radialGradient id="Radial_Gradient_1" cx="1364.28" cy="81.62" r="13.5" gradientTransform="translate(-985.58)" gradientUnits="userSpaceOnUse"><stop offset="0" stop-color="#fff"/><stop offset="1"/></radialGradient><radialGradient id="radial-gradient" cx="119.69" cy="6537.84" r="6.33" gradientTransform="matrix(0.38, 0.92, -0.61, 0.25, 4348.5, -1680.78)" xlink:href="#New_Gradient_Swatch_copy"/><linearGradient id="linear-gradient-7" x1="5302.14" y1="224.05" x2="5463.66" y2="224.05" gradientTransform="matrix(-1, 0, 0, 1, 5509.56, 0)" xlink:href="#linear-gradient"/><linearGradient id="New_Gradient_Swatch_copy_35-2" x1="5298.71" y1="219.82" x2="5454.1" y2="219.82" gradientTransform="matrix(-1, 0, 0, 1, 5509.56, 0)" xlink:href="#New_Gradient_Swatch_copy_35"/><linearGradient id="linear-gradient-8" x1="5300.45" y1="219.82" x2="5452.36" y2="219.82" gradientTransform="matrix(-1, 0, 0, 1, 5509.56, 0)" xlink:href="#linear-gradient-2"/><radialGradient id="New_Gradient_Swatch_copy-3" cx="3056.19" cy="-1024.6" r="29.51" gradientTransform="matrix(-1, 0, 0, 0.66, 3222.08, 925.13)" xlink:href="#New_Gradient_Swatch_copy"/><radialGradient id="New_Gradient_Swatch_copy-4" cx="5951.68" cy="1317.92" r="21.72" gradientTransform="matrix(0, -1, -0.59, 0, 938.17, 6146.59)" xlink:href="#New_Gradient_Swatch_copy"/><linearGradient id="linear-gradient-9" x1="812.61" y1="-2499.98" x2="741.79" y2="-2553.52" gradientTransform="matrix(-0.87, 0.5, 1.5, 0.29, 4587.44, 553.47)" xlink:href="#linear-gradient-3"/><linearGradient id="linear-gradient-10" x1="5364.7" y1="184.12" x2="5404.38" y2="246.38" gradientTransform="matrix(-1, 0, 0, 1, 5509.56, 0)" xlink:href="#linear-gradient-4"/><linearGradient id="New_Gradient_Swatch_copy_34-2" x1="143.22" y1="197.81" x2="19.69" y2="89.73" gradientTransform="matrix(1, 0, 0, 1, 0, 0)" xlink:href="#New_Gradient_Swatch_copy_34"/><linearGradient id="linear-gradient-11" x1="138.57" y1="182.26" x2="58.3" y2="136.5" xlink:href="#linear-gradient-5"/><linearGradient id="linear-gradient-12" x1="6462.5" y1="229.5" x2="6383.04" y2="102.53" gradientTransform="matrix(-1, 0, 0, 1, 6495.14, 0)" xlink:href="#linear-gradient-6"/><radialGradient id="Radial_Gradient_1-2" cx="6439.83" cy="151.49" r="13.5" gradientTransform="matrix(-1, 0, 0, 1, 6495.14, 0)" xlink:href="#Radial_Gradient_1"/><radialGradient id="radial-gradient-2" cx="2113.49" cy="-494.24" r="6.33" gradientTransform="matrix(-0.38, 0.92, 0.61, 0.25, 1161.07, -1680.78)" xlink:href="#New_Gradient_Swatch_copy"/><linearGradient id="linear-gradient-13" x1="7531.4" y1="139.83" x2="7488.86" y2="200.56" gradientTransform="matrix(-1, 0, 0, 1, 7595.87, 0)" gradientUnits="userSpaceOnUse"><stop offset="0" stop-color="#fff"/><stop offset="0.27" stop-color="#f4eef4"/><stop offset="0.79" stop-color="#d8c4d7"/><stop offset="1" stop-color="#ccb1cb"/></linearGradient><linearGradient id="New_Gradient_Swatch_copy_7" x1="7492.52" y1="173.47" x2="7498.82" y2="88.71" gradientTransform="matrix(-1, 0, 0, 1, 7595.87, 0)" gradientUnits="userSpaceOnUse"><stop offset="0.04" stop-color="#138bbd"/><stop offset="0.23" stop-color="#169ac7"/><stop offset="0.59" stop-color="#1fc3df"/><stop offset="1" stop-color="#2af6ff"/></linearGradient><radialGradient id="Radial_Gradient_1-3" cx="7476.25" cy="137.89" r="12.85" gradientTransform="matrix(-1, 0, 0, 1, 7595.87, 0)" xlink:href="#Radial_Gradient_1"/><radialGradient id="Radial_Gradient_1-4" cx="7502.36" cy="165.88" r="23.16" gradientTransform="matrix(-1, 0, 0, 1, 7595.87, 0)" xlink:href="#Radial_Gradient_1"/><linearGradient id="linear-gradient-14" x1="-898.06" y1="174.17" x2="-701.32" y2="130.06" gradientTransform="matrix(-1, 0, 0, 1, -695.87, 0)" gradientUnits="userSpaceOnUse"><stop offset="0.05" stop-color="#d7d1e0"/><stop offset="0.51" stop-color="#f3eefa"/><stop offset="1" stop-color="#fff"/></linearGradient><radialGradient id="radial-gradient-3" cx="-791.3" cy="112.41" r="43.66" gradientTransform="matrix(-1, 0, 0, 1, -695.87, 0)" gradientUnits="userSpaceOnUse"><stop offset="0" stop-color="#fff"/><stop offset="0.28" stop-color="#c2c1c1"/><stop offset="1"/></radialGradient><linearGradient id="New_Gradient_Swatch_copy_36" x1="-718.8" y1="220.78" x2="-974.29" y2="-95.66" gradientTransform="matrix(-1, 0, 0, 1, -695.87, 0)" gradientUnits="userSpaceOnUse"><stop offset="0.1" stop-color="#45108a"/><stop offset="1" stop-color="#7c1dc9"/></linearGradient><linearGradient id="New_Gradient_Swatch_copy_36-2" x1="-750.09" y1="185.22" x2="-907.77" y2="-10.08" xlink:href="#New_Gradient_Swatch_copy_36"/><linearGradient id="New_Gradient_Swatch_copy_7-2" x1="7458.25" y1="297.59" x2="7504.24" y2="117.55" xlink:href="#New_Gradient_Swatch_copy_7"/><radialGradient id="Radial_Gradient_1-5" cx="7479.65" cy="178.87" r="37.3" gradientTransform="matrix(-1, 0, 0, 1, 7595.87, 0)" xlink:href="#Radial_Gradient_1"/><linearGradient id="linear-gradient-15" x1="8410.56" y1="71.83" x2="8368.03" y2="132.56" gradientTransform="translate(-8040.11)" xlink:href="#linear-gradient-13"/><linearGradient id="New_Gradient_Swatch_copy_9" x1="8371.68" y1="105.47" x2="8377.99" y2="20.71" gradientTransform="translate(-8040.11)" gradientUnits="userSpaceOnUse"><stop offset="0.04" stop-color="#9f19ab"/><stop offset="0.24" stop-color="#ae25b1"/><stop offset="0.65" stop-color="#d744bf"/><stop offset="1" stop-color="#ff63ce"/></linearGradient><radialGradient id="Radial_Gradient_1-6" cx="8355.42" cy="69.89" r="12.85" gradientTransform="translate(-8040.11)" xlink:href="#Radial_Gradient_1"/><radialGradient id="Radial_Gradient_1-7" cx="8381.53" cy="97.88" r="23.16" gradientTransform="translate(-8040.11)" xlink:href="#Radial_Gradient_1"/><linearGradient id="linear-gradient-16" x1="-1149.3" y1="-277.27" x2="-961.96" y2="-319.26" gradientTransform="matrix(0.68, -0.92, 0.47, 0.84, 1166.43, -653.44)" xlink:href="#linear-gradient-14"/><radialGradient id="radial-gradient-4" cx="-1047.64" cy="-336.07" r="41.57" gradientTransform="matrix(0.68, -0.92, 0.47, 0.84, 1166.43, -653.44)" xlink:href="#radial-gradient-3"/><linearGradient id="New_Gradient_Swatch_copy_36-3" x1="-978.6" y1="-232.88" x2="-1221.9" y2="-534.22" gradientTransform="matrix(0.68, -0.92, 0.47, 0.84, 1166.43, -653.44)" xlink:href="#New_Gradient_Swatch_copy_36"/><linearGradient id="New_Gradient_Swatch_copy_36-4" x1="-1008.39" y1="-266.74" x2="-1158.55" y2="-452.72" gradientTransform="matrix(0.68, -0.92, 0.47, 0.84, 1166.43, -653.44)" xlink:href="#New_Gradient_Swatch_copy_36"/><linearGradient id="New_Gradient_Swatch_copy_9-2" x1="8337.42" y1="229.59" x2="8383.4" y2="49.55" xlink:href="#New_Gradient_Swatch_copy_9"/><radialGradient id="Radial_Gradient_1-8" cx="8358.81" cy="110.87" r="37.3" gradientTransform="translate(-8040.11)" xlink:href="#Radial_Gradient_1"/><radialGradient id="radial-gradient-5" cx="194.75" cy="165.59" r="133.7" gradientTransform="matrix(1, 0, 0, 1, 0, 0)" xlink:href="#Radial_Gradient_1"/><radialGradient id="radial-gradient-6" cx="194.75" cy="165.59" r="133.71" gradientTransform="matrix(1, 0, 0, 1, 0, 0)" xlink:href="#Radial_Gradient_1"/><radialGradient id="radial-gradient-7" cx="194.75" cy="165.59" r="133.7" gradientTransform="matrix(1, 0, 0, 1, 0, 0)" xlink:href="#Radial_Gradient_1"/><radialGradient id="radial-gradient-8" cx="176.78" cy="174.13" r="41.13" gradientTransform="matrix(1, 0, 0, 1, 0, 0)" xlink:href="#Radial_Gradient_1"/><linearGradient id="linear-gradient-17" x1="384.71" y1="72.84" x2="361.83" y2="91.6" gradientTransform="matrix(1, 0, 0, 1, 0, 0)" xlink:href="#linear-gradient-13"/><linearGradient id="linear-gradient-18" x1="353.02" y1="83.64" x2="385.54" y2="83.64" gradientUnits="userSpaceOnUse"><stop offset="0.04" stop-color="#138bbd"/><stop offset="1" stop-color="#1595c3"/></linearGradient><linearGradient id="linear-gradient-19" x1="353.13" y1="83.7" x2="385.15" y2="83.7" gradientUnits="userSpaceOnUse"><stop offset="0.04" stop-color="#138bbd"/><stop offset="0.84" stop-color="#169ac7"/><stop offset="1" stop-color="#179ec9"/></linearGradient><linearGradient id="linear-gradient-20" x1="353.23" y1="83.77" x2="384.76" y2="83.77" gradientUnits="userSpaceOnUse"><stop offset="0.04" stop-color="#138bbd"/><stop offset="0.6" stop-color="#169ac7"/><stop offset="1" stop-color="#19a8cf"/></linearGradient><linearGradient id="linear-gradient-21" x1="353.32" y1="83.83" x2="384.39" y2="83.83" gradientUnits="userSpaceOnUse"><stop offset="0.04" stop-color="#138bbd"/><stop offset="0.48" stop-color="#169ac6"/><stop offset="1" stop-color="#1bb2d5"/></linearGradient><linearGradient id="linear-gradient-22" x1="353.39" y1="83.89" x2="384.03" y2="83.89" gradientUnits="userSpaceOnUse"><stop offset="0.04" stop-color="#138bbd"/><stop offset="0.4" stop-color="#169ac6"/><stop offset="1" stop-color="#1dbcdb"/></linearGradient><linearGradient id="linear-gradient-23" x1="353.44" y1="83.95" x2="383.68" y2="83.95" gradientUnits="userSpaceOnUse"><stop offset="0.04" stop-color="#138bbd"/><stop offset="0.35" stop-color="#169ac7"/><stop offset="0.97" stop-color="#1fc3df"/><stop offset="1" stop-color="#20c5e1"/></linearGradient><linearGradient id="linear-gradient-24" x1="353.53" y1="84.01" x2="383.36" y2="84.01" gradientUnits="userSpaceOnUse"><stop offset="0.04" stop-color="#138bbd"/><stop offset="0.31" stop-color="#169ac7"/><stop offset="0.85" stop-color="#1fc3df"/><stop offset="1" stop-color="#22cfe7"/></linearGradient><linearGradient id="linear-gradient-25" x1="353.53" y1="84.07" x2="383.09" y2="84.07" gradientUnits="userSpaceOnUse"><stop offset="0.04" stop-color="#138bbd"/><stop offset="0.28" stop-color="#169ac6"/><stop offset="0.76" stop-color="#1fc3df"/><stop offset="1" stop-color="#24d9ed"/></linearGradient><linearGradient id="linear-gradient-26" x1="353.45" y1="84.13" x2="382.88" y2="84.13" gradientUnits="userSpaceOnUse"><stop offset="0.04" stop-color="#138bbd"/><stop offset="0.26" stop-color="#169ac6"/><stop offset="0.69" stop-color="#1fc3df"/><stop offset="1" stop-color="#26e3f3"/></linearGradient><linearGradient id="linear-gradient-27" x1="353.24" y1="84.19" x2="382.81" y2="84.19" gradientUnits="userSpaceOnUse"><stop offset="0.04" stop-color="#138bbd"/><stop offset="0.24" stop-color="#169ac7"/><stop offset="0.64" stop-color="#1fc3df"/><stop offset="1" stop-color="#28ecf9"/></linearGradient><linearGradient id="New_Gradient_Swatch_copy_7-3" x1="352.9" y1="84.26" x2="382.86" y2="84.26" gradientTransform="matrix(1, 0, 0, 1, 0, 0)" xlink:href="#New_Gradient_Swatch_copy_7"/><radialGradient id="radial-gradient-9" cx="4752.54" cy="5331.22" r="16.68" gradientTransform="matrix(-0.56, -0.73, -0.35, 0.27, 4902.67, 2114.47)" gradientUnits="userSpaceOnUse"><stop offset="0" stop-color="#fff"/><stop offset="0.03" stop-color="#dfdfdf"/><stop offset="0.08" stop-color="#b0b0b0"/><stop offset="0.13" stop-color="#868686"/><stop offset="0.18" stop-color="#626262"/><stop offset="0.24" stop-color="#434343"/><stop offset="0.31" stop-color="#2b2b2b"/><stop offset="0.38" stop-color="#181818"/><stop offset="0.46" stop-color="#0a0a0a"/><stop offset="0.57" stop-color="#020202"/><stop offset="0.77"/></radialGradient><radialGradient id="radial-gradient-10" cx="521.31" cy="696.61" r="12.09" gradientTransform="matrix(-0.02, 1, 1, 0.02, -573.73, -379.09)" gradientUnits="userSpaceOnUse"><stop offset="0.09" stop-color="#fff"/><stop offset="0.1" stop-color="#e2dee7"/><stop offset="0.12" stop-color="#b0a5bf"/><stop offset="0.14" stop-color="#86749c"/><stop offset="0.16" stop-color="#634c80"/><stop offset="0.17" stop-color="#482d69"/><stop offset="0.19" stop-color="#35175a"/><stop offset="0.21" stop-color="#290a50"/><stop offset="0.23" stop-color="#25054d"/><stop offset="0.27" stop-color="#1d043c"/><stop offset="0.34" stop-color="#120226"/><stop offset="0.42" stop-color="#0a0115"/><stop offset="0.51" stop-color="#040109"/><stop offset="0.65" stop-color="#010002"/><stop offset="1"/></radialGradient><radialGradient id="radial-gradient-11" cx="331.18" cy="236.27" r="87.1" gradientUnits="userSpaceOnUse"><stop offset="0" stop-color="#c335b2"/><stop offset="1" stop-color="#7c1dc9"/></radialGradient><radialGradient id="radial-gradient-12" cx="166.68" cy="246.36" r="13.2" gradientUnits="userSpaceOnUse"><stop offset="0.07" stop-color="#fff"/><stop offset="0.08" stop-color="#edeaf0"/><stop offset="0.1" stop-color="#bdb4c9"/><stop offset="0.14" stop-color="#725e8c"/><stop offset="0.17" stop-color="#25054d"/><stop offset="0.21" stop-color="#1d043c"/><stop offset="0.28" stop-color="#120226"/><stop offset="0.37" stop-color="#0a0115"/><stop offset="0.48" stop-color="#040109"/><stop offset="0.62" stop-color="#010002"/><stop offset="1"/></radialGradient><radialGradient id="radial-gradient-13" cx="352.01" cy="185.03" r="13.2" xlink:href="#radial-gradient-12"/></defs><g class="cls-1"><g id="Layer_1" data-name="Layer 1"><g class="cls-2"><path class="cls-3" d="M318.31,203.9a16.38,16.38,0,0,1-8.21-2l-87-50.23a8.71,8.71,0,0,1-4.71-7.51c0-3.34,2.07-6.44,5.67-8.53l49.38-28.51a20.32,20.32,0,0,1,10-2.53,16.45,16.45,0,0,1,8.22,2l87,50.23a8.7,8.7,0,0,1,4.72,7.51c0,3.34-2.07,6.44-5.68,8.53l-49.38,28.5A20.16,20.16,0,0,1,318.31,203.9Z"/><path class="cls-4" d="M273.65,107.52a19.82,19.82,0,0,1,10-2.46,18.82,18.82,0,0,1,4.07.49,16.16,16.16,0,0,1,4.07,1.61l86.67,50a8,8,0,0,1,4.36,7.41,8.61,8.61,0,0,1-.54,2.44,12.33,12.33,0,0,1-5.32,5.74L328.23,200.9a20.84,20.84,0,0,1-2.12,1,20.47,20.47,0,0,1-7.69,1.52,16,16,0,0,1-8.1-1.92l-87-50.23a7.92,7.92,0,0,1-4.34-7.43,8.51,8.51,0,0,1,.42-2.1,12.24,12.24,0,0,1,5.46-6.09Z"/><path class="cls-5" d="M273.87,107.9a19.32,19.32,0,0,1,9.92-2.4,16.94,16.94,0,0,1,8.06,2.22l86.35,49.86c3,1.71,4.36,4.42,4,7.31a9.34,9.34,0,0,1-.66,2.33c-.75,1.87-3.2,4.25-5.38,5.5l-48,27.71c-.56.32-1.48.78-2.09,1a20.41,20.41,0,0,1-7.56,1.55,15.7,15.7,0,0,1-8-1.85l-87-50.24c-3-1.72-4.36-4.45-4-7.34a9.65,9.65,0,0,1,.54-2c.7-2,3.26-4.52,5.55-5.84Z"/><path class="cls-6" d="M274.08,108.28A18.91,18.91,0,0,1,284,106a19.21,19.21,0,0,1,4,.64,22.17,22.17,0,0,1,4,1.7L378,158c2.95,1.71,4.19,4.4,3.65,7.22a10.45,10.45,0,0,1-.79,2.21c-.71,1.64-3.5,4.16-5.44,5.28L328.12,200c-.5.28-1.51.81-2.05,1a20,20,0,0,1-7.44,1.58,15.38,15.38,0,0,1-7.88-1.79l-87-50.23c-3-1.72-4.19-4.44-3.59-7.27a12,12,0,0,1,.65-1.91c.68-1.74,3.62-4.43,5.65-5.6Z"/><path class="cls-7" d="M274.3,108.65a18.53,18.53,0,0,1,9.86-2.25,18,18,0,0,1,4,.71,25,25,0,0,1,3.93,1.75l85.69,49.47c2.94,1.69,4,4.37,3.3,7.12a13.61,13.61,0,0,1-.91,2.1c-.67,1.41-3.81,4.06-5.51,5l-46.58,26.9c-.43.25-1.54.83-2,1a19.69,19.69,0,0,1-7.3,1.61,15,15,0,0,1-7.77-1.73l-87-50.23c-3-1.71-4-4.42-3.22-7.18a16.49,16.49,0,0,1,.77-1.82c.65-1.5,4-4.34,5.74-5.36Z"/><path class="cls-8" d="M274.52,109a17.25,17.25,0,0,1,13.78-1.4,30.61,30.61,0,0,1,3.88,1.79l85.36,49.29c2.92,1.68,3.88,4.35,2.94,7a17.93,17.93,0,0,1-1,2c-.62,1.2-4.11,4-5.56,4.82L328,199c-.37.21-1.57.85-2,1a19.66,19.66,0,0,1-7.18,1.66,14.74,14.74,0,0,1-7.65-1.67l-87-50.24c-3-1.7-3.87-4.41-2.85-7.1.22-.58.59-1.1.88-1.71.61-1.27,4.32-4.25,5.84-5.13Z"/><path class="cls-9" d="M274.74,109.41a17.71,17.71,0,0,1,9.8-2.11,17.11,17.11,0,0,1,3.91.85,37.78,37.78,0,0,1,3.84,1.84l85,49.09c2.9,1.68,3.72,4.33,2.58,6.92a7.36,7.36,0,0,1-1.16,1.88c-.35,1.06-4.41,3.88-5.62,4.58l-45.19,26.09c-.31.18-1.6.88-1.94,1a19.21,19.21,0,0,1-7.05,1.69,14.38,14.38,0,0,1-7.55-1.61l-87-50.24c-3-1.7-3.72-4.39-2.48-7a7.56,7.56,0,0,1,1-1.62c.32-1.13,4.66-4.16,5.93-4.89Z"/><path class="cls-10" d="M275,109.78a17.37,17.37,0,0,1,9.77-2,17.79,17.79,0,0,1,3.88.92c.53.18,3.35,1.64,3.79,1.9l84.71,48.9c2.89,1.67,3.57,4.3,2.23,6.82a7.69,7.69,0,0,1-1.28,1.77c-.28.85-4.72,3.79-5.69,4.35l-44.48,25.68c-.25.14-1.64.91-1.91,1a19,19,0,0,1-6.93,1.72,14.07,14.07,0,0,1-7.43-1.55l-87-50.23c-2.94-1.7-3.58-4.39-2.11-6.93a7.38,7.38,0,0,1,1.12-1.53c.25-.9,5-4.06,6-4.65Z"/><path class="cls-11" d="M275.17,110.16a17,17,0,0,1,9.75-2,17.25,17.25,0,0,1,3.84,1c.4.14,3.42,1.75,3.75,1.94l84.38,48.72c2.87,1.66,3.43,4.28,1.87,6.72a7.54,7.54,0,0,1-1.4,1.65c-.21.64-5,3.7-5.74,4.12l-43.79,25.28c-.19.11-1.67.93-1.87,1a18.76,18.76,0,0,1-6.8,1.75,13.57,13.57,0,0,1-7.32-1.49l-87-50.23c-2.93-1.69-3.43-4.38-1.74-6.85a8.51,8.51,0,0,1,1.24-1.43c.19-.67,5.36-4,6.12-4.41Z"/><path class="cls-12" d="M275.39,110.54a16.6,16.6,0,0,1,9.72-1.9,16.83,16.83,0,0,1,3.81,1.06c.26.09,3.48,1.86,3.7,2l84.05,48.53c2.86,1.65,3.3,4.27,1.52,6.62a8.16,8.16,0,0,1-1.52,1.54c-.14.42-5.33,3.6-5.81,3.88l-43.09,24.88c-.12.07-1.7,1-1.83,1a18.17,18.17,0,0,1-6.67,1.79,13.25,13.25,0,0,1-7.21-1.42l-87-50.24c-2.92-1.68-3.3-4.38-1.37-6.76A8.6,8.6,0,0,1,225,140.2c.12-.45,5.7-3.88,6.21-4.18Z"/><path class="cls-13" d="M275.61,110.92a16.19,16.19,0,0,1,9.69-1.83,16.72,16.72,0,0,1,3.78,1.13c.13,0,3.55,2,3.66,2l83.72,48.33c2.84,1.64,3.16,4.27,1.16,6.53a8.38,8.38,0,0,1-1.65,1.42c-.07.22-5.63,3.52-5.87,3.66l-42.39,24.47-1.79,1a18.18,18.18,0,0,1-6.55,1.82,12.91,12.91,0,0,1-7.1-1.36l-87-50.23c-2.91-1.69-3.18-4.4-1-6.69a9.19,9.19,0,0,1,1.47-1.23c.07-.23,6.06-3.79,6.31-3.94Z"/><path d="M312.49,197.77l-87-50.23c-3.44-2-3-5.45,1-7.74l49.38-28.51c4-2.29,10-2.54,13.4-.55l87,50.23c3.43,2,3,5.45-1,7.74L325.9,197.22C321.93,199.51,315.93,199.76,312.49,197.77Z"/></g><path class="cls-14" d="M312.49,197.69l-87-50.23a4,4,0,0,1-2.32-3.3v-4.31c0-1.5,1.14,1.11,3.28-.13l49.38-28.51c4-2.29,10-2.54,13.4-.55l87,50.23c1.14.66,2-2.15,2.27-1.26.1.3,0,4.25.05,4.55,0,1.55-1.08,3.18-3.28,4.45L325.9,197.14C321.93,199.43,315.93,199.68,312.49,197.69Z"/><path class="cls-15" d="M312.49,193.46l-87-50.23c-3.44-2-3-5.45,1-7.74L275.83,107c4-2.29,10-2.54,13.4-.55l87,50.23c3.43,2,3,5.45-1,7.74L325.9,192.91C321.93,195.2,315.93,195.45,312.49,193.46Z"/><path class="cls-16" d="M318.31,193.06a10.21,10.21,0,0,1-4.95-1.1l-87-50.23c-.54-.32-1.45-1-1.45-1.86s.91-2,2.42-2.87l49.38-28.51a13.73,13.73,0,0,1,6.71-1.67,10.16,10.16,0,0,1,4.95,1.11l87,50.23c.54.32,1.45,1,1.45,1.86s-.9,2-2.41,2.87L325,191.4A13.79,13.79,0,0,1,318.31,193.06Z"/><path class="cls-17" d="M375.28,163.68,325.9,192.19c-4,2.29-10,2.54-13.41.55l-87-50.23a4.11,4.11,0,0,1-2.3-3c-.18,1.4.57,2.77,2.3,3.76l87,50.23c3.44,2,9.44,1.74,13.41-.55l49.38-28.51c2.32-1.34,3.42-3.08,3.25-4.7C378.35,161.1,377.25,162.54,375.28,163.68Z"/><ellipse class="cls-18" cx="352.54" cy="184.77" rx="28.32" ry="18.8" transform="translate(-43.77 147.87) rotate(-22.34)"/><ellipse class="cls-19" cx="273.87" cy="125.05" rx="21.72" ry="12.82" transform="translate(-25.78 95.88) rotate(-18.98)"/><path class="cls-20" d="M328,175,257.3,134.17c-1.41-.82-1.24-2.25.4-3.19l26.52-15.31a6.11,6.11,0,0,1,5.52-.23l70.66,40.79c1.41.82,1.23,2.24-.4,3.18l-26.53,15.32A6.14,6.14,0,0,1,328,175Z"/><path class="cls-21" d="M285.77,118.65l4.53,2.61a2.31,2.31,0,0,0,2.08,0c.57-.33.57-.86,0-1.2l-4.53-2.61a2.31,2.31,0,0,0-2.08,0C285.19,117.78,285.19,118.31,285.77,118.65Zm7.75,4.47,2.15,1.24a2.31,2.31,0,0,0,2.08,0c.57-.33.56-.86,0-1.2l-2.15-1.23a2.26,2.26,0,0,0-2.07,0A.63.63,0,0,0,293.52,123.12Zm5.37,3.1,2.15,1.24a2.29,2.29,0,0,0,2.07,0c.58-.33.57-.86,0-1.2L301,125a2.31,2.31,0,0,0-2.08,0A.63.63,0,0,0,298.89,126.22Zm5.37,3.1,2.15,1.24a2.29,2.29,0,0,0,2.07,0c.58-.33.57-.86,0-1.2l-2.15-1.24a2.31,2.31,0,0,0-2.08,0A.63.63,0,0,0,304.26,129.32Zm5.37,3.1,2.14,1.24a2.31,2.31,0,0,0,2.08,0c.57-.33.57-.86,0-1.2l-2.15-1.24a2.31,2.31,0,0,0-2.08,0A.63.63,0,0,0,309.63,132.42Zm5.37,3.1,2.14,1.24a2.31,2.31,0,0,0,2.08,0,.63.63,0,0,0,0-1.2l-2.15-1.24a2.31,2.31,0,0,0-2.08,0A.63.63,0,0,0,315,135.52Zm5.37,3.1,2.14,1.24a2.31,2.31,0,0,0,2.08,0,.63.63,0,0,0,0-1.2l-2.14-1.24a2.31,2.31,0,0,0-2.08,0A.63.63,0,0,0,320.37,138.62Zm5.37,3.1,2.14,1.24a2.31,2.31,0,0,0,2.08,0,.63.63,0,0,0,0-1.2l-2.14-1.24a2.31,2.31,0,0,0-2.08,0A.63.63,0,0,0,325.74,141.72Zm5.37,3.1,2.14,1.24a2.31,2.31,0,0,0,2.08,0,.63.63,0,0,0,0-1.2l-2.14-1.24a2.31,2.31,0,0,0-2.08,0A.63.63,0,0,0,331.11,144.82Zm5.36,3.1,2.15,1.24a2.31,2.31,0,0,0,2.08,0,.63.63,0,0,0,0-1.2l-2.14-1.24a2.31,2.31,0,0,0-2.08,0A.63.63,0,0,0,336.47,147.92Zm5.37,3.1,2.15,1.24a2.31,2.31,0,0,0,2.08,0,.63.63,0,0,0,0-1.2l-2.14-1.24a2.31,2.31,0,0,0-2.08,0A.63.63,0,0,0,341.84,151Zm5.37,3.1,2.15,1.24a2.31,2.31,0,0,0,2.08,0,.63.63,0,0,0,0-1.2l-2.15-1.24a2.29,2.29,0,0,0-2.07,0A.63.63,0,0,0,347.21,154.12Zm5.48,3.16,2.15,1.24a2.31,2.31,0,0,0,2.08,0,.63.63,0,0,0,0-1.2l-2.14-1.24a2.28,2.28,0,0,0-2.08,0A.63.63,0,0,0,352.69,157.28ZM280.94,121.6l1.86,1.07a2.62,2.62,0,0,0,2.36,0l1.85-1.07a.72.72,0,0,0,0-1.36l-1.86-1.08a2.62,2.62,0,0,0-2.36,0l-1.85,1.06A.73.73,0,0,0,280.94,121.6Zm9.59,4.18,1.85-1.07a.72.72,0,0,0,0-1.36l-1.86-1.08a2.59,2.59,0,0,0-2.36,0l-1.85,1.06a.73.73,0,0,0,0,1.37l1.86,1.07A2.62,2.62,0,0,0,290.53,125.78Zm1.15,2,1.86,1.07a2.62,2.62,0,0,0,2.36,0l1.85-1.07a.73.73,0,0,0,0-1.37l-1.86-1.07a2.59,2.59,0,0,0-2.36,0l-1.85,1.06A.72.72,0,0,0,291.68,127.8Zm5.37,3.1,1.86,1.07a2.62,2.62,0,0,0,2.36,0l1.85-1.07a.73.73,0,0,0,0-1.37l-1.86-1.07a2.59,2.59,0,0,0-2.36,0L297,129.53A.72.72,0,0,0,297.05,130.9Zm11.43,1.74-1.86-1.07a2.59,2.59,0,0,0-2.36,0l-1.85,1.06a.72.72,0,0,0,0,1.37l1.85,1.07a2.64,2.64,0,0,0,2.37,0l1.85-1.07A.73.73,0,0,0,308.48,132.64Zm5.37,3.1L312,134.67a2.61,2.61,0,0,0-2.37,0l-1.84,1.06a.72.72,0,0,0,0,1.37l1.85,1.07a2.64,2.64,0,0,0,2.37,0l1.84-1.07A.72.72,0,0,0,313.85,135.74Zm5.37,3.1-1.86-1.07a2.61,2.61,0,0,0-2.37,0l-1.84,1.06a.72.72,0,0,0,0,1.37l1.85,1.07a2.64,2.64,0,0,0,2.37,0l1.84-1.07A.73.73,0,0,0,319.22,138.84Zm5.36,3.1-1.85-1.07a2.61,2.61,0,0,0-2.37,0l-1.84,1.06a.73.73,0,0,0,0,1.37l1.86,1.07a2.61,2.61,0,0,0,2.37,0l1.84-1.06A.72.72,0,0,0,324.58,141.94ZM330,145,328.1,144a2.61,2.61,0,0,0-2.37,0L323.89,145a.73.73,0,0,0,0,1.37l1.86,1.07a2.61,2.61,0,0,0,2.37,0l1.84-1.06A.72.72,0,0,0,330,145Zm5.37,3.1-1.85-1.07a2.61,2.61,0,0,0-2.37,0l-1.84,1.06a.72.72,0,0,0,0,1.37l1.86,1.07a2.59,2.59,0,0,0,2.36,0l1.85-1.06A.72.72,0,0,0,335.32,148.14Zm-.69,4.46,1.86,1.07a2.59,2.59,0,0,0,2.36,0l1.85-1.06a.72.72,0,0,0,0-1.37l-1.86-1.07a2.59,2.59,0,0,0-2.36,0l-1.85,1.06A.73.73,0,0,0,334.63,152.6Zm11.43,1.74-1.86-1.07a2.59,2.59,0,0,0-2.36,0L340,154.33a.73.73,0,0,0,0,1.37l1.86,1.07a2.59,2.59,0,0,0,2.36,0l1.85-1.06A.72.72,0,0,0,346.06,154.34Zm7.86,4.54-4.24-2.44a2.62,2.62,0,0,0-2.36,0l-1.85,1.07c-.65.37-.64,1,0,1.36l4.24,2.45a2.61,2.61,0,0,0,2.37,0l1.84-1.06A.72.72,0,0,0,353.92,158.88ZM276,124.47l4.24,2.45a2.59,2.59,0,0,0,2.36,0l1.85-1.06a.72.72,0,0,0,0-1.37L280.17,122a2.62,2.62,0,0,0-2.36,0L276,123.11C275.31,123.48,275.31,124.09,276,124.47Zm7.75,4.48,1.86,1.07a2.59,2.59,0,0,0,2.36,0l1.85-1.06a.72.72,0,0,0,0-1.37l-1.86-1.07a2.59,2.59,0,0,0-2.36,0l-1.85,1.06A.73.73,0,0,0,283.72,129Zm7.23,4.17a2.59,2.59,0,0,0,2.36,0l1.85-1.06a.73.73,0,0,0,0-1.37l-1.86-1.07a2.59,2.59,0,0,0-2.36,0l-1.85,1.06a.72.72,0,0,0,0,1.37Zm5.37,3.1a2.59,2.59,0,0,0,2.36,0l1.85-1.06a.73.73,0,0,0,0-1.37l-1.86-1.07a2.59,2.59,0,0,0-2.36,0l-1.85,1.06a.72.72,0,0,0,0,1.37Zm5.35-.4-1.85,1.06a.72.72,0,0,0,0,1.37l1.85,1.07a2.61,2.61,0,0,0,2.37,0l1.85-1.06a.73.73,0,0,0,0-1.37L304,135.82A2.59,2.59,0,0,0,301.67,135.82Zm5.48,3-2.07,1.2a.65.65,0,0,0,0,1.23l2.09,1.2a2.34,2.34,0,0,0,2.14,0l2.07-1.2c.59-.34.58-.89,0-1.23l-2.08-1.21A2.37,2.37,0,0,0,307.15,138.85Zm5.37,3.1-2.08,1.2a.65.65,0,0,0,0,1.23l2.09,1.2a2.32,2.32,0,0,0,2.13,0l2.08-1.2c.59-.34.58-.89,0-1.23L314.65,142A2.35,2.35,0,0,0,312.52,142Zm5.37,3.1-2.08,1.2a.65.65,0,0,0,0,1.23l2.09,1.2a2.32,2.32,0,0,0,2.13,0l2.08-1.2a.65.65,0,0,0,0-1.23L320,145.05A2.35,2.35,0,0,0,317.89,145.05Zm5.36,3.1-2.07,1.2c-.59.33-.58.89,0,1.23l2.08,1.2a2.34,2.34,0,0,0,2.14,0l2.07-1.2a.65.65,0,0,0,0-1.23l-2.09-1.21A2.37,2.37,0,0,0,323.25,148.15Zm5.37,3.1-2.07,1.19a.66.66,0,0,0,0,1.24l2.08,1.2a2.37,2.37,0,0,0,2.14,0l2.07-1.2a.65.65,0,0,0,0-1.23l-2.09-1.21A2.37,2.37,0,0,0,328.62,151.25Zm7.53,6.74,2.07-1.2a.65.65,0,0,0,0-1.23l-2.09-1.21a2.37,2.37,0,0,0-2.14,0l-2.07,1.19a.66.66,0,0,0,0,1.24L334,158A2.37,2.37,0,0,0,336.15,158Zm5.37,3.1,2.07-1.2c.59-.34.59-.89,0-1.23l-2.08-1.21a2.37,2.37,0,0,0-2.14,0l-2.07,1.19a.65.65,0,0,0,0,1.24l2.08,1.2A2.37,2.37,0,0,0,341.52,161.09Zm7.55.73-2.09-1.2a2.34,2.34,0,0,0-2.14,0l-2.07,1.2c-.59.34-.59.89,0,1.23l2.08,1.21a2.37,2.37,0,0,0,2.14,0l2.07-1.2A.65.65,0,0,0,349.07,161.82Zm-78.19-34.54,6.73,3.88a2.37,2.37,0,0,0,2.14,0l2.07-1.2a.65.65,0,0,0,0-1.23l-6.74-3.89a2.35,2.35,0,0,0-2.13,0L270.88,126C270.29,126.38,270.29,126.93,270.88,127.28Zm10,5.78,2.08,1.2a2.37,2.37,0,0,0,2.14,0l2.07-1.2a.65.65,0,0,0,0-1.23l-2.09-1.21a2.37,2.37,0,0,0-2.14,0l-2.07,1.19A.66.66,0,0,0,280.9,133.06Zm5.37,3.1,2.08,1.2a2.37,2.37,0,0,0,2.14,0l2.07-1.2c.59-.34.59-.89,0-1.23l-2.08-1.21a2.37,2.37,0,0,0-2.14,0l-2.07,1.19A.65.65,0,0,0,286.27,136.16Zm5.37,3.1,2.08,1.2a2.37,2.37,0,0,0,2.14,0l2.07-1.2c.59-.34.59-.89,0-1.23l-2.08-1.21a2.37,2.37,0,0,0-2.14,0L291.63,138A.65.65,0,0,0,291.64,139.26Zm9.59,4.31,2.07-1.2c.59-.34.58-.89,0-1.23l-2.08-1.21a2.37,2.37,0,0,0-2.14,0L297,141.12a.66.66,0,0,0,0,1.24l2.09,1.2A2.37,2.37,0,0,0,301.23,143.57Zm5.37,3.1,2.07-1.2c.59-.34.58-.89,0-1.23L306.58,143a2.37,2.37,0,0,0-2.14,0l-2.07,1.19a.66.66,0,0,0,0,1.24l2.09,1.2A2.37,2.37,0,0,0,306.6,146.67Zm5.37,3.1,2.07-1.2c.59-.34.58-.89,0-1.24l-2.08-1.2a2.37,2.37,0,0,0-2.14,0l-2.07,1.19a.66.66,0,0,0,0,1.24l2.09,1.2A2.37,2.37,0,0,0,312,149.77Zm5.36,3.1,2.08-1.2c.58-.34.58-.89,0-1.24l-2.09-1.2a2.35,2.35,0,0,0-2.13,0l-2.08,1.19a.66.66,0,0,0,0,1.24l2.09,1.2A2.35,2.35,0,0,0,317.33,152.87Zm5.37,3.1,2.08-1.2c.58-.34.58-.89,0-1.24l-2.09-1.2a2.35,2.35,0,0,0-2.13,0l-2.08,1.19a.66.66,0,0,0,0,1.24l2.09,1.2A2.38,2.38,0,0,0,322.7,156Zm5.37,3.09,2.07-1.19c.59-.34.59-.89,0-1.24l-2.09-1.2a2.37,2.37,0,0,0-2.14,0l-2.07,1.19a.66.66,0,0,0,0,1.24l2.08,1.2A2.37,2.37,0,0,0,328.07,159.06Zm1.15,1.9,2.08,1.2a2.37,2.37,0,0,0,2.14,0l2.07-1.19c.59-.34.59-.89,0-1.24l-2.09-1.2a2.37,2.37,0,0,0-2.14,0l-2.07,1.19A.66.66,0,0,0,329.22,161Zm14.87,3.73-5.3-3.06a2.37,2.37,0,0,0-2.14,0l-2.07,1.19c-.59.34-.58.89,0,1.24l5.3,3.06a2.37,2.37,0,0,0,2.14,0l2.07-1.19A.66.66,0,0,0,344.09,164.69ZM265.93,130.3l9.55,5.51a2.68,2.68,0,0,0,2.42,0l1.79-1c.67-.39.66-1,0-1.4l-9.55-5.51a2.66,2.66,0,0,0-2.41,0l-1.8,1A.74.74,0,0,0,265.93,130.3ZM279,137.87l1.81,1a2.65,2.65,0,0,0,2.42,0l1.79-1c.67-.39.66-1,0-1.4l-1.8-1a2.65,2.65,0,0,0-2.42,0l-1.79,1A.74.74,0,0,0,279,137.87Zm5.37,3.1,1.81,1a2.63,2.63,0,0,0,2.41,0l1.8-1a.74.74,0,0,0,0-1.4l-1.8-1a2.65,2.65,0,0,0-2.42,0l-1.8,1A.74.74,0,0,0,284.41,141Zm5.37,3.1,1.81,1a2.63,2.63,0,0,0,2.41,0l1.8-1a.74.74,0,0,0,0-1.4l-1.81-1a2.63,2.63,0,0,0-2.41,0l-1.8,1A.74.74,0,0,0,289.78,144.07Zm5.37,3.1,1.81,1a2.63,2.63,0,0,0,2.41,0l1.8-1a.74.74,0,0,0,0-1.4l-1.81-1a2.63,2.63,0,0,0-2.41,0l-1.8,1A.74.74,0,0,0,295.15,147.17Zm5.37,3.1,1.81,1a2.63,2.63,0,0,0,2.41,0l1.8-1a.74.74,0,0,0,0-1.4l-1.81-1a2.63,2.63,0,0,0-2.41,0l-1.8,1A.74.74,0,0,0,300.52,150.27Zm5.37,3.1,1.8,1a2.65,2.65,0,0,0,2.42,0l1.8-1a.74.74,0,0,0,0-1.4l-1.81-1a2.66,2.66,0,0,0-2.41,0l-1.8,1A.74.74,0,0,0,305.89,153.37Zm5.37,3.1,1.8,1a2.65,2.65,0,0,0,2.42,0l1.79-1a.74.74,0,0,0,0-1.4l-1.81-1a2.66,2.66,0,0,0-2.41,0l-1.8,1C310.58,155.46,310.59,156.08,311.26,156.47Zm5.37,3.1,1.8,1a2.65,2.65,0,0,0,2.42,0l1.79-1a.74.74,0,0,0,0-1.4l-1.81-1a2.68,2.68,0,0,0-2.42,0l-1.79,1C316,158.56,316,159.18,316.63,159.57Zm5.36,3.1,1.81,1a2.65,2.65,0,0,0,2.42,0l1.79-1a.74.74,0,0,0,0-1.4l-1.81-1a2.68,2.68,0,0,0-2.42,0l-1.79,1C321.32,161.65,321.33,162.28,322,162.67Zm5.37,3.1,1.81,1a2.68,2.68,0,0,0,2.42,0l1.79-1c.67-.39.66-1,0-1.4l-1.8-1a2.68,2.68,0,0,0-2.42,0l-1.79,1A.74.74,0,0,0,327.36,165.77Zm11.5,1.78-1.8-1a2.68,2.68,0,0,0-2.42,0l-1.8,1a.73.73,0,0,0,0,1.39l1.81,1a2.66,2.66,0,0,0,2.41,0l1.8-1C339.53,168.56,339.53,167.94,338.86,167.55Zm-69.51-34.39-4.19-2.42a2.65,2.65,0,0,0-2.42,0l-1.79,1c-.67.39-.66,1,0,1.4l4.19,2.42a2.69,2.69,0,0,0,2.41,0l1.8-1C270,134.17,270,133.55,269.35,133.16Zm5.37,3.1-1.81-1a2.66,2.66,0,0,0-2.41,0l-1.8,1a.73.73,0,0,0,0,1.39l1.81,1.05a2.69,2.69,0,0,0,2.41,0l1.8-1C275.39,137.27,275.39,136.65,274.72,136.26Zm5.37,3.1-1.81-1a2.66,2.66,0,0,0-2.41,0l-1.8,1a.73.73,0,0,0,0,1.39l1.8,1a2.71,2.71,0,0,0,2.42,0l1.8-1C280.76,140.37,280.76,139.75,280.09,139.36Zm37.58,21.7-34-19.64a2.68,2.68,0,0,0-2.42,0l-1.79,1c-.67.38-.66,1,0,1.39l34,19.64a2.66,2.66,0,0,0,2.41,0l1.8-1A.73.73,0,0,0,317.67,161.06Zm5.37,3.1-1.81-1a2.69,2.69,0,0,0-2.41,0l-1.8,1c-.66.38-.66,1,0,1.39l1.81,1a2.66,2.66,0,0,0,2.41,0l1.8-1A.73.73,0,0,0,323,164.16Zm5.37,3.1-1.81-1a2.69,2.69,0,0,0-2.41,0l-1.8,1c-.66.38-.66,1,0,1.39l1.81,1a2.66,2.66,0,0,0,2.41,0l1.8-1A.73.73,0,0,0,328.41,167.26Zm5.48,3.16-1.81-1a2.66,2.66,0,0,0-2.41,0l-1.8,1a.73.73,0,0,0,0,1.39l1.81,1a2.66,2.66,0,0,0,2.41,0l1.8-1A.74.74,0,0,0,333.89,170.42Z"/><path class="cls-22" d="M374.86,156,291,107.56c-3.25-1.87-5.88-6.9-5.88-11.22V30.57c0-4.33,2.63-6.31,5.88-4.44l83.83,48.43c3.24,1.87,5.88,6.9,5.88,11.23v65.76C380.74,155.88,378.1,157.87,374.86,156Z"/><path class="cls-23" d="M375.62,152.61l-82.94-47.9a10,10,0,0,1-4.23-8.37V30.25a1,1,0,0,1,1.57-.89l.18.1,83,48c3.11,1.79,4.22,5,4.22,8.37v65.92a1.12,1.12,0,0,1-1.68,1Z"/><path class="cls-24" d="M373.21,77.42l-83-48-.18-.1a1,1,0,0,0-1.57.89V96.34a10,10,0,0,0,4.23,8.37l82.94,47.9.13.08a1.12,1.12,0,0,0,1.68-1V85.79C377.43,82.39,376.32,79.21,373.21,77.42Zm3.56,74.29a.46.46,0,0,1-.69.41l-83.07-48a9.3,9.3,0,0,1-3.9-7.79V30.25a.39.39,0,0,1,.39-.38.45.45,0,0,1,.19.05L372.88,78c3.22,1.85,3.89,5.26,3.89,7.8Z"/><path class="cls-25" d="M376.52,73.67,292.69,25.24a4,4,0,0,0-3.44-.5c-.12.05-1.76.92-1.87,1h0a3.84,3.84,0,0,1,3.66.4l83.83,48.43c3.24,1.87,5.88,6.9,5.88,11.23v65.76c0,2.7-1,4.49-2.59,5a.91.91,0,0,0,.52-.18c.07,0,1.85-1,1.92-1.09,1.12-.78,1.81-2.39,1.81-4.62V84.9C382.4,80.57,379.77,75.55,376.52,73.67Z"/><path class="cls-26" d="M375.14,74.42,291.31,26a3.88,3.88,0,0,0-3.54-.45,4.3,4.3,0,0,1,2.83.66l83.84,48.43c3.24,1.87,5.87,6.9,5.87,11.23v65.76c0,2.55-.92,4.28-2.33,4.9,1.81-.29,3-2.16,3-5.11V85.64C381,81.32,378.39,76.29,375.14,74.42Z"/><path class="cls-27" d="M382.17,85.27c-2.15.88-5-1-6.3-4.26s-.67-6.57,1.48-7.45,5,1,6.3,4.26S384.31,84.39,382.17,85.27Z"/><g class="cls-2"><path class="cls-3" d="M115.71,273.78a16.49,16.49,0,0,0,8.21-2l87-50.24a8.67,8.67,0,0,0,4.71-7.5c0-3.34-2.06-6.45-5.67-8.53L160.59,177a20.29,20.29,0,0,0-10-2.53,16.38,16.38,0,0,0-8.21,2l-87,50.23a8.69,8.69,0,0,0-4.71,7.51c0,3.33,2.07,6.44,5.67,8.52l49.38,28.51A20.19,20.19,0,0,0,115.71,273.78Z"/><path class="cls-4" d="M142.61,176.84l-87,50.24a7.91,7.91,0,0,0-4.34,7.42,8.49,8.49,0,0,0,.42,2.11c.7,2.23,2.92,4.61,5.46,6.08L106,270.87a19.77,19.77,0,0,0,10,2.46,18.89,18.89,0,0,0,4.07-.5,16.07,16.07,0,0,0,4.06-1.6l86.68-50a8,8,0,0,0,4.36-7.41,8.68,8.68,0,0,0-.54-2.45,12.27,12.27,0,0,0-5.32-5.73l-48.68-28.11a20.89,20.89,0,0,0-2.12-1.05,20.66,20.66,0,0,0-7.69-1.51A16.14,16.14,0,0,0,142.61,176.84Z"/><path class="cls-5" d="M142.83,177.22l-87,50.23c-3,1.72-4.37,4.45-4,7.35a10.47,10.47,0,0,0,.53,2c.7,2,3.27,4.52,5.56,5.84l48.22,27.84a19.29,19.29,0,0,0,9.92,2.39,18.48,18.48,0,0,0,4-.57,18,18,0,0,0,4-1.65l86.35-49.85c3-1.71,4.36-4.42,4-7.31a9.78,9.78,0,0,0-.66-2.33c-.75-1.87-3.21-4.25-5.39-5.51l-48-27.7a20.17,20.17,0,0,0-2.08-1,20.47,20.47,0,0,0-7.57-1.56A15.79,15.79,0,0,0,142.83,177.22Z"/><path class="cls-6" d="M143.05,177.6,56,227.83c-3,1.72-4.19,4.44-3.59,7.26A11.64,11.64,0,0,0,53.1,237c.68,1.75,3.62,4.44,5.65,5.61l47.63,27.5a19,19,0,0,0,9.89,2.32,18.49,18.49,0,0,0,4-.63,22,22,0,0,0,4-1.7l86-49.67c2.95-1.7,4.19-4.4,3.65-7.21a10.73,10.73,0,0,0-.79-2.22c-.71-1.64-3.5-4.15-5.44-5.27l-47.28-27.3c-.5-.29-1.51-.81-2.06-1a20.11,20.11,0,0,0-7.43-1.59A15.39,15.39,0,0,0,143.05,177.6Z"/><path class="cls-7" d="M143.27,178l-87,50.24c-3,1.71-4,4.42-3.23,7.18a16.46,16.46,0,0,0,.78,1.81c.65,1.5,4,4.34,5.74,5.37l47.05,27.16a17.8,17.8,0,0,0,13.84,1.55,25,25,0,0,0,3.93-1.75l85.69-49.47c2.93-1.7,4-4.38,3.29-7.12a12.64,12.64,0,0,0-.9-2.1c-.68-1.42-3.81-4.07-5.51-5.05L160.36,178.9c-.44-.25-1.54-.83-2-1a19.9,19.9,0,0,0-7.3-1.62A15.16,15.16,0,0,0,143.27,178Z"/><path class="cls-8" d="M143.48,178.35l-87,50.23c-3,1.71-3.87,4.41-2.86,7.1.22.59.6,1.11.89,1.72.61,1.27,4.32,4.25,5.84,5.13l46.47,26.83a17.25,17.25,0,0,0,13.78,1.4,30.65,30.65,0,0,0,3.88-1.8l85.36-49.28c2.92-1.69,3.87-4.35,2.94-7a17.2,17.2,0,0,0-1-2c-.62-1.19-4.11-4-5.57-4.81L160.3,179.37c-.37-.22-1.57-.86-2-1a19.5,19.5,0,0,0-7.18-1.65A14.68,14.68,0,0,0,143.48,178.35Z"/><path class="cls-9" d="M143.7,178.73,56.7,229c-3,1.7-3.72,4.4-2.49,7a7.61,7.61,0,0,0,1,1.62c.32,1.12,4.66,4.15,5.93,4.89L107,269a16.65,16.65,0,0,0,13.71,1.26,40,40,0,0,0,3.84-1.84l85-49.1c2.91-1.67,3.72-4.32,2.59-6.92a7.31,7.31,0,0,0-1.16-1.87c-.35-1.07-4.41-3.89-5.62-4.58l-45.19-26.09c-.31-.18-1.6-.88-1.94-1a19.25,19.25,0,0,0-7.05-1.69A14.29,14.29,0,0,0,143.7,178.73Z"/><path class="cls-10" d="M143.92,179.11l-87,50.23c-2.93,1.7-3.57,4.39-2.11,6.93a8.18,8.18,0,0,0,1.12,1.53c.26.9,5,4.06,6,4.65l45.3,26.15a16.14,16.14,0,0,0,13.66,1.12c.53-.17,3.35-1.64,3.79-1.89l84.71-48.9c2.89-1.67,3.57-4.31,2.23-6.83a8.19,8.19,0,0,0-1.28-1.76c-.28-.85-4.72-3.79-5.69-4.35l-44.48-25.68c-.25-.15-1.64-.91-1.91-1a18.86,18.86,0,0,0-6.93-1.72A13.86,13.86,0,0,0,143.92,179.11Z"/><path class="cls-11" d="M144.14,179.48l-87,50.24c-2.93,1.69-3.44,4.38-1.74,6.85A8.46,8.46,0,0,0,56.63,238c.19.68,5.36,4,6.12,4.42l44.72,25.82a17,17,0,0,0,9.75,2,16.72,16.72,0,0,0,3.84-1c.4-.13,3.42-1.75,3.75-1.94l84.38-48.71c2.87-1.66,3.43-4.29,1.87-6.73a7.78,7.78,0,0,0-1.4-1.65c-.21-.63-5-3.69-5.75-4.11l-43.78-25.28c-.19-.11-1.67-.93-1.87-1a18.61,18.61,0,0,0-6.8-1.75A13.66,13.66,0,0,0,144.14,179.48Z"/><path class="cls-12" d="M144.36,179.86l-87,50.23c-2.92,1.69-3.3,4.39-1.37,6.77a8.2,8.2,0,0,0,1.36,1.33c.12.45,5.7,3.88,6.21,4.17l44.14,25.49a16.58,16.58,0,0,0,9.72,1.9,17,17,0,0,0,3.81-1.06c.26-.1,3.48-1.87,3.7-2L209,218.17c2.86-1.65,3.3-4.27,1.52-6.62A8.16,8.16,0,0,0,209,210c-.15-.43-5.33-3.61-5.81-3.89l-43.09-24.87c-.12-.08-1.7-1-1.83-1a18.41,18.41,0,0,0-6.68-1.78A13.24,13.24,0,0,0,144.36,179.86Z"/><path class="cls-13" d="M144.57,180.24l-87,50.23c-2.92,1.68-3.18,4.39-1,6.68A9.23,9.23,0,0,0,58,238.39c.06.22,6.06,3.79,6.31,3.93l43.56,25.15a16.19,16.19,0,0,0,9.69,1.83,17,17,0,0,0,3.77-1.13c.14-.05,3.55-2,3.66-2l83.72-48.34c2.85-1.64,3.17-4.26,1.17-6.52a8.75,8.75,0,0,0-1.65-1.43c-.07-.21-5.63-3.51-5.87-3.65L160,181.72l-1.79-1a18,18,0,0,0-6.55-1.82A12.91,12.91,0,0,0,144.57,180.24Z"/><path d="M121.53,267.65l87-50.23c3.43-2,3-5.45-1-7.74L158.2,181.17c-4-2.29-10-2.54-13.41-.56l-87,50.24c-3.43,2-3,5.45,1,7.74l49.37,28.5C112.09,269.39,118.09,269.63,121.53,267.65Z"/></g><path class="cls-28" d="M121.53,267.57l87-50.23a4,4,0,0,0,2.31-3.3s0-4.27,0-4.31c0-1.51-1.13,1.11-3.28-.13L158.2,181.09c-4-2.29-10-2.54-13.41-.56l-87,50.24c-1.14.66-2-2.15-2.27-1.26-.1.3,0,4.24,0,4.55,0,1.54,1.08,3.18,3.28,4.45L108.12,267C112.09,269.31,118.09,269.55,121.53,267.57Z"/><path class="cls-29" d="M121.53,263.34l87-50.23c3.43-2,3-5.45-1-7.74L158.2,176.86c-4-2.29-10-2.54-13.41-.56l-87,50.24c-3.43,2-3,5.45,1,7.74l49.37,28.5C112.09,265.08,118.09,265.32,121.53,263.34Z"/><path class="cls-30" d="M115.71,262.94a10.19,10.19,0,0,0,5-1.1l87-50.24c.54-.31,1.45-1,1.45-1.85s-.9-2-2.42-2.88l-49.37-28.51a13.9,13.9,0,0,0-6.72-1.66,10.18,10.18,0,0,0-5,1.11L58.65,228c-.54.31-1.45,1-1.45,1.86s.91,2,2.42,2.87L109,261.28A13.79,13.79,0,0,0,115.71,262.94Z"/><path class="cls-17" d="M58.75,233.56l49.37,28.51c4,2.29,10,2.54,13.41.55l87-50.23a4.11,4.11,0,0,0,2.29-3c.18,1.41-.57,2.77-2.29,3.77l-87,50.23c-3.44,2-9.44,1.74-13.41-.56l-49.37-28.5c-2.32-1.34-3.42-3.09-3.26-4.7C55.67,231,56.77,232.42,58.75,233.56Z"/><ellipse class="cls-31" cx="165.92" cy="244.94" rx="29.51" ry="19.59" transform="translate(-78.55 78.32) rotate(-21.61)"/><ellipse class="cls-32" cx="160.16" cy="194.93" rx="12.82" ry="21.72" transform="matrix(0.33, -0.95, 0.95, 0.33, -76.26, 282.97)"/><path class="cls-33" d="M106.07,244.84,176.72,204c1.42-.81,1.24-2.24-.4-3.18L149.8,185.54a6.17,6.17,0,0,0-5.52-.23l-70.65,40.8c-1.42.81-1.24,2.24.39,3.18l26.53,15.32A6.17,6.17,0,0,0,106.07,244.84Z"/><path class="cls-34" d="M148.26,187.32a2.28,2.28,0,0,0-2.08,0l-4.53,2.61a.63.63,0,0,0,0,1.2,2.29,2.29,0,0,0,2.07,0l4.53-2.62A.63.63,0,0,0,148.26,187.32Zm-7.75,4.48a2.31,2.31,0,0,0-2.08,0L136.28,193a.63.63,0,0,0,0,1.2,2.31,2.31,0,0,0,2.08,0L140.5,193A.63.63,0,0,0,140.51,191.8Zm-5.37,3.1a2.31,2.31,0,0,0-2.08,0l-2.15,1.24a.63.63,0,0,0,0,1.2,2.31,2.31,0,0,0,2.08,0l2.14-1.24A.63.63,0,0,0,135.14,194.9Zm-5.37,3.1a2.31,2.31,0,0,0-2.08,0l-2.15,1.24a.63.63,0,0,0,0,1.2,2.31,2.31,0,0,0,2.08,0l2.14-1.24A.63.63,0,0,0,129.77,198Zm-5.37,3.1a2.31,2.31,0,0,0-2.08,0l-2.14,1.24a.63.63,0,0,0,0,1.2,2.31,2.31,0,0,0,2.08,0l2.14-1.24A.63.63,0,0,0,124.4,201.1ZM119,204.2a2.31,2.31,0,0,0-2.08,0l-2.14,1.24a.63.63,0,0,0,0,1.2,2.31,2.31,0,0,0,2.08,0L119,205.4A.63.63,0,0,0,119,204.2Zm-5.37,3.1a2.31,2.31,0,0,0-2.08,0l-2.14,1.24a.63.63,0,0,0,0,1.2,2.31,2.31,0,0,0,2.08,0l2.14-1.24A.63.63,0,0,0,113.66,207.3Zm-5.37,3.1a2.31,2.31,0,0,0-2.08,0l-2.14,1.24a.63.63,0,0,0,0,1.2,2.31,2.31,0,0,0,2.08,0l2.15-1.24A.63.63,0,0,0,108.29,210.4Zm-5.37,3.1a2.31,2.31,0,0,0-2.08,0l-2.14,1.24a.63.63,0,0,0,0,1.2,2.31,2.31,0,0,0,2.08,0l2.15-1.24A.63.63,0,0,0,102.92,213.5Zm-5.37,3.1a2.29,2.29,0,0,0-2.07,0l-2.15,1.24a.63.63,0,0,0,0,1.2,2.31,2.31,0,0,0,2.08,0l2.15-1.24C98.12,217.46,98.13,216.93,97.55,216.6Zm-5.36,3.1a2.31,2.31,0,0,0-2.08,0L88,220.94a.63.63,0,0,0,0,1.2,2.29,2.29,0,0,0,2.07,0l2.15-1.24C92.75,220.56,92.76,220,92.19,219.7Zm-5.37,3.1a2.31,2.31,0,0,0-2.08,0L82.59,224a.63.63,0,0,0,0,1.2,2.31,2.31,0,0,0,2.08,0L86.81,224C87.39,223.66,87.39,223.13,86.82,222.8ZM81.34,226a2.31,2.31,0,0,0-2.08,0l-2.15,1.24c-.57.34-.58.87,0,1.2a2.29,2.29,0,0,0,2.07,0l2.15-1.24A.63.63,0,0,0,81.34,226Zm71.75-35.85-1.85-1.06a2.59,2.59,0,0,0-2.36,0L147,190.12a.73.73,0,0,0,0,1.37l1.85,1.06a2.59,2.59,0,0,0,2.36,0l1.86-1.07A.72.72,0,0,0,153.09,190.11Zm-7.24,5.54,1.86-1.07a.72.72,0,0,0,0-1.37l-1.85-1.06a2.59,2.59,0,0,0-2.36,0l-1.86,1.07a.73.73,0,0,0,0,1.37l1.85,1.06A2.59,2.59,0,0,0,145.85,195.65Zm-3.5.66-1.85-1.06a2.59,2.59,0,0,0-2.36,0l-1.86,1.07a.72.72,0,0,0,0,1.37l1.84,1.06a2.61,2.61,0,0,0,2.37,0l1.85-1.07A.72.72,0,0,0,142.35,196.31Zm-5.37,3.1-1.84-1.06a2.61,2.61,0,0,0-2.37,0l-1.86,1.07a.72.72,0,0,0,0,1.37l1.84,1.06a2.61,2.61,0,0,0,2.37,0l1.85-1.07A.72.72,0,0,0,137,199.41Zm-11.44,4.48,1.84,1.06a2.61,2.61,0,0,0,2.37,0l1.85-1.07a.72.72,0,0,0,0-1.37l-1.84-1.06a2.61,2.61,0,0,0-2.37,0l-1.86,1.07A.73.73,0,0,0,125.54,203.89Zm-5.37,3.1,1.84,1.06a2.61,2.61,0,0,0,2.37,0l1.86-1.07a.73.73,0,0,0,0-1.37l-1.84-1.06a2.61,2.61,0,0,0-2.37,0l-1.85,1.07A.72.72,0,0,0,120.17,207Zm-5.37,3.1,1.84,1.06a2.61,2.61,0,0,0,2.37,0l1.86-1.07a.72.72,0,0,0,0-1.37L119,207.65a2.61,2.61,0,0,0-2.37,0l-1.85,1.07A.72.72,0,0,0,114.8,210.09Zm-5.37,3.1,1.85,1.06a2.59,2.59,0,0,0,2.36,0l1.86-1.07a.72.72,0,0,0,0-1.37l-1.84-1.06a2.61,2.61,0,0,0-2.37,0l-1.85,1.07A.72.72,0,0,0,109.43,213.19Zm-5.37,3.1,1.85,1.06a2.59,2.59,0,0,0,2.36,0l1.86-1.07a.73.73,0,0,0,0-1.37l-1.85-1.07a2.62,2.62,0,0,0-2.36,0l-1.86,1.07A.72.72,0,0,0,104.06,216.29Zm-5.37,3.1,1.85,1.06a2.59,2.59,0,0,0,2.36,0l1.86-1.07a.73.73,0,0,0,0-1.37l-1.85-1.07a2.62,2.62,0,0,0-2.36,0L98.7,218A.72.72,0,0,0,98.69,219.39Zm.71,1.72L97.55,220a2.62,2.62,0,0,0-2.36,0l-1.86,1.07a.73.73,0,0,0,0,1.37l1.85,1.06a2.59,2.59,0,0,0,2.36,0l1.86-1.07A.72.72,0,0,0,99.4,221.11ZM88,225.59l1.85,1.06a2.59,2.59,0,0,0,2.36,0L94,225.58a.72.72,0,0,0,0-1.37l-1.85-1.07a2.62,2.62,0,0,0-2.36,0L88,224.22A.73.73,0,0,0,88,225.59Zm-7.86,4.54,1.85,1.06a2.59,2.59,0,0,0,2.36,0l4.24-2.45a.72.72,0,0,0,0-1.37l-1.85-1.06a2.59,2.59,0,0,0-2.36,0l-4.24,2.45A.72.72,0,0,0,80.09,230.13Zm78-37.15-1.84-1.06a2.61,2.61,0,0,0-2.37,0l-4.24,2.45a.73.73,0,0,0,0,1.37l1.85,1.06a2.62,2.62,0,0,0,2.36,0l4.24-2.45A.72.72,0,0,0,158.06,193Zm-7.75,4.48-1.85-1.07a2.62,2.62,0,0,0-2.36,0l-1.86,1.07a.73.73,0,0,0,0,1.37l1.85,1.06a2.62,2.62,0,0,0,2.36,0l1.86-1.08A.72.72,0,0,0,150.31,197.46Zm-5.38,4.46a.72.72,0,0,0,0-1.36l-1.85-1.07a2.62,2.62,0,0,0-2.36,0l-1.86,1.07a.72.72,0,0,0,0,1.37l1.84,1.06a2.64,2.64,0,0,0,2.37,0Zm-5.37,3.1a.72.72,0,0,0,0-1.36l-1.84-1.07a2.64,2.64,0,0,0-2.37,0l-1.86,1.07c-.65.38-.66,1,0,1.36l1.84,1.07a2.64,2.64,0,0,0,2.37,0Zm-9.57.68-1.86,1.07a.72.72,0,0,0,0,1.36L130,209.2a2.64,2.64,0,0,0,2.37,0l1.85-1.08a.72.72,0,0,0,0-1.36l-1.84-1.07A2.64,2.64,0,0,0,130,205.7Zm-5.25,3-2.09,1.2c-.59.35-.59.9,0,1.24l2.08,1.2a2.35,2.35,0,0,0,2.13,0l2.09-1.2a.66.66,0,0,0,0-1.24l-2.08-1.19A2.35,2.35,0,0,0,124.74,208.73Zm-5.37,3.1-2.09,1.2c-.59.35-.59.9,0,1.24l2.07,1.2a2.4,2.4,0,0,0,2.14,0l2.08-1.2a.66.66,0,0,0,0-1.24l-2.07-1.19A2.37,2.37,0,0,0,119.37,211.83Zm-5.37,3.1-2.09,1.2c-.59.35-.59.9,0,1.24l2.07,1.19a2.37,2.37,0,0,0,2.14,0l2.08-1.2a.66.66,0,0,0,0-1.24l-2.07-1.19A2.37,2.37,0,0,0,114,214.93Zm-5.37,3.1-2.09,1.2c-.59.35-.59.9,0,1.24l2.07,1.19a2.37,2.37,0,0,0,2.14,0l2.08-1.2a.66.66,0,0,0,0-1.24L110.77,218A2.37,2.37,0,0,0,108.63,218Zm-5.37,3.1-2.08,1.2c-.6.35-.6.9,0,1.24l2.07,1.19a2.37,2.37,0,0,0,2.14,0l2.08-1.2c.6-.35.6-.9,0-1.24l-2.07-1.19A2.37,2.37,0,0,0,103.26,221.13ZM100,227.86l2.08-1.2c.6-.35.6-.9,0-1.24L100,224.23a2.37,2.37,0,0,0-2.14,0l-2.08,1.2c-.6.35-.6.9,0,1.24l2.07,1.19A2.37,2.37,0,0,0,100,227.86ZM94.64,231l2.09-1.2c.59-.35.59-.9,0-1.24l-2.07-1.19a2.37,2.37,0,0,0-2.14,0l-2.08,1.2c-.59.35-.6.9,0,1.24L92.5,231A2.37,2.37,0,0,0,94.64,231Zm-9.69,2,2.07,1.2a2.34,2.34,0,0,0,2.14,0l2.08-1.2c.6-.34.6-.89,0-1.23l-2.07-1.2a2.37,2.37,0,0,0-2.14,0L85,231.7C84.36,232,84.36,232.59,85,232.93Zm78.2-37-2.07-1.2a2.37,2.37,0,0,0-2.14,0l-6.73,3.88c-.6.35-.6.9,0,1.24l2.07,1.19a2.37,2.37,0,0,0,2.14,0l6.73-3.89C163.73,196.81,163.74,196.26,163.15,195.92Zm-10,5.78-2.07-1.19a2.37,2.37,0,0,0-2.14,0l-2.08,1.2c-.6.35-.6.9,0,1.24l2.07,1.19a2.37,2.37,0,0,0,2.14,0l2.08-1.2C153.72,202.59,153.72,202,153.13,201.7Zm-5.37,3.1-2.07-1.19a2.37,2.37,0,0,0-2.14,0l-2.08,1.2c-.59.35-.6.9,0,1.24l2.07,1.19a2.37,2.37,0,0,0,2.14,0l2.09-1.2C148.35,205.69,148.35,205.14,147.76,204.8Zm-5.37,3.1-2.07-1.19a2.37,2.37,0,0,0-2.14,0l-2.08,1.2c-.59.35-.6.9,0,1.24l2.07,1.19a2.37,2.37,0,0,0,2.14,0l2.09-1.2C143,208.79,143,208.24,142.39,207.9Zm-7.46,5.54,2.09-1.2c.59-.35.59-.9,0-1.24L135,209.81a2.37,2.37,0,0,0-2.14,0l-2.08,1.2a.66.66,0,0,0,0,1.24l2.07,1.19A2.37,2.37,0,0,0,134.93,213.44Zm-5.37,3.1,2.09-1.2c.59-.35.59-.9,0-1.24l-2.08-1.19a2.35,2.35,0,0,0-2.13,0l-2.09,1.2a.66.66,0,0,0,0,1.24l2.08,1.19A2.35,2.35,0,0,0,129.56,216.54Zm-5.37,3.1,2.09-1.2c.59-.35.59-.9,0-1.24l-2.08-1.2a2.38,2.38,0,0,0-2.13,0l-2.09,1.2a.66.66,0,0,0,0,1.24l2.08,1.19A2.35,2.35,0,0,0,124.19,219.64Zm-5.36,3.1,2.08-1.2c.59-.35.6-.9,0-1.24l-2.07-1.2a2.37,2.37,0,0,0-2.14,0l-2.09,1.2a.66.66,0,0,0,0,1.24l2.07,1.19A2.37,2.37,0,0,0,118.83,222.74Zm-5.37,3.1,2.08-1.2c.59-.35.6-.9,0-1.24l-2.07-1.2a2.37,2.37,0,0,0-2.14,0l-2.09,1.2a.66.66,0,0,0,0,1.24l2.07,1.19A2.37,2.37,0,0,0,113.46,225.84Zm-5.37,3.1,2.08-1.21c.59-.34.6-.89,0-1.23l-2.07-1.2a2.37,2.37,0,0,0-2.14,0l-2.09,1.2a.66.66,0,0,0,0,1.24l2.07,1.19A2.37,2.37,0,0,0,108.09,228.94Zm-3.28.66-2.07-1.2a2.37,2.37,0,0,0-2.14,0l-2.08,1.2a.65.65,0,0,0,0,1.24l2.07,1.19a2.37,2.37,0,0,0,2.14,0l2.08-1.21C105.4,230.49,105.4,229.94,104.81,229.6Zm-14.89,6.2L92,237a2.37,2.37,0,0,0,2.14,0l5.3-3.07c.6-.34.6-.89,0-1.23l-2.07-1.2a2.37,2.37,0,0,0-2.14,0l-5.3,3.06C89.34,234.91,89.33,235.46,89.92,235.8Zm78.18-37-1.8-1a2.66,2.66,0,0,0-2.41,0l-9.55,5.51a.74.74,0,0,0,0,1.4l1.8,1a2.66,2.66,0,0,0,2.41,0l9.55-5.52C168.76,199.79,168.77,199.16,168.1,198.78ZM155,206.35l-1.8-1a2.66,2.66,0,0,0-2.41,0l-1.81,1a.74.74,0,0,0,0,1.4l1.8,1a2.66,2.66,0,0,0,2.41,0l1.81-1A.73.73,0,0,0,155,206.35Zm-5.37,3.1-1.8-1a2.66,2.66,0,0,0-2.41,0l-1.81,1a.74.74,0,0,0,0,1.4l1.8,1a2.66,2.66,0,0,0,2.41,0l1.81-1A.73.73,0,0,0,149.62,209.45Zm-5.37,3.1-1.8-1a2.66,2.66,0,0,0-2.41,0l-1.81,1a.74.74,0,0,0,0,1.4l1.8,1a2.66,2.66,0,0,0,2.41,0l1.81-1.05A.73.73,0,0,0,144.25,212.55Zm-5.37,3.1-1.8-1a2.66,2.66,0,0,0-2.41,0l-1.81,1c-.67.39-.67,1,0,1.39l1.8,1a2.68,2.68,0,0,0,2.42,0l1.8-1.05A.73.73,0,0,0,138.88,215.65Zm-5.37,3.1-1.79-1a2.68,2.68,0,0,0-2.42,0l-1.81,1c-.67.39-.67,1,0,1.39l1.79,1a2.68,2.68,0,0,0,2.42,0l1.8-1.05C134.17,219.76,134.18,219.13,133.51,218.75Zm-5.37,3.1-1.79-1a2.68,2.68,0,0,0-2.42,0l-1.81,1c-.67.39-.67,1,0,1.39l1.79,1a2.68,2.68,0,0,0,2.42,0l1.8-1C128.8,222.86,128.81,222.23,128.14,221.85Zm-5.37,3.1-1.79-1a2.68,2.68,0,0,0-2.42,0l-1.81,1c-.66.39-.67,1,0,1.39l1.79,1a2.71,2.71,0,0,0,2.42,0l1.81-1A.73.73,0,0,0,122.77,225Zm-5.37,3.1-1.79-1a2.68,2.68,0,0,0-2.42,0l-1.8,1c-.67.39-.68,1,0,1.39l1.79,1a2.71,2.71,0,0,0,2.42,0l1.81-1.05A.73.73,0,0,0,117.4,228.05Zm-5.37,3.1-1.79-1a2.68,2.68,0,0,0-2.42,0l-1.8,1c-.67.39-.68,1,0,1.39l1.8,1a2.69,2.69,0,0,0,2.41,0l1.81-1.05A.73.73,0,0,0,112,231.15Zm-5.36,3.1-1.8-1a2.68,2.68,0,0,0-2.42,0l-1.8,1c-.67.39-.67,1,0,1.39l1.8,1a2.69,2.69,0,0,0,2.41,0l1.81-1.05A.73.73,0,0,0,106.67,234.25Zm-11.52,4.57,1.8,1a2.66,2.66,0,0,0,2.41,0l1.81-1a.73.73,0,0,0,0-1.39l-1.8-1a2.69,2.69,0,0,0-2.41,0l-1.81,1.05A.73.73,0,0,0,95.15,238.82Zm69.51-34.39,1.8,1a2.68,2.68,0,0,0,2.42,0l4.19-2.42a.73.73,0,0,0,0-1.39l-1.79-1a2.68,2.68,0,0,0-2.42,0L164.67,203A.73.73,0,0,0,164.66,204.43Zm-5.36,3.1,1.79,1a2.68,2.68,0,0,0,2.42,0l1.8-1c.67-.39.68-1,0-1.39l-1.79-1a2.71,2.71,0,0,0-2.42,0l-1.81,1A.73.73,0,0,0,159.3,207.53Zm-5.37,3.1,1.79,1a2.68,2.68,0,0,0,2.42,0l1.8-1c.67-.39.68-1,0-1.39l-1.79-1a2.71,2.71,0,0,0-2.42,0l-1.81,1.05A.73.73,0,0,0,153.93,210.63Zm-37.59,21.7,1.8,1a2.66,2.66,0,0,0,2.41,0l34-19.64c.66-.39.67-1,0-1.39l-1.79-1a2.68,2.68,0,0,0-2.42,0l-34,19.65A.73.73,0,0,0,116.34,232.33Zm-5.37,3.1,1.8,1a2.68,2.68,0,0,0,2.42,0l1.8-1c.67-.39.68-1,0-1.4l-1.8-1a2.66,2.66,0,0,0-2.41,0L111,234A.74.74,0,0,0,111,235.43Zm-5.36,3.1,1.79,1a2.68,2.68,0,0,0,2.42,0l1.8-1c.67-.39.68-1,0-1.4l-1.79-1a2.68,2.68,0,0,0-2.42,0l-1.81,1A.74.74,0,0,0,105.61,238.53Zm-5.48,3.16,1.79,1a2.71,2.71,0,0,0,2.42,0l1.8-1c.67-.38.68-1,0-1.39l-1.8-1a2.66,2.66,0,0,0-2.41,0l-1.81,1C99.46,240.69,99.46,241.31,100.13,241.69Z"/><path class="cls-35" d="M59.16,225.87,143,177.44c3.25-1.87,5.88-6.9,5.88-11.23V100.45c0-4.33-2.63-6.32-5.88-4.44L59.16,144.44c-3.24,1.87-5.87,6.9-5.87,11.22v65.77C53.29,225.75,55.92,227.74,59.16,225.87Z"/><path class="cls-36" d="M58.41,222.49l82.93-47.91a10,10,0,0,0,4.23-8.37V100.13a1,1,0,0,0-1.57-.9l-.18.11-83,47.95c-3.1,1.79-4.22,5-4.22,8.37v65.93a1.12,1.12,0,0,0,1.68,1Z"/><path class="cls-24" d="M56.59,155.66v65.93a1.12,1.12,0,0,0,1.68,1l.14-.08,82.93-47.91a10,10,0,0,0,4.23-8.37V100.13a1,1,0,0,0-1.57-.9l-.18.11-83,47.95C57.71,149.08,56.59,152.27,56.59,155.66Zm.66,0c0-2.53.67-5.94,3.89-7.8l83.2-48.06a.41.41,0,0,1,.19,0,.38.38,0,0,1,.38.38v66.08A9.3,9.3,0,0,1,141,174L57.94,222a.39.39,0,0,1-.23.07.47.47,0,0,1-.46-.47Z"/><path class="cls-37" d="M57.5,143.55l83.83-48.43a4,4,0,0,1,3.44-.5c.12,0,1.76.92,1.87,1h0A3.87,3.87,0,0,0,143,96L59.16,144.44c-3.24,1.87-5.87,6.9-5.87,11.22v65.77c0,2.7,1,4.49,2.58,5a1.07,1.07,0,0,1-.51-.18c-.08,0-1.86-1.05-1.93-1.1-1.11-.78-1.81-2.38-1.81-4.61V154.78C51.62,150.45,54.25,145.42,57.5,143.55Z"/><path class="cls-38" d="M58.88,144.29l83.83-48.42a3.92,3.92,0,0,1,3.54-.46,4.32,4.32,0,0,0-2.83.67L59.59,144.51c-3.25,1.87-5.88,6.9-5.88,11.22V221.5c0,2.55.92,4.28,2.34,4.89-1.82-.28-3-2.15-3-5.1V155.52C53,151.19,55.64,146.17,58.88,144.29Z"/><path class="cls-39" d="M51.86,155.15c2.14.88,5-1,6.29-4.26s.67-6.57-1.48-7.45-5,1-6.29,4.26S49.71,154.27,51.86,155.15Z"/><g class="cls-2"><path class="cls-3" d="M356.3,161.21a8.41,8.41,0,0,1-4.23-1l-33-19-33-19a4.47,4.47,0,0,1-2.42-3.87,5.19,5.19,0,0,1,2.92-4.38l6.22-3.54A10.36,10.36,0,0,1,297.9,109a8.46,8.46,0,0,1,4.23,1l33,19,33,19a4.49,4.49,0,0,1,2.43,3.87,5.24,5.24,0,0,1-2.92,4.39l-6.23,3.54A10.42,10.42,0,0,1,356.3,161.21Z"/><path class="cls-4" d="M287.17,114.11l1.49-.85c.11-.07,4.52-2.53,4.65-2.52a10.12,10.12,0,0,1,3.31-1,14,14,0,0,1,1.72-.07,8.91,8.91,0,0,1,4.11,1.09l31.49,18.17.91.53,32.41,18.71a5.06,5.06,0,0,1,2.35,2.83,4.28,4.28,0,0,1-2.61,5.17l-1.49.86c-.11.06-4.52,2.52-4.65,2.52a10.43,10.43,0,0,1-3.31,1,12.31,12.31,0,0,1-1.72.07,8.83,8.83,0,0,1-4.12-1.09l-31.48-18.17-.91-.53-32.41-18.7a5,5,0,0,1-2.35-2.84,4.07,4.07,0,0,1-.15-.86A4.83,4.83,0,0,1,287.17,114.11Z"/><path class="cls-5" d="M287.79,114.35l1.47-.84c.21-.12,4.34-2.37,4.6-2.36a10.65,10.65,0,0,1,3.25-.83,15.32,15.32,0,0,1,1.66,0,9.4,9.4,0,0,1,4,1.15l30.89,17.85.89.51,31.8,18.38a5.57,5.57,0,0,1,2.39,2.7,5.74,5.74,0,0,1,.19.82c.18,1.59-.75,3.17-2.59,4.23l-1.47.85c-.21.12-4.34,2.37-4.6,2.36A10.65,10.65,0,0,1,357,160a15.32,15.32,0,0,1-1.66,0,9.4,9.4,0,0,1-4-1.15L320.47,141l-.89-.51-31.8-18.38a5.57,5.57,0,0,1-2.39-2.7,5.74,5.74,0,0,1-.19-.82C285,117,286,115.42,287.79,114.35Z"/><path class="cls-6" d="M288.42,114.6l1.43-.83a41.42,41.42,0,0,1,4.55-2.21,11.12,11.12,0,0,1,3.2-.66c.42,0,1.18.08,1.61.08a9.94,9.94,0,0,1,3.9,1.23l30.29,17.51.87.51,31.2,18a6.28,6.28,0,0,1,2.41,2.57,5.4,5.4,0,0,1,.24.78c.27,1.54-.59,3.1-2.42,4.16l-1.44.83a40.56,40.56,0,0,1-4.55,2.21,11.12,11.12,0,0,1-3.2.66c-.42,0-1.17-.09-1.61-.09a9.93,9.93,0,0,1-3.9-1.22l-30.29-17.52-.87-.5-31.2-18a6.24,6.24,0,0,1-2.41-2.58,4.5,4.5,0,0,1-.23-.77C285.72,117.22,286.58,115.66,288.42,114.6Z"/><path class="cls-7" d="M289,114.84l1.41-.82a28.85,28.85,0,0,1,4.5-2c1-.35,2.13-.23,3.14-.49a8.43,8.43,0,0,1,1.56.16,10.83,10.83,0,0,1,3.79,1.29l29.69,17.19.85.49,30.6,17.71a7.41,7.41,0,0,1,2.44,2.45c.09.25.21.48.28.73.37,1.48-.43,3-2.26,4.08l-1.4.82a30,30,0,0,1-4.51,2.06A11.88,11.88,0,0,1,356,159c-.38,0-1.18-.16-1.56-.16a10.89,10.89,0,0,1-3.79-1.29L321,140.31l-.85-.49-30.6-17.72a7.11,7.11,0,0,1-2.44-2.44,5.1,5.1,0,0,1-.28-.74C286.42,117.45,287.22,115.9,289,114.84Z"/><path class="cls-8" d="M289.67,115.08l1.37-.8a22.66,22.66,0,0,1,4.46-1.9c1-.3,2.11,0,3.08-.32a9.06,9.06,0,0,1,1.51.23,12.2,12.2,0,0,1,3.67,1.36l29.1,16.86.83.48,30,17.38a8.49,8.49,0,0,1,2.47,2.32c.1.24.25.45.33.69.46,1.42-.27,3-2.09,4l-1.38.8a22.58,22.58,0,0,1-4.45,1.9,12.47,12.47,0,0,1-3.08.33c-.32,0-1.18-.24-1.51-.24a11.91,11.91,0,0,1-3.68-1.36L321.2,140l-.83-.48-30-17.38a8.61,8.61,0,0,1-2.47-2.32c-.1-.24-.24-.45-.32-.69C287.11,117.67,287.85,116.14,289.67,115.08Z"/><path class="cls-9" d="M290.29,115.33l1.35-.79a17.89,17.89,0,0,1,4.4-1.75c1-.24,2.11.14,3-.16.25-.08,1.18.32,1.45.32a13.87,13.87,0,0,1,3.57,1.42l28.5,16.54.81.46,29.39,17.06c.56.32,2.37,1.64,2.5,2.18a3.86,3.86,0,0,1,.37.65c.56,1.36-.11,2.89-1.92,3.93l-1.35.79a17.89,17.89,0,0,1-4.4,1.75,13.53,13.53,0,0,1-3,.16c-.27,0-1.18-.32-1.45-.32a13.87,13.87,0,0,1-3.57-1.42l-28.5-16.54-.81-.46-29.39-17.06c-.56-.32-2.37-1.64-2.5-2.18a3.86,3.86,0,0,1-.37-.65C287.81,117.9,288.48,116.37,290.29,115.33Z"/><path class="cls-10" d="M290.92,115.57l1.32-.78a14.77,14.77,0,0,1,4.35-1.59,7.6,7.6,0,0,1,3,0c.21,0,1.18.39,1.4.39a16.5,16.5,0,0,1,3.46,1.49l27.9,16.21.78.46,28.8,16.72c.45.26,2.42,1.62,2.52,2.06a3,3,0,0,1,.42.6c.66,1.3.05,2.81-1.76,3.86l-1.31.78a14.94,14.94,0,0,1-4.36,1.59,7.41,7.41,0,0,1-3,0c-.21,0-1.18-.39-1.4-.39a16.12,16.12,0,0,1-3.45-1.49l-27.91-16.2-.78-.46-28.79-16.72c-.45-.26-2.43-1.62-2.53-2.06a2.78,2.78,0,0,1-.41-.6C288.5,118.13,289.11,116.61,290.92,115.57Z"/><path class="cls-11" d="M291.55,115.82l1.28-.77a12.42,12.42,0,0,1,4.3-1.44,7.23,7.23,0,0,1,2.92.18c.16,0,1.18.47,1.35.47a20,20,0,0,1,3.34,1.56l27.31,15.88.76.44L361,148.53a13.2,13.2,0,0,1,2.56,1.93,3.25,3.25,0,0,1,.45.56c.78,1.24.22,2.74-1.58,3.78l-1.29.77a12.13,12.13,0,0,1-4.3,1.43,7,7,0,0,1-2.91-.18c-.16,0-1.19-.46-1.35-.46a21.33,21.33,0,0,1-3.35-1.56l-27.31-15.88-.76-.44L293,122.08a12.46,12.46,0,0,1-2.55-1.93,2.41,2.41,0,0,1-.46-.56C289.19,118.35,289.75,116.85,291.55,115.82Z"/><path class="cls-12" d="M292.17,116.06l1.26-.76a10.66,10.66,0,0,1,4.25-1.28,6.81,6.81,0,0,1,2.86.35c.1,0,1.19.54,1.29.54a29.73,29.73,0,0,1,3.24,1.63l26.71,15.55.74.43,27.59,16.06a20.27,20.27,0,0,1,2.58,1.8,3,3,0,0,1,.5.52c.88,1.18.38,2.67-1.41,3.7l-1.26.76a10.55,10.55,0,0,1-4.25,1.28,6.64,6.64,0,0,1-2.86-.35c-.11,0-1.19-.54-1.3-.54a28.71,28.71,0,0,1-3.23-1.63l-26.71-15.55-.75-.43-27.58-16.06a18.8,18.8,0,0,1-2.59-1.8,3,3,0,0,1-.5-.52C289.87,118.59,290.38,117.09,292.17,116.06Z"/><path class="cls-13" d="M292.8,116.3l1.22-.74a9.25,9.25,0,0,1,4.21-1.13,6.42,6.42,0,0,1,2.8.52c.05,0,1.19.62,1.24.62s3,1.63,3.13,1.69l26.11,15.22.72.43,27,15.73c.12.06,2.59,1.56,2.62,1.67a3.14,3.14,0,0,1,.54.47c1,1.11.54,2.6-1.25,3.63l-1.23.74a9.05,9.05,0,0,1-4.2,1.13,6.37,6.37,0,0,1-2.8-.52c-.05,0-1.19-.62-1.24-.62s-3-1.63-3.13-1.69l-26.11-15.22-.72-.42-27-15.73c-.11-.07-2.59-1.57-2.61-1.68a2.56,2.56,0,0,1-.55-.47C290.56,118.82,291,117.33,292.8,116.3Z"/><path d="M352.37,155.23l-29.72-17.35-29.72-17.35c-1.77-1-1.55-2.81.49-4l1.2-.74a7.7,7.7,0,0,1,6.9-.28l29.72,17.35L361,150.23c1.77,1,1.55,2.8-.49,4l-1.2.73A7.67,7.67,0,0,1,352.37,155.23Z"/></g><g class="cls-2"><path class="cls-3" d="M78.18,228.87a8.44,8.44,0,0,0,4.23-1l33-19,33-19a4.47,4.47,0,0,0,2.43-3.87,5.19,5.19,0,0,0-2.92-4.38L141.71,178a10.4,10.4,0,0,0-5.13-1.3,8.46,8.46,0,0,0-4.23,1l-33,19-33,19a4.49,4.49,0,0,0-2.43,3.87A5.21,5.21,0,0,0,66.82,224l6.23,3.55A10.42,10.42,0,0,0,78.18,228.87Z"/><path class="cls-4" d="M147.31,181.77l-1.49-.86c-.11-.06-4.52-2.52-4.65-2.52a10.35,10.35,0,0,0-3.31-1,12.25,12.25,0,0,0-1.72-.07,8.83,8.83,0,0,0-4.12,1.09l-31.48,18.17-.91.53-32.41,18.7a5.08,5.08,0,0,0-2.35,2.84,4.07,4.07,0,0,0-.15.86,4.83,4.83,0,0,0,2.76,4.31l1.49.85c.11.07,4.52,2.53,4.65,2.52a10.37,10.37,0,0,0,3.31,1,14.06,14.06,0,0,0,1.72.06,9,9,0,0,0,4.12-1.08L114.25,209l.91-.52,32.41-18.71a5.06,5.06,0,0,0,2.35-2.83,4.19,4.19,0,0,0,.15-.86A4.81,4.81,0,0,0,147.31,181.77Z"/><path class="cls-5" d="M146.69,182l-1.47-.84c-.21-.12-4.34-2.37-4.6-2.37a10.64,10.64,0,0,0-3.25-.82,15.32,15.32,0,0,0-1.66,0,9.4,9.4,0,0,0-4,1.15L100.81,197l-.89.51-31.8,18.38a5.57,5.57,0,0,0-2.39,2.7,4.64,4.64,0,0,0-.19.82c-.18,1.59.75,3.17,2.59,4.23l1.46.84c.22.13,4.35,2.38,4.61,2.37a10.65,10.65,0,0,0,3.25.83c.48.05,1.17,0,1.66,0a9.27,9.27,0,0,0,4-1.16L114,208.66l.89-.52,31.8-18.37a5.61,5.61,0,0,0,2.39-2.7,5.74,5.74,0,0,0,.19-.82C149.46,184.65,148.53,183.08,146.69,182Z"/><path class="cls-6" d="M146.06,182.26l-1.43-.83a41.5,41.5,0,0,0-4.55-2.22,11.45,11.45,0,0,0-3.2-.65c-.42,0-1.18.08-1.61.08a10.09,10.09,0,0,0-3.9,1.22l-30.29,17.52-.87.5L69,215.93a6.28,6.28,0,0,0-2.41,2.57,5.4,5.4,0,0,0-.24.78c-.27,1.53.59,3.1,2.42,4.16l1.44.83a42.37,42.37,0,0,0,4.55,2.21,11.46,11.46,0,0,0,3.2.66c.42,0,1.17-.09,1.61-.09a10.09,10.09,0,0,0,3.9-1.22l30.29-17.52.86-.5,31.21-18.05a6.22,6.22,0,0,0,2.41-2.57,5.36,5.36,0,0,0,.23-.78C148.76,184.88,147.9,183.31,146.06,182.26Z"/><path class="cls-7" d="M145.44,182.5l-1.41-.82a28.85,28.85,0,0,0-4.5-2.05,11.57,11.57,0,0,0-3.14-.5c-.37,0-1.18.17-1.56.17a10.83,10.83,0,0,0-3.79,1.29l-29.69,17.19-.85.49L69.9,216a7.23,7.23,0,0,0-2.44,2.45c-.09.25-.21.48-.28.73-.37,1.48.43,3,2.26,4.08l1.4.82a28.85,28.85,0,0,0,4.5,2.05c1,.36,2.13.23,3.14.5a9.42,9.42,0,0,0,1.56-.17,10.76,10.76,0,0,0,3.79-1.29L113.52,208l.85-.49L145,189.76a7.14,7.14,0,0,0,2.44-2.45,5.46,5.46,0,0,0,.28-.73C148.06,185.1,147.26,183.55,145.44,182.5Z"/><path class="cls-8" d="M144.81,182.74l-1.37-.8A22.66,22.66,0,0,0,139,180a12.37,12.37,0,0,0-3.08-.33c-.32,0-1.18.24-1.51.24a11.85,11.85,0,0,0-3.67,1.36l-29.1,16.86-.83.48L70.8,216a8.49,8.49,0,0,0-2.47,2.32c-.1.24-.25.45-.33.69-.47,1.42.27,3,2.09,4l1.38.8a22.58,22.58,0,0,0,4.45,1.9c1,.3,2.11,0,3.08.32a9.06,9.06,0,0,0,1.51-.23,12.1,12.1,0,0,0,3.67-1.36l29.1-16.86.83-.48,30-17.38a8.36,8.36,0,0,0,2.47-2.32,7.21,7.21,0,0,0,.33-.69C147.37,185.33,146.63,183.79,144.81,182.74Z"/><path class="cls-9" d="M144.19,183l-1.35-.8c-.65-.37-3.62-1.77-4.4-1.74a13,13,0,0,0-3-.16c-.27,0-1.18.32-1.45.32a13.73,13.73,0,0,0-3.57,1.42l-28.5,16.53-.81.47L71.69,216.08c-.56.33-2.37,1.65-2.5,2.19a3.86,3.86,0,0,0-.37.65c-.56,1.36.11,2.88,1.92,3.93l1.35.79a17.89,17.89,0,0,0,4.4,1.75c1,.24,2.11-.15,3,.15.25.09,1.18-.31,1.45-.31a14,14,0,0,0,3.57-1.42L113,207.27l.81-.47,29.39-17.05c.56-.32,2.37-1.64,2.5-2.19a3.43,3.43,0,0,0,.37-.64C146.67,185.56,146,184,144.19,183Z"/><path class="cls-10" d="M143.56,183.23l-1.32-.78a14.5,14.5,0,0,0-4.35-1.59,7.6,7.6,0,0,0-3,0c-.21,0-1.18.39-1.4.39a16.5,16.5,0,0,0-3.46,1.49L102.16,199l-.79.45L72.58,216.14c-.45.26-2.42,1.62-2.52,2.06a3,3,0,0,0-.42.6c-.67,1.3,0,2.81,1.76,3.85l1.31.78a15,15,0,0,0,4.36,1.6,7.79,7.79,0,0,0,3,0c.21,0,1.18-.39,1.4-.39a16.64,16.64,0,0,0,3.45-1.49l27.91-16.21.78-.45,28.79-16.72c.45-.26,2.43-1.63,2.53-2.06a3,3,0,0,0,.41-.61C146,185.78,145.37,184.27,143.56,183.23Z"/><path class="cls-11" d="M142.93,183.47l-1.28-.77a12.67,12.67,0,0,0-4.31-1.43,7.19,7.19,0,0,0-2.91.18c-.16,0-1.19.47-1.35.47a20.77,20.77,0,0,0-3.34,1.55l-27.31,15.88-.77.45L73.48,216.19a12.81,12.81,0,0,0-2.56,1.93,3.42,3.42,0,0,0-.46.56c-.77,1.24-.21,2.74,1.59,3.78l1.29.77a12.54,12.54,0,0,0,4.3,1.43,7,7,0,0,0,2.91-.18c.16,0,1.19-.47,1.35-.47a21.29,21.29,0,0,0,3.35-1.55l27.31-15.88.76-.45,28.19-16.39a12.73,12.73,0,0,0,2.55-1.93,2.41,2.41,0,0,0,.46-.56C145.29,186,144.73,184.51,142.93,183.47Z"/><path class="cls-12" d="M142.31,183.72l-1.26-.76a10.51,10.51,0,0,0-4.25-1.28,6.64,6.64,0,0,0-2.86.35c-.11,0-1.19.54-1.3.54a30.5,30.5,0,0,0-3.23,1.63L102.7,199.75l-.74.43L74.37,216.24a19.31,19.31,0,0,0-2.58,1.8,3.12,3.12,0,0,0-.51.52c-.87,1.18-.37,2.67,1.42,3.7L74,223a10.71,10.71,0,0,0,4.25,1.28,6.79,6.79,0,0,0,2.86-.35c.11,0,1.19-.54,1.3-.54a30.5,30.5,0,0,0,3.23-1.63l26.71-15.55.75-.43,27.58-16.06a19.71,19.71,0,0,0,2.59-1.8,3.46,3.46,0,0,0,.5-.52C144.6,186.24,144.1,184.75,142.31,183.72Z"/><path class="cls-13" d="M141.68,184l-1.22-.74a9.13,9.13,0,0,0-4.21-1.13,6.4,6.4,0,0,0-2.8.52s-1.19.62-1.24.62-3,1.63-3.13,1.69L103,200.14l-.72.42-27,15.73c-.11.07-2.59,1.57-2.61,1.67a2.91,2.91,0,0,0-.55.48c-1,1.11-.53,2.6,1.26,3.63l1.22.74a9.25,9.25,0,0,0,4.21,1.13,6.42,6.42,0,0,0,2.8-.52s1.19-.62,1.24-.62,3-1.63,3.13-1.69l26.11-15.23.72-.42,27-15.73c.12-.06,2.59-1.56,2.62-1.67a2.84,2.84,0,0,0,.54-.48C143.92,186.48,143.47,185,141.68,184Z"/><path d="M82.11,222.89l29.72-17.35,29.72-17.35c1.77-1,1.55-2.81-.49-4l-1.2-.73a7.67,7.67,0,0,0-6.9-.28l-29.72,17.35L73.51,217.89c-1.76,1-1.54,2.8.5,4l1.2.73A7.67,7.67,0,0,0,82.11,222.89Z"/></g><polygon class="cls-40" points="97.51 138.73 103.94 142.56 113.14 136.82 113.14 188.9 74.69 219.24 65.25 213.43 65.25 157.36 97.51 138.73"/><path class="cls-41" d="M103.21,141.92v4.48l30.05-17.35a1.59,1.59,0,0,1,2.39,1.38v55.29L78.31,219.05A4.21,4.21,0,0,1,74,219l-1.23-.76A3.86,3.86,0,0,1,70.94,215V160.3a4.35,4.35,0,0,1,2.17-3.76l27.71-16A1.6,1.6,0,0,1,103.21,141.92Z"/><g class="cls-42"><path class="cls-43" d="M133.92,129.6,103.86,147V146l29.4-17a1.59,1.59,0,0,1,2.11.49A1.56,1.56,0,0,0,133.92,129.6Z"/><path class="cls-44" d="M73.11,156.54l27.71-16a1.59,1.59,0,0,1,2.11.49,1.56,1.56,0,0,0-1.45.06l-27.71,16a4.32,4.32,0,0,0-2.17,3.76v54.67a3.8,3.8,0,0,0,1.05,2.63A3.84,3.84,0,0,1,70.94,215V160.3A4.35,4.35,0,0,1,73.11,156.54Z"/></g><path class="cls-45" d="M81.24,124.28,130.34,96a.71.71,0,0,1,1.06.61v83.08a1.46,1.46,0,0,1-.73,1.26l-49.1,28.32a.71.71,0,0,1-1.06-.61V125.54A1.46,1.46,0,0,1,81.24,124.28Z"/><path class="cls-46" d="M81.24,124.28,130.34,96a.71.71,0,0,1,1,.29.71.71,0,0,0-.68,0L81.55,124.58a1.45,1.45,0,0,0-.74,1.27v83.07a.66.66,0,0,0,.09.32.68.68,0,0,1-.39-.62V125.54A1.46,1.46,0,0,1,81.24,124.28Z"/><path class="cls-47" d="M106,182.59l3.3-1.91v-1.34l-3.3,1.91Zm8.51-6.26-4.25,2.46v1.34l4.25-2.45Zm-2-3.7,7.49-4.32V167l-7.49,4.33Zm5.81-.26V171l-4.07,2.35v1.34Zm4.79-4.11-3.83,2.21v1.34l3.83-2.21Zm-29,7.5L88.54,179v1.34l5.55-3.2Zm-2.94,7.88-2.61,1.51v1.34L91.15,185Zm1-3.68-3.63,2.09v1.34l3.63-2.09Zm-2.45,7.6-1.18.68v1.34l1.18-.68ZM90.8,190l-2.26,1.3v1.34l2.26-1.3Zm26.5-15.3-1.82,1.05v1.34l1.82-1.05ZM95.05,188.92l3.11-1.8v-1.34l-3.11,1.8Zm3-4.86,1.44-.83v-1.34l-1.44.83Zm1,2.5,5.93-3.42V181.8l-5.93,3.42Zm-3.89-5.27-3.12,1.79v1.34l3.12-1.79Zm5.27,1.39,5-2.88v-1.34l-5,2.87Zm-3.11-8.83-2.34,1.35v1.34l2.34-1.35Zm2.21,1.82-6.47,3.73v1.34L99.6,177Zm2.82-3.38,5.93-3.43v-1.34L102.42,171Zm14-5,5.24-3V162.9l-5.24,3Zm.57-3.42,5.51-3.18v-1.35L117,162.51Zm-14.86,14.76,4.19-2.42v-1.34l-4.19,2.42Zm6.71-7,4.07-2.36V168l-4.07,2.36ZM103,175.07l5-2.87v-1.34l-5,2.87Zm3.47,4.18,4.08-2.35v-1.34l-4.08,2.35Zm4.44-11.84v-1.34l-1.56.9v1.34ZM94.09,189.47v-1.34l-2.34,1.35v1.34Zm7.13-11.64-5,2.9v1.34l5-2.9Zm10.6-11,4.26-2.46v-1.34l-4.26,2.46Zm1.5,7.07L111.46,175v1.35l1.86-1.08Zm2.19-6.11v-1.34l-1.59.92v1.34ZM102,174.28l-1.44.83v1.34l1.44-.83Zm5.33,1.36,4.25-2.46v-1.34l-4.25,2.46Zm17.82-7.2V167.1l-1.25.73v1.34Zm-4.07-.74,4.07-2.35V164l-4.07,2.35Zm2.43-7.59,1.64-1v-1.34l-1.64,1Zm1.58.84-2.42,1.4v1.34l2.42-1.4Zm0,9.3-7,4v1.34l7-4Zm-34.38,18.1,6.47-3.74v-1.34L90.68,187Zm7.66-13.71,3.12-1.8V171.5l-3.12,1.8Zm18.13-28,5.24-3v-1.34l-5.24,3Zm-.39-4.21-4.26,2.45v1.34l4.26-2.45Zm-7.13,23,4.07-2.35v-1.34L109,164.08Zm-9.83-2.59,5.93-3.42v-1.34l-5.93,3.42ZM114.28,151l4.07-2.35V147.3l-4.07,2.35Zm-4,5.41,4.25-2.46V152.6l-4.25,2.46Zm-8.09,9.88,4.19-2.42v-1.34l-4.19,2.42Zm.78-11.83,5-2.88v-1.34l-5,2.88Zm3.05,4.41,3.3-1.91v-1.34l-3.3,1.91Zm-.54-4.13-5,2.87v1.34l5-2.87Zm6-2.12,1.86-1.07V150.2l-1.86,1.07Zm2.46-4.49,1.59-.92v-1.34l-1.59.92Zm-20.73,26.4,6.47-3.73v-1.35l-6.47,3.74Zm28.58-17.84-5,2.87v1.34l5-2.87Zm-12.46-10.34v1.35l1.56-.9v-1.34Zm-9.77,11.82L98.1,159v1.34l1.44-.83Zm2.52,9.9-1.44.83v1.34l1.44-.83Zm13.42-14.67,1.82-1V151l-1.82,1.05Zm-17.32,8.66-3.11,1.8v1.34l3.11-1.8Zm9.83,2.59-5,2.87v1.34l5-2.87Zm.36-17.74-5.93,3.42v1.34l5.93-3.42Zm2.16,4.93-4.08,2.35v1.34l4.08-2.35Zm2.45-4.5-4.07,2.35V151l4.07-2.35Zm-11,6.33-1.44.83v1.34L102,155Zm-5.81,16.08,5-2.9V165.5l-5,2.9ZM98.34,154l3.12-1.8v-1.34l-3.12,1.79Zm17.5,6.09L114,161.18v1.34l1.86-1.07Zm-25,6.19-2.26,1.3v1.34l2.26-1.3Zm.35,5-2.61,1.51v1.34l2.61-1.51Zm-1.43-7.48-1.18.68v1.34l1.18-.68Zm2,3.26,2.34-1.35V164.4l-2.34,1.35Zm.42-7.76-3.63,2.1v1.34l3.63-2.1Zm30.5-16.26,2.42-1.41v-1.34l-2.42,1.4Zm-3.36,5,3.83-2.21v-1.34l-3.83,2.21Zm5.75-1.56-7,4v1.34l7-4ZM92.23,173.73l-3.69,2.14v1.34l3.69-2.14Zm31.67-28.29,1.25-.73v-1.34l-1.25.73ZM95.23,169l-3.12,1.79v1.35l3.12-1.8Zm27.5-11.49,2.42-1.4v-1.34l-2.42,1.4Zm-25.34-4.24-2.34,1.35v1.34l2.34-1.35Zm-6.71,11.39,6.47-3.74v-1.34l-6.47,3.74ZM99.6,155l-6.47,3.74v1.34l6.47-3.74Zm-5.51.09-5.55,3.2v1.35l5.55-3.21Zm-4.37-8.89-1.18.68v1.34l1.18-.68Zm8.62-12.92,3.12-1.8v-1.34L98.34,132ZM88.54,139l5.55-3.2v-1.34l-5.55,3.2Zm3.63-.34-3.63,2.09v1.35l3.63-2.1Zm8.39-3.5,1.44-.83V133l-1.44.83Zm-9.41,7.18-2.61,1.51v1.34l2.61-1.51Zm3.9-7.1,2.34-1.34v-1.34l-2.34,1.34Zm27.62-12.85,2.42-1.4v-1.34l-2.42,1.4Zm1.68,55.8L119.43,181v1.34l4.92-2.85Zm-.45-50.32,1.25-.73v-1.34l-1.25.73Zm-7.43-1.9,5.24-3v-1.34l-5.24,3Zm-2.55.13v1.34l1.59-.91v-1.34Zm8.81,8.63,2.42-1.4V132l-2.42,1.4Zm-2.7-9.06L112.54,130v1.34L120,127Zm-8.21-.11,4.26-2.46v-1.34l-4.26,2.46ZM98.16,144.46l-3.11,1.8v1.34l3.11-1.8ZM109.31,127l1.56-.9v-1.34l-1.56.9Zm-4.26,13.49-5.93,3.43v1.34l5.93-3.43ZM102.42,131l5.93-3.42v-1.34l-5.93,3.42ZM113,126.64,108.89,129v1.34L113,128Zm-6.59,6.89L102.18,136v1.34l4.19-2.43Zm-6.83,7-1.44.83v1.34l1.44-.83Zm21.54-14.19,4.07-2.35v-1.34L121.08,125ZM109.31,138l-3.3,1.9v1.34l3.3-1.9ZM108,141.88l-5,2.87v1.34l5-2.87Zm-2.52-4.73-5,2.87v1.34l5-2.87Zm10-1.35,1.82-1.05v-1.34l-1.82,1.05Zm-14.26.71-5,2.9v1.34l5-2.9Zm20.55-2.58-5,2.87v1.34l5-2.87Zm-30,15.57,2.34-1.35v-1.34l-2.34,1.35Zm7.85-15.15-6.47,3.73v1.35l6.47-3.74Zm-6.41,17.42L99.66,148v-1.34l-6.47,3.73Zm25.16-22.06-4.07,2.35v1.34l4.07-2.35ZM90.68,147l6.47-3.74V142l-6.47,3.74ZM95.23,140l-3.12,1.8v1.34l3.12-1.8Zm-4.43,8.74L88.54,150v1.34l2.26-1.3ZM123.14,127l-3.83,2.21v1.34l3.83-2.21Zm1.92,2-7,4v1.34l7-4Zm-23,16.38-1.44.83v1.34l1.44-.83ZM92.23,151l-3.69,2.13v1.34l3.69-2.13Zm22.29-16-4.25,2.45v1.34l4.25-2.45Zm-.54,3.4v1.34l1.86-1.07v-1.34Zm-.66-5.8-1.86,1.07V135l1.86-1.07ZM113,139,109,141.33v1.34l4.07-2.35Zm-2.51-4.74-4.08,2.35v1.34l4.08-2.35Zm1.07-3.72L107.33,133v1.34l4.25-2.45ZM103,133.75l5-2.87v-1.34l-5,2.87Z"/><polygon class="cls-48" points="94.92 124.36 114.38 113.04 114.38 114.76 94.92 126.08 94.92 124.36"/><polygon class="cls-49" points="98.91 125.27 110.39 118.52 110.39 120.23 98.91 126.99 98.91 125.27"/><polygon class="cls-50" points="138.6 182.43 75.04 219.13 75.04 173.21 138.6 136.51 138.6 182.43"/><path class="cls-51" d="M138.1,184.43,78.2,219a4.17,4.17,0,0,1-4,.06l-.39-.21.41.15a1.49,1.49,0,0,0,2-1.39V176.5a4.35,4.35,0,0,1,2.17-3.76L138.51,138a1.6,1.6,0,0,1,2.39,1.38v40.18A5.63,5.63,0,0,1,138.1,184.43Z"/><path class="cls-52" d="M74.17,219a1.49,1.49,0,0,0,2-1.39V176.5a4.35,4.35,0,0,1,2.17-3.76L138.51,138a1.59,1.59,0,0,1,2,.34,1.54,1.54,0,0,0-1.41.07L78.94,173.15a4.33,4.33,0,0,0-2.17,3.76V218a1.5,1.5,0,0,1-1.29,1.48,4.25,4.25,0,0,1-1.33-.44l-.39-.21Z"/><polygon class="cls-53" points="337.41 70.73 330.98 74.56 321.78 68.82 321.78 120.9 360.23 151.24 369.67 145.43 369.67 89.36 337.41 70.73"/><path class="cls-54" d="M331.71,73.92V78.4l-30-17.35a1.59,1.59,0,0,0-2.39,1.38v55.29l57.34,33.33a4.21,4.21,0,0,0,4.33-.06l1.23-.76A3.85,3.85,0,0,0,364,147V92.3a4.35,4.35,0,0,0-2.17-3.76l-27.71-16A1.6,1.6,0,0,0,331.71,73.92Z"/><g class="cls-42"><path class="cls-55" d="M301,61.6,331.06,79V78l-29.4-17a1.59,1.59,0,0,0-2.11.49A1.56,1.56,0,0,1,301,61.6Z"/><path class="cls-56" d="M361.81,88.54l-27.71-16A1.58,1.58,0,0,0,332,73a1.56,1.56,0,0,1,1.45.06l27.71,16a4.35,4.35,0,0,1,2.16,3.76v54.67a3.8,3.8,0,0,1-1.05,2.63A3.81,3.81,0,0,0,364,147V92.3A4.35,4.35,0,0,0,361.81,88.54Z"/></g><path class="cls-57" d="M310.29,24.75,265.84,45.12a1.17,1.17,0,0,0-.42,1.42l37,66.22a.76.76,0,0,0,1,.37l44.45-20.37a1.15,1.15,0,0,0,.41-1.42l-37-66.22A.76.76,0,0,0,310.29,24.75Z"/><path class="cls-58" d="M310.29,24.75,265.84,45.12a1.15,1.15,0,0,0-.51,1.09,1,1,0,0,1,.44-.58l44.46-20.38a.78.78,0,0,1,1,.37l37,66.23a.7.7,0,0,1,.09.32,1,1,0,0,0,0-.83l-37-66.22A.76.76,0,0,0,310.29,24.75Z"/><path class="cls-47" d="M306.08,105.7l4.46-2-.6-1.07-4.45,2Zm-10.65-55,3-1.37-.59-1.07-3,1.37Zm7.11-4.6-3.85,1.76.59,1.07,3.86-1.76Zm1.56,6.82,6.78-3.1-.59-1.07-6.79,3.1Zm-.4-4.25.6,1.07L308,48l-.6-1.07Zm8-3.68-3.46,1.59.59,1.07L312.32,46ZM289.55,64.42l-5,2.3.6,1.06,5-2.3Zm-5.42-3.72-2.36,1.08.59,1.07,2.37-1.08Zm2.3,2-3.29,1.51.6,1.07L287,63.81Zm-5-3.91-1.06.49.59,1.07,1.07-.49Zm-.4-2.91-2,.93.6,1.07,2-.93Zm24-11-1.64.75.59,1.07,1.65-.75ZM285.5,55.22l2.82-1.29-.6-1.07-2.82,1.29Zm4.15,1.2,1.3-.59-.6-1.07-1.3.59Zm-.46-2.89,5.37-2.46L294,50l-5.37,2.45ZM287.82,59,285,60.3l.6,1.07,2.82-1.29Zm4-3.58,4.5-2.06-.6-1.07-4.5,2.06Zm.71,7.62-2.11,1,.6,1.07,2.11-1Zm.63-3.39-5.86,2.69.6,1.07,5.86-2.69ZM297.69,62l5.37-2.46-.6-1.07L297.09,61ZM309,53.74l4.75-2.17-.59-1.07-4.75,2.17Zm1.9,2.23,5-2.28-.6-1.07-5,2.28ZM294.71,57.2l3.8-1.74-.59-1.07-3.8,1.74Zm7.46-.32,3.69-1.69-.6-1.06-3.69,1.68Zm-5.37,2.46,4.5-2.06-.59-1.07-4.51,2.06Zm.39-6.37,3.69-1.69-.6-1.07-3.69,1.69Zm6.14,5.14.6,1.07,1.41-.65-.6-1.07Zm-21.41-2.59.6,1.07,2.11-1-.6-1.07Zm11.33,1-4.56,2.08.6,1.07,4.56-2.08Zm13,1.6,3.85-1.76-.6-1.07-3.85,1.76ZM302.83,49l-1.68.77.6,1.07,1.68-.77Zm3.3,4.69.6,1.07,1.44-.66-.6-1.07Zm-10.8,4.94-1.3.6.6,1.07,1.3-.6Zm4.05-3.61,3.85-1.76-.59-1.07L298.78,54Zm13-10.4.6,1.07,1.14-.52-.6-1.07Zm-.58,4.7,3.69-1.69-.59-1.07-3.69,1.69Zm5,3.93,1.49-.68-.6-1.07-1.49.68Zm-.54-4.19-2.2,1,.6,1.07,2.2-1Zm-4.16-7.39-6.32,2.89.59,1.07,6.33-2.89ZM282.92,59.5l5.86-2.68-.6-1.07-5.86,2.68ZM294,63.72l2.82-1.29-.6-1.07-2.82,1.29Zm24.23,6.46L323,68l-.59-1.07-4.75,2.17Zm.43,1.56L314.8,73.5l.6,1.07,3.85-1.76ZM305,61.79l3.69-1.69L308.08,59l-3.69,1.69Zm-5.21,10.66L305.14,70l-.6-1.07-5.37,2.46Zm15.1-3.82,3.69-1.69L318,65.87l-3.69,1.69Zm-5-.8,3.85-1.76-.6-1.07-3.85,1.76Zm-9.65-.8,3.8-1.74-.6-1.07L299.61,66ZM306,75.78l4.5-2.06-.59-1.07-4.51,2.06Zm0-6.19,3-1.36-.6-1.07-3,1.37Zm.29,1.62-4.5,2.07.59,1.06,4.51-2.06Zm6-1.41L314,69l-.6-1.07-1.68.77Zm3.6,1.44,1.44-.66-.6-1.07-1.44.66Zm-25.21-2.92,5.86-2.68-.6-1.07-5.86,2.68ZM316,55.41l-4.51,2.06.6,1.07,4.5-2.06ZM314.53,75l-.6-1.07-1.41.65.6,1.07Zm-13.6-1.3-1.3.6.59,1.07,1.3-.6Zm-2.78-10.09-1.31.59.6,1.07,1.3-.59Zm16.43,2.09,1.65-.75-.6-1.07L314,64.6ZM298.3,71.78l-2.82,1.29.6,1.07,2.82-1.29Zm5.22-10.66L299,63.18l.6,1.07,4.5-2.06Zm8.14,13.82-5.38,2.46.6,1.07L312.25,76Zm-.8-5.81-3.69,1.69.59,1.07,3.69-1.69Zm3.6,1.44-3.69,1.69.59,1.06,3.69-1.69Zm-9.93,4.54-1.31.6.6,1.07,1.3-.6Zm-9.75-5.6,4.56-2.09-.6-1.06-4.55,2.08Zm8.41,10.65L306,78.87l-.59-1.07-2.83,1.29Zm7.44-22.29-1.69.77.6,1.06,1.68-.77Zm-19,17-2.05.94.6,1.07,2-.94Zm-2-4.3-2.37,1.08.6,1.07,2.37-1.08Zm2.4,7.22-1.07.48.6,1.07,1.07-.48Zm1.06-2.24,2.12-1-.6-1.07-2.12,1Zm2.54,3.67-3.29,1.51.59,1.07,3.29-1.51Zm28.21-11.57,2.2-1-.6-1.07-2.19,1Zm-4.41-1.06L322.9,65l-.6-1.07-3.47,1.59Zm3.23-5.92-6.32,2.89.6,1.07,6.32-2.89Zm-33.41,7-3.35,1.53.6,1.07,3.34-1.53Zm34.33-3,1.14-.53-.6-1.06-1.14.52Zm-30.26,4.19-2.82,1.29.59,1.07,2.83-1.29Zm24.14-12.76,2.2-1-.6-1.07-2.19,1ZM301.73,79.49l-2.12,1,.6,1.07,2.11-1Zm-8.24-1.07,5.86-2.68-.59-1.07-5.86,2.68Zm8.86-2.32-5.86,2.69.6,1.07L303,77.17Zm-3.61,4.76-5,2.3.59,1.07,5-2.31Zm1.13,10.91-1.07.48.6,1.07,1.06-.48Zm12.54,4.89,2.83-1.29-.6-1.07-2.82,1.29Zm-8.87,4.06,5-2.3-.6-1.07-5,2.3Zm1.31-5-3.29,1.51.6,1.06,3.29-1.5ZM313,93.27l1.31-.59-.6-1.07-1.3.59Zm-10.49.37-2.37,1.08.6,1.07,2.37-1.08ZM309.43,98l2.12-1L311,96l-2.12,1Zm23.64-13.91,2.19-1L334.67,82l-2.2,1Zm-1.65-5.44,1.14-.53-.6-1.06-1.14.52Zm-4,8,4.75-2.18-.6-1.06-4.75,2.17Zm-.87.39L326,86l-1.43.65.59,1.07Zm1-12.85,2.2-1-.6-1.07-2.19,1Zm1.1,7.45-6.78,3.1.6,1.07,6.78-3.11Zm-4.08,9.4,3.86-1.76-.6-1.07L324,90ZM306.14,85.8l-2.82,1.29.59,1.07,2.83-1.29Zm16.2,6.31,1.41-.64-.59-1.07-1.41.64Zm-10-9.17L307,85.4l.59,1.07L313,84Zm3.72,12,5.38-2.46-.6-1.07-5.37,2.46Zm7.58-7.91L320,88.75l.6,1.07,3.69-1.69Zm-7.35.27-3.8,1.74.6,1.07,3.8-1.74Zm-7.56.36-1.31.6.6,1.07,1.3-.6Zm21.48-5.39,3.69-1.69-.6-1.07-3.69,1.69Zm-14-1.12-3,1.36.59,1.07,3-1.36Zm-2.57-1.92-4.5,2.06.59,1.07,4.51-2.06Zm.48,6-4.51,2.07.6,1.06,4.5-2.06Zm8.28-5.54,1.65-.76-.6-1.06-1.65.75Zm-10.76,9.77-4.55,2.09.59,1.07,4.56-2.09Zm14.48-15.91-4.5,2.06.59,1.07,4.51-2.07Zm-25.21,16,2.12-1-.6-1.07-2.12,1Zm10.65,3.08-5.86,2.68.59,1.07,5.86-2.68Zm-10.73-6.14,5.86-2.68-.59-1.07-5.86,2.68Zm24.95-6.57-3.69,1.69.6,1.07L326.4,81ZM301.33,92.44l5.86-2.68-.59-1.07-5.87,2.68Zm4.91-.49-2.82,1.29.59,1.07L306.83,93Zm-6.78-3.1-2,.94.6,1.07,2-.94Zm30.68-10.94-3.47,1.59.6,1.07L330.74,79Zm.36-3.26-6.32,2.89.6,1.07,6.32-2.89Zm-22.21,7.07-1.31.59.6,1.07,1.3-.59Zm-8.9,4.07L296,87.32l.6,1.07L300,86.86ZM321,79l-3.85,1.76.6,1.07,3.85-1.76Zm.41-2L320.77,76l-1.68.77.59,1.06ZM321.25,82l-1.69.77.6,1.07,1.68-.77Zm-3-4.81-3.69,1.69.59,1.07,3.69-1.69Zm.48,6L315,84.84l.59,1.07,3.69-1.69Zm2.35,2-3.85,1.76.6,1.07,3.85-1.76Zm-5.84,7.11,4.51-2.06-.6-1.07-4.5,2.06Z"/><polygon class="cls-59" points="301.46 36.78 283.8 44.78 284.56 46.15 302.22 38.15 301.46 36.78"/><polygon class="cls-60" points="299.28 41 288.82 45.65 289.59 47.02 300.04 42.36 299.28 41"/><polygon class="cls-50" points="296.32 114.43 359.88 151.13 359.88 105.2 296.32 68.51 296.32 114.43"/><path class="cls-61" d="M296.82,116.43,356.72,151a4.17,4.17,0,0,0,4,.06l.39-.21-.41.15a1.49,1.49,0,0,1-2-1.39V108.5a4.35,4.35,0,0,0-2.17-3.76L296.41,70A1.6,1.6,0,0,0,294,71.39v40.18A5.63,5.63,0,0,0,296.82,116.43Z"/><path class="cls-62" d="M360.75,151a1.49,1.49,0,0,1-2-1.39V108.5a4.35,4.35,0,0,0-2.17-3.76L296.41,70a1.59,1.59,0,0,0-2,.34,1.56,1.56,0,0,1,1.41.07L356,105.15a4.33,4.33,0,0,1,2.17,3.76V150a1.5,1.5,0,0,0,1.29,1.48,4.25,4.25,0,0,0,1.33-.44l.39-.21Z"/><polygon class="cls-17" points="105.6 191.78 114.41 186.7 114.41 176.22 120.67 172.61 110.01 162.86 99.34 184.92 105.6 181.31 105.6 191.78"/><polygon class="cls-17" points="114.41 187.91 105.6 192.99 105.6 195.29 114.41 190.2 114.41 187.91"/><polygon class="cls-17" points="105.6 196.88 105.6 198 114.41 192.92 114.41 191.79 105.6 196.88"/><polygon class="cls-17" points="329.85 103.47 321.05 98.38 321.05 108.86 314.79 105.24 325.45 127.31 336.12 117.56 329.85 113.94 329.85 103.47"/><polygon class="cls-17" points="321.05 97.17 329.85 102.26 329.85 99.96 321.05 94.88 321.05 97.17"/><polygon class="cls-17" points="329.85 98.37 329.85 97.25 321.05 92.17 321.05 93.29 329.85 98.37"/><g class="cls-42"><path class="cls-63" d="M204.52,112.77a.56.56,0,0,1-.45-.23.57.57,0,0,1,.12-.79l.82-.61a.57.57,0,0,1,.67.91l-.82.61A.6.6,0,0,1,204.52,112.77Z"/><path class="cls-64" d="M198.63,243.23a.57.57,0,0,1-.57-.55.58.58,0,0,1,.56-.58c.67,0,1.34,0,2-.12a.57.57,0,0,1,.61.51.55.55,0,0,1-.5.61,20.75,20.75,0,0,1-2.09.13Zm-3.07-.14h-.06c-.69-.07-1.39-.18-2.07-.31a.56.56,0,0,1-.45-.66.57.57,0,0,1,.66-.45q1,.2,2,.3a.56.56,0,0,1,.5.62A.56.56,0,0,1,195.56,243.09Zm8.14-.48a.58.58,0,0,1-.55-.44.57.57,0,0,1,.43-.68c.64-.15,1.29-.33,1.93-.53a.56.56,0,1,1,.34,1.07c-.66.22-1.34.4-2,.56ZM190.56,242a.47.47,0,0,1-.17,0c-.66-.21-1.33-.45-2-.72a.55.55,0,0,1-.31-.73.57.57,0,0,1,.74-.31c.61.25,1.25.48,1.88.68a.56.56,0,0,1,.36.71A.55.55,0,0,1,190.56,242Zm18-1.1a.56.56,0,0,1-.24-1.07c.6-.29,1.19-.6,1.76-.94a.58.58,0,0,1,.78.21.57.57,0,0,1-.21.77c-.6.35-1.22.68-1.85,1A.69.69,0,0,1,208.54,240.93ZM185.86,240a.54.54,0,0,1-.27-.07c-.6-.32-1.2-.68-1.8-1.06a.56.56,0,0,1-.16-.78.55.55,0,0,1,.77-.17c.57.37,1.15.71,1.73,1a.57.57,0,0,1,.22.77A.54.54,0,0,1,185.86,240Zm27-1.76a.53.53,0,0,1-.44-.22.56.56,0,0,1,.09-.79c.53-.41,1-.85,1.51-1.3a.56.56,0,0,1,.8,0,.58.58,0,0,1,0,.8c-.51.47-1,.94-1.59,1.37A.59.59,0,0,1,212.89,238.25Zm-31.28-1.08a.55.55,0,0,1-.35-.12q-.81-.65-1.59-1.35a.57.57,0,0,1,.76-.84c.5.46,1,.9,1.53,1.31a.56.56,0,0,1-.35,1Zm34.89-2.53a.54.54,0,0,1-.34-.12.56.56,0,0,1-.1-.79c.41-.53.79-1.08,1.14-1.64a.57.57,0,0,1,1,.6c-.37.59-.78,1.17-1.21,1.73A.58.58,0,0,1,216.5,234.64Zm-38.64-1a.55.55,0,0,1-.41-.18c-.46-.5-.92-1-1.37-1.56a.56.56,0,1,1,.87-.72c.44.52.88,1,1.33,1.52a.56.56,0,0,1,0,.79A.58.58,0,0,1,177.86,233.68Zm41.22-3.45a.59.59,0,0,1-.22,0,.56.56,0,0,1-.3-.73,15.41,15.41,0,0,0,.64-1.88.57.57,0,0,1,.7-.39.57.57,0,0,1,.39.7,17.49,17.49,0,0,1-.69,2A.58.58,0,0,1,219.08,230.23Zm-44.43-.53a.56.56,0,0,1-.46-.23c-.4-.56-.79-1.13-1.17-1.72a.56.56,0,1,1,.95-.61c.37.57.75,1.13,1.13,1.67a.56.56,0,0,1-.13.79A.55.55,0,0,1,174.65,229.7Zm-2.73-4.33a.57.57,0,0,1-.5-.29c-.33-.59-.65-1.2-1-1.82a.56.56,0,0,1,.25-.76.58.58,0,0,1,.76.24c.31.62.63,1.21.95,1.79a.57.57,0,0,1-.22.77A.52.52,0,0,1,171.92,225.37Zm48.39-.1h-.05a.56.56,0,0,1-.51-.61c.05-.55.08-1.1.08-1.66v-.32a.56.56,0,0,1,.55-.58.58.58,0,0,1,.58.56V223a17.19,17.19,0,0,1-.09,1.77A.55.55,0,0,1,220.31,225.27Zm-50.68-4.48a.56.56,0,0,1-.51-.34c-.28-.62-.55-1.25-.81-1.9a.56.56,0,0,1,.31-.73.57.57,0,0,1,.74.31c.26.63.52,1.26.79,1.87a.56.56,0,0,1-.29.74A.59.59,0,0,1,169.63,220.79Zm50.44-.61a.57.57,0,0,1-.55-.46c-.12-.64-.28-1.29-.47-1.94a.56.56,0,1,1,1.08-.32c.2.68.37,1.37.5,2a.57.57,0,0,1-.45.66ZM167.73,216a.56.56,0,0,1-.53-.37c-.24-.65-.47-1.29-.69-1.94a.58.58,0,0,1,.35-.72.57.57,0,0,1,.72.36c.22.63.44,1.28.68,1.92a.56.56,0,0,1-.34.72A.63.63,0,0,1,167.73,216Zm50.76-.71A.56.56,0,0,1,218,215c-.27-.59-.58-1.18-.92-1.78a.56.56,0,1,1,1-.55,19.31,19.31,0,0,1,1,1.86.56.56,0,0,1-.27.75A.69.69,0,0,1,218.49,215.32Zm-52.39-4.14a.58.58,0,0,1-.54-.4q-.3-1-.57-2a.57.57,0,0,1,.39-.7.57.57,0,0,1,.7.39c.18.65.36,1.31.56,2a.56.56,0,0,1-.37.7A.51.51,0,0,1,166.1,211.18Zm49.78-.26a.58.58,0,0,1-.46-.23q-.57-.8-1.23-1.59a.56.56,0,1,1,.86-.72q.69.83,1.29,1.65a.56.56,0,0,1-.13.78A.51.51,0,0,1,215.88,210.92ZM212.55,207a.56.56,0,0,1-.4-.17c-.46-.47-1-.93-1.46-1.4a.56.56,0,0,1,0-.79.57.57,0,0,1,.8,0q.78.72,1.5,1.44a.56.56,0,0,1,0,.79A.58.58,0,0,1,212.55,207Zm-47.79-.81a.57.57,0,0,1-.55-.43c-.15-.68-.31-1.35-.45-2a.57.57,0,0,1,1.11-.24c.14.66.28,1.32.44,2a.57.57,0,0,1-.42.68Zm44-2.6a.57.57,0,0,1-.35-.12c-.52-.42-1.06-.83-1.61-1.23a.56.56,0,0,1-.12-.79.55.55,0,0,1,.78-.12c.57.41,1.12.83,1.65,1.25a.58.58,0,0,1,.09.8A.56.56,0,0,1,208.73,203.63Zm-45-2.42a.55.55,0,0,1-.55-.46q-.18-1-.33-2a.57.57,0,0,1,1.12-.16c.1.66.2,1.33.32,2a.57.57,0,0,1-.46.66Zm40.85-.58a.62.62,0,0,1-.32-.09l-1.7-1.13a.57.57,0,0,1,.62-.95l1.71,1.14a.56.56,0,0,1,.16.78A.57.57,0,0,1,204.58,200.63Zm-4.3-2.8a.64.64,0,0,1-.3-.08l-1.73-1.09a.56.56,0,0,1,.59-1l1.74,1.09a.56.56,0,0,1-.3,1ZM163,196.14a.55.55,0,0,1-.55-.5c-.08-.69-.14-1.38-.2-2.06a.57.57,0,0,1,1.13-.09c0,.67.12,1.35.19,2a.58.58,0,0,1-.51.62Zm32.9-1a.51.51,0,0,1-.29-.08L193.87,194a.56.56,0,0,1,.57-1l1.77,1.06a.56.56,0,0,1,.19.77A.56.56,0,0,1,195.92,195.13Zm-4.43-2.61a.58.58,0,0,1-.28-.07l-1.78-1a.56.56,0,0,1-.21-.77.55.55,0,0,1,.76-.21l1.79,1a.56.56,0,0,1-.28,1.05ZM162.65,191a.55.55,0,0,1-.56-.54c0-.69,0-1.38-.05-2.06a.55.55,0,0,1,.55-.57h0a.56.56,0,0,1,.56.56c0,.67,0,1.35.06,2a.56.56,0,0,1-.55.58ZM187,190a.54.54,0,0,1-.27-.07l-1.8-1a.57.57,0,0,1-.22-.77.56.56,0,0,1,.76-.23l1.8,1a.55.55,0,0,1,.22.76A.54.54,0,0,1,187,190Zm-4.51-2.42a.54.54,0,0,1-.27-.07l-1.81-.94a.56.56,0,0,1-.24-.76.56.56,0,0,1,.76-.25l1.82.95a.57.57,0,0,1,.23.77A.55.55,0,0,1,182.51,187.58Zm-19.88-1.67h0a.56.56,0,0,1-.55-.58c0-.69.05-1.37.09-2.06a.54.54,0,0,1,.59-.53.56.56,0,0,1,.53.59c0,.68-.06,1.35-.08,2A.56.56,0,0,1,162.63,185.91Zm15.32-.68a.62.62,0,0,1-.26-.06l-1.83-.92a.56.56,0,0,1-.25-.75.57.57,0,0,1,.76-.26l1.83.92a.57.57,0,0,1-.25,1.07Zm-4.6-2.27a.53.53,0,0,1-.24-.06l-1.85-.88a.57.57,0,0,1,.49-1l1.85.89a.55.55,0,0,1,.26.75A.57.57,0,0,1,173.35,183Zm-10.41-2.16h-.05a.57.57,0,0,1-.51-.62c.07-.68.14-1.37.23-2.05a.17.17,0,0,1,0-.07l-.67-.3a.57.57,0,0,1-.29-.74.57.57,0,0,1,.75-.29l1.88.83a.57.57,0,0,1,.28.75.56.56,0,0,1-.74.28l-.14-.06c-.07.59-.13,1.17-.19,1.76A.56.56,0,0,1,162.94,180.8Zm5.78,0a.52.52,0,0,1-.24,0l-1.85-.85a.56.56,0,0,1-.28-.75.55.55,0,0,1,.74-.28l1.87.86a.56.56,0,0,1-.24,1.07Zm-9.36-4.17a.59.59,0,0,1-.22-.05l-1.89-.8a.56.56,0,1,1,.44-1l1.89.8a.57.57,0,0,1,.3.74A.56.56,0,0,1,159.36,176.59Zm4.24-.87h-.09a.57.57,0,0,1-.47-.65c.12-.68.24-1.36.37-2a.56.56,0,1,1,1.1.21c-.12.66-.24,1.33-.35,2A.57.57,0,0,1,163.6,175.72Zm-9-1.12a.54.54,0,0,1-.22,0l-1.89-.77a.57.57,0,1,1,.42-1.05l1.9.78a.57.57,0,0,1-.21,1.09Zm-4.76-1.93a.52.52,0,0,1-.21,0l-1.9-.75a.56.56,0,1,1,.41-1l1.91.76a.56.56,0,0,1-.21,1.08Zm-4.77-1.86a.76.76,0,0,1-.21,0l-1.91-.73a.56.56,0,1,1,.4-1.05l1.92.72a.57.57,0,0,1,.32.73A.55.55,0,0,1,145.11,170.81Zm19.49-.11h-.13a.56.56,0,0,1-.42-.68c.15-.67.32-1.34.49-2a.56.56,0,0,1,.69-.4.57.57,0,0,1,.4.69c-.17.65-.33,1.31-.49,2A.56.56,0,0,1,164.6,170.7ZM140.3,169a.65.65,0,0,1-.19,0l-1.93-.7a.56.56,0,0,1-.33-.72.55.55,0,0,1,.72-.34l1.93.7a.57.57,0,0,1,.33.73A.57.57,0,0,1,140.3,169Zm-4.82-1.74a.63.63,0,0,1-.19,0l-1.93-.68a.56.56,0,1,1,.37-1.06l1.94.67a.57.57,0,0,1-.19,1.1Zm30.43-1.53-.16,0a.57.57,0,0,1-.38-.71c.2-.66.4-1.31.62-2a.55.55,0,0,1,.71-.35.56.56,0,0,1,.36.71c-.21.64-.41,1.29-.61,1.94A.57.57,0,0,1,165.91,165.75Zm-35.28-.15a.57.57,0,0,1-.18,0l-1.94-.65a.56.56,0,1,1,.36-1.07l1.94.66a.56.56,0,0,1-.18,1.09ZM125.77,164l-.18,0-2-.62a.57.57,0,1,1,.34-1.08l2,.63a.56.56,0,0,1-.17,1.1Zm-4.9-1.54a.45.45,0,0,1-.16,0l-2-.6a.56.56,0,1,1,.32-1.08l2,.6a.57.57,0,0,1,.37.71A.56.56,0,0,1,120.87,162.45ZM116,161l-.16,0-2-.57a.57.57,0,0,1-.39-.7.56.56,0,0,1,.7-.38l2,.56A.57.57,0,0,1,116,161Zm51.57-.08a.63.63,0,0,1-.19,0,.57.57,0,0,1-.34-.73c.24-.64.49-1.29.74-1.92a.56.56,0,1,1,1,.41c-.25.63-.49,1.26-.73,1.9A.56.56,0,0,1,167.53,160.89Zm1.91-4.75a.59.59,0,0,1-.22,0,.55.55,0,0,1-.29-.74c.27-.63.55-1.26.84-1.88a.56.56,0,1,1,1,.47c-.28.62-.56,1.23-.83,1.86A.57.57,0,0,1,169.44,156.14Zm2.18-4.64a.54.54,0,0,1-.25-.06.56.56,0,0,1-.25-.76c.31-.61.62-1.22.95-1.83a.56.56,0,1,1,1,.53c-.32.6-.63,1.2-.94,1.81A.54.54,0,0,1,171.62,151.5Zm2.43-4.51a.54.54,0,0,1-.28-.08.56.56,0,0,1-.21-.77c.34-.59.69-1.19,1-1.77a.56.56,0,0,1,.77-.2.57.57,0,0,1,.2.78c-.35.58-.69,1.16-1,1.76A.58.58,0,0,1,174.05,147Zm2.65-4.38a.58.58,0,0,1-.3-.09.57.57,0,0,1-.17-.78c.37-.58.75-1.15,1.13-1.72a.56.56,0,0,1,.94.62c-.38.57-.75,1.14-1.12,1.71A.56.56,0,0,1,176.7,142.61Zm2.88-4.25a.56.56,0,0,1-.33-.1.57.57,0,0,1-.13-.79c.4-.56.8-1.11,1.21-1.66a.56.56,0,1,1,.9.67c-.4.54-.8,1.09-1.19,1.65A.58.58,0,0,1,179.58,138.36Zm3.06-4.1a.59.59,0,0,1-.35-.12.57.57,0,0,1-.09-.79c.43-.55.85-1.08,1.28-1.61a.58.58,0,0,1,.8-.09.57.57,0,0,1,.08.8c-.43.52-.85,1.05-1.27,1.59A.58.58,0,0,1,182.64,134.26Zm3.25-4a.54.54,0,0,1-.36-.14.56.56,0,0,1-.06-.8l1.35-1.55a.58.58,0,0,1,.8,0,.57.57,0,0,1,0,.8l-1.34,1.54A.57.57,0,0,1,185.89,130.3Zm3.42-3.82a.54.54,0,0,1-.38-.15.57.57,0,0,1,0-.8c.47-.51.95-1,1.42-1.49a.56.56,0,1,1,.81.78c-.47.48-.94,1-1.41,1.48A.55.55,0,0,1,189.31,126.48Zm3.58-3.67a.58.58,0,0,1-.4-.17.56.56,0,0,1,0-.8c.49-.48,1-1,1.48-1.43a.56.56,0,0,1,.79,0,.56.56,0,0,1,0,.8c-.48.46-1,.93-1.46,1.42A.59.59,0,0,1,192.89,122.81Zm3.73-3.52a.55.55,0,0,1-.41-.18.57.57,0,0,1,0-.8c.52-.47,1-.92,1.55-1.37a.56.56,0,0,1,.74.85c-.51.44-1,.9-1.53,1.36A.54.54,0,0,1,196.62,119.29Zm3.88-3.35a.57.57,0,0,1-.36-1l1.6-1.3a.57.57,0,0,1,.71.89c-.53.41-1.06.84-1.59,1.28A.53.53,0,0,1,200.5,115.94Z"/><path class="cls-65" d="M111,159.58l-.15,0-1-.26a.57.57,0,0,1-.41-.69.56.56,0,0,1,.69-.4l1,.26a.56.56,0,0,1-.14,1.11Z"/></g><path class="cls-66" d="M168.78,218.77a.56.56,0,0,1-.52-.35c-9.09-22.57-8.28-45.06,2.41-66.84,10.54-21.47,27.53-35.43,34.34-40.44a.57.57,0,0,1,.67.91c-10.19,7.48-59.81,47.75-36.37,106a.57.57,0,0,1-.32.73A.52.52,0,0,1,168.78,218.77Z"/><path class="cls-67" d="M374.13,63.63c-8.6-5-15.59-1-15.59,8.89s7,21.92,15.59,26.89,15.58,1,15.58-8.89S382.72,68.59,374.13,63.63Z"/><path class="cls-68" d="M385.93,91.52c0-9.48-6.72-21.07-15-25.84-3.34-1.93-6.43-2.44-8.92-1.75a39.32,39.32,0,0,0-4.83,2.12c-2.66,1.57-4.3,4.87-4.3,9.56,0,9.48,6.72,21.07,15,25.84,3.69,2.13,7.07,2.53,9.68,1.49.62-.25,3.45-1.48,4.2-1.94C384.34,99.4,385.93,96.13,385.93,91.52Z"/><path class="cls-69" d="M356.81,66.92c-2.24,1.9-3.88,4.91-3.79,9.41.19,9.28,6.8,20.46,14.86,25.12,3.89,2.24,7.46,2.59,10,1.19a38.09,38.09,0,0,0,4-2.38c2.21-1.86,3.76-4.9,3.67-9.33-.19-9.28-6.8-20.47-14.86-25.12-3.53-2-6.79-2.5-9.28-1.51A29.16,29.16,0,0,0,356.81,66.92Z"/><path class="cls-70" d="M356.41,67.79a12.41,12.41,0,0,0-3.26,9.26c.38,9.08,6.87,19.86,14.73,24.4,4.09,2.36,7.85,2.62,10.36.89A31.06,31.06,0,0,0,382,99.53a12.24,12.24,0,0,0,3.17-9.19c-.38-9.09-6.88-19.87-14.74-24.41-3.72-2.15-7.14-2.52-9.63-1.26A23,23,0,0,0,356.41,67.79Z"/><path class="cls-71" d="M356,68.66c-1.93,1.84-3,5-2.75,9.12.58,8.88,7,19.25,14.61,23.67,4.29,2.47,8.22,2.62,10.7.59a26,26,0,0,0,3.48-3.25,13.23,13.23,0,0,0,2.67-9c-.58-8.89-7-19.27-14.62-23.69-3.91-2.26-7.5-2.55-10-1C359.07,65.69,356.54,67.47,356,68.66Z"/><path class="cls-72" d="M355.63,69.53c-1.69,1.92-2.59,5-2.24,9,.78,8.69,7,18.65,14.49,23,4.48,2.59,8.59,2.61,11,.29a22.34,22.34,0,0,0,3.24-3.68,14.31,14.31,0,0,0,2.17-8.9c-.78-8.7-7-18.67-14.5-23-4.1-2.38-7.85-2.56-10.34-.78C358.39,66.19,356.09,68.08,355.63,69.53Z"/><path class="cls-73" d="M355.24,70.39c-1.45,2-2.16,5.06-1.72,8.83,1,8.49,7.11,18,14.36,22.23,4.68,2.7,8.95,2.59,11.38,0a19.56,19.56,0,0,0,3-4.12,15.44,15.44,0,0,0,1.67-8.75c-1-8.5-7.12-18.07-14.38-22.26-4.29-2.48-8.2-2.56-10.7-.53C357.71,66.7,355.63,68.69,355.24,70.39Z"/><path class="cls-74" d="M354.85,71.26A13.6,13.6,0,0,0,353.64,80c1.2,8.29,7.19,17.43,14.24,21.5,4.88,2.82,9.3,2.57,11.72-.31a17.81,17.81,0,0,0,2.76-4.56,17,17,0,0,0,1.17-8.6c-1.2-8.31-7.2-17.47-14.25-21.54-4.49-2.59-8.55-2.57-11.06-.29C357,67.22,355.18,69.31,354.85,71.26Z"/><path class="cls-75" d="M354.46,72.13a18.74,18.74,0,0,0-.69,8.54c1.41,8.1,7.27,16.83,14.11,20.78,5.08,2.93,9.64,2.54,12.06-.62a16.13,16.13,0,0,0,2.52-5,18.46,18.46,0,0,0,.66-8.46c-1.41-8.11-7.27-16.87-14.12-20.83-4.68-2.7-8.89-2.56-11.42,0A13.77,13.77,0,0,0,354.46,72.13Z"/><path class="cls-76" d="M354.07,73a20.55,20.55,0,0,0-.18,8.39c1.64,7.9,7.35,16.22,14,20.06,5.28,3,10,2.51,12.4-.92a15.1,15.1,0,0,0,2.28-5.42,20.19,20.19,0,0,0,.16-8.31c-1.63-7.92-7.35-16.27-14-20.11-4.87-2.81-9.23-2.56-11.77.2A13.15,13.15,0,0,0,354.07,73Z"/><path class="cls-77" d="M353.68,73.87a22.52,22.52,0,0,0,.33,8.25c1.88,7.69,7.43,15.61,13.87,19.33,5.48,3.16,10.31,2.48,12.74-1.22a14.36,14.36,0,0,0,2-5.85,22.11,22.11,0,0,0-.34-8.17c-1.87-7.72-7.43-15.67-13.88-19.4-5.06-2.92-9.56-2.55-12.13.45A12.85,12.85,0,0,0,353.68,73.87Z"/><path class="cls-78" d="M353.29,74.74a24.34,24.34,0,0,0,.85,8.1c2.12,7.49,7.5,15,13.74,18.61,5.68,3.27,10.64,2.46,13.08-1.52a13.71,13.71,0,0,0,1.8-6.29,24.07,24.07,0,0,0-.84-8c-2.11-7.52-7.51-15.07-13.76-18.68-5.25-3-9.89-2.55-12.49.68A12.71,12.71,0,0,0,353.29,74.74Z"/><path class="cls-79" d="M367.88,67.07c-8.26-4.77-15-.94-15,8.54s6.72,21.07,15,25.84,15,.93,15-8.54S376.14,71.83,367.88,67.07Z"/><path class="cls-80" d="M368.73,66.42c-3.2,2.47-1.58,9.91,3.6,16.63s12,10.16,15.18,7.69,1.58-9.92-3.6-16.63S371.92,64,368.73,66.42Z"/><path class="cls-17" d="M360,80.48l6,13,11.12-11.67c.39-.41.12-1.45-.52-2l-3.41-3.1c-.46-.41-.94-.45-1.15-.09l-6,10.17-2.61-6.27a1.86,1.86,0,0,0-1.14-1.13L360.48,79C359.85,78.91,359.61,79.64,360,80.48Z"/><circle class="cls-81" cx="109.84" cy="159.19" r="12.09" transform="translate(-64.32 75.09) rotate(-29.62)"/><g class="cls-42"><path class="cls-82" d="M238,287.28c-.57,0-1.13,0-1.69,0a.56.56,0,0,1-.53-.58.56.56,0,0,1,.58-.53c.89.05,1.79.05,2.69,0h0a.55.55,0,0,1,0,1.1Zm3.8-.2a.55.55,0,0,1-.06-1.1c.89-.1,1.79-.22,2.67-.38a.57.57,0,0,1,.64.45.56.56,0,0,1-.45.64c-.91.16-1.83.29-2.75.39Zm-8.19-.08h-.07c-1-.12-1.87-.29-2.75-.49a.55.55,0,0,1,.25-1.08c.85.2,1.73.35,2.64.47a.56.56,0,0,1-.07,1.11Zm13.57-.88a.56.56,0,0,1-.54-.42.55.55,0,0,1,.4-.67c.88-.23,1.75-.49,2.57-.78a.57.57,0,0,1,.71.35.56.56,0,0,1-.35.7c-.85.29-1.74.56-2.66.8Zm-18.89-.37-.18,0a20.86,20.86,0,0,1-2.58-1.11.54.54,0,0,1-.26-.3.57.57,0,0,1-.42-.08l-2.31-1.46a.55.55,0,1,1,.59-.93l2.31,1.46a.54.54,0,0,1,.22.28.56.56,0,0,1,.38.05,19.46,19.46,0,0,0,2.44,1.05.55.55,0,0,1,.34.7A.56.56,0,0,1,228.3,285.75Zm24-1.43a.55.55,0,0,1-.5-.32.55.55,0,0,1,.28-.73,26.1,26.1,0,0,0,2.36-1.21l.57.95h0a26.94,26.94,0,0,1-2.46,1.25A.46.46,0,0,1,252.34,284.32Zm4.8-2.61a.55.55,0,0,1-.27-1l2.36-1.37a.55.55,0,0,1,.76.2.55.55,0,0,1-.2.75l-2.37,1.37A.57.57,0,0,1,257.14,281.71Zm-36.6-.32a.61.61,0,0,1-.3-.08l-2.31-1.47a.54.54,0,0,1-.17-.76.55.55,0,0,1,.76-.17l2.31,1.46a.55.55,0,0,1,.17.77A.54.54,0,0,1,220.54,281.39ZM261.88,279a.55.55,0,0,1-.28-1l2.37-1.37a.54.54,0,0,1,.75.2.55.55,0,0,1-.2.75l-2.37,1.37A.53.53,0,0,1,261.88,279Zm-46-.5a.52.52,0,0,1-.29-.09l-2.31-1.46a.55.55,0,0,1-.17-.77.56.56,0,0,1,.76-.17l2.31,1.47a.55.55,0,0,1,.17.76A.54.54,0,0,1,215.91,278.47Zm50.7-2.24a.55.55,0,0,1-.28-1l2.37-1.37a.55.55,0,0,1,.55.95l-2.36,1.37A.6.6,0,0,1,266.61,276.23Zm-55.32-.69a.52.52,0,0,1-.29-.09L208.69,274a.54.54,0,0,1-.17-.76.55.55,0,0,1,.76-.17l2.31,1.46a.55.55,0,0,1,.17.76A.54.54,0,0,1,211.29,275.54Zm60-2.06a.57.57,0,0,1-.48-.27.56.56,0,0,1,.2-.76l2.37-1.37a.57.57,0,0,1,.76.2.56.56,0,0,1-.21.76l-2.36,1.37A.55.55,0,0,1,271.34,273.48Zm-64.67-.87a.51.51,0,0,1-.29-.08l-2.31-1.47a.54.54,0,0,1-.17-.76.55.55,0,0,1,.76-.17L207,271.6a.55.55,0,0,1-.3,1Zm69.4-1.87a.53.53,0,0,1-.47-.27.55.55,0,0,1,.2-.76l2.36-1.37a.56.56,0,1,1,.56,1l-2.37,1.37A.55.55,0,0,1,276.07,270.74Zm-74-1.05a.52.52,0,0,1-.29-.09l-2.31-1.46a.54.54,0,0,1-.17-.76.56.56,0,0,1,.76-.18l2.31,1.47a.55.55,0,0,1,.17.76A.54.54,0,0,1,202.05,269.69ZM280.81,268a.55.55,0,0,1-.28-1l2.37-1.37a.54.54,0,0,1,.75.2.56.56,0,0,1-.2.76l-2.37,1.37A.52.52,0,0,1,280.81,268Zm-83.38-1.24a.52.52,0,0,1-.29-.09l-2.31-1.46a.54.54,0,0,1-.17-.76.55.55,0,0,1,.76-.17l2.31,1.46a.55.55,0,0,1-.3,1Zm-4.62-2.93a.51.51,0,0,1-.29-.08l-2.31-1.47a.54.54,0,0,1-.17-.76.55.55,0,0,1,.76-.17l2.31,1.46a.55.55,0,0,1-.3,1Zm-4.62-2.92a.52.52,0,0,1-.29-.09l-2.31-1.46a.54.54,0,0,1-.17-.76.55.55,0,0,1,.76-.18l2.31,1.47a.55.55,0,0,1,.17.76A.56.56,0,0,1,188.19,260.91ZM183.57,258a.52.52,0,0,1-.29-.09L181,256.43a.54.54,0,0,1-.17-.76.55.55,0,0,1,.76-.17l2.31,1.46a.55.55,0,0,1-.3,1ZM179,255.05a.51.51,0,0,1-.29-.08l-2.31-1.46a.55.55,0,1,1,.59-.94l2.31,1.46a.56.56,0,0,1,.17.77A.57.57,0,0,1,179,255.05Zm-4.62-2.92A.52.52,0,0,1,174,252l-2.31-1.46a.54.54,0,0,1-.17-.76.55.55,0,0,1,.76-.18l2.31,1.47a.55.55,0,0,1,.17.76A.56.56,0,0,1,174.33,252.13Zm-4.62-2.93a.52.52,0,0,1-.29-.09l-2.31-1.46a.54.54,0,0,1-.17-.76.55.55,0,0,1,.76-.17l2.31,1.46a.55.55,0,0,1-.3,1Zm177.35-19.58a.55.55,0,0,1-.48-.27.56.56,0,0,1,.21-.76l2.36-1.37a.56.56,0,1,1,.56,1l-2.37,1.37A.55.55,0,0,1,347.06,229.62Zm4.73-2.74a.55.55,0,0,1-.27-1l2.36-1.37a.56.56,0,0,1,.56,1l-2.37,1.37A.55.55,0,0,1,351.79,226.88Zm4.74-2.74a.55.55,0,0,1-.28-1l2.37-1.37a.55.55,0,0,1,.75.2.57.57,0,0,1-.2.76l-2.36,1.37A.58.58,0,0,1,356.53,224.14Zm4.73-2.74a.55.55,0,0,1-.28-1l2.37-1.37a.54.54,0,0,1,.75.2.54.54,0,0,1-.2.75l-2.36,1.38A.58.58,0,0,1,361.26,221.4Zm4.73-2.74a.56.56,0,0,1-.48-.28.55.55,0,0,1,.21-.75l2.36-1.37a.55.55,0,1,1,.56,1l-2.37,1.37A.57.57,0,0,1,366,218.66Zm4.74-2.74a.55.55,0,0,1-.28-1,21.78,21.78,0,0,0,2.21-1.48.55.55,0,1,1,.67.88,24,24,0,0,1-2.32,1.55A.6.6,0,0,1,370.73,215.92Zm4.3-3.35a.55.55,0,0,1-.4-.93,12.35,12.35,0,0,0,1.57-2.08.54.54,0,0,1,.75-.19.55.55,0,0,1,.2.75,12.75,12.75,0,0,1-1.72,2.28A.56.56,0,0,1,375,212.57Zm2.65-4.7h-.12a.57.57,0,0,1-.42-.66,6.42,6.42,0,0,0,.16-1.44,6.53,6.53,0,0,0-.09-1.07.55.55,0,0,1,.45-.63.54.54,0,0,1,.64.44,7.66,7.66,0,0,1,.11,1.26,7.4,7.4,0,0,1-.19,1.68A.55.55,0,0,1,377.68,207.87Zm-.9-5.25a.57.57,0,0,1-.47-.27,9.05,9.05,0,0,0-1.65-2,.55.55,0,0,1-.05-.78.56.56,0,0,1,.78,0,9.72,9.72,0,0,1,1.86,2.2.55.55,0,0,1-.18.76A.52.52,0,0,1,376.78,202.62Zm-4-3.69a.47.47,0,0,1-.25-.07l-2.33-1.47a.55.55,0,1,1,.59-.93l2.24,1.42a.57.57,0,0,1,.21.77A.53.53,0,0,1,372.78,198.93ZM368.19,196a.55.55,0,0,1-.3-.09l-2.31-1.46a.55.55,0,0,1,.59-.94l2.31,1.47a.55.55,0,0,1,.18.76A.56.56,0,0,1,368.19,196Zm-4.62-2.93a.55.55,0,0,1-.3-.09L361,191.54a.55.55,0,0,1,.59-.93l2.31,1.46a.54.54,0,0,1,.17.76A.53.53,0,0,1,363.57,193.09ZM359,190.16a.64.64,0,0,1-.3-.08l-2.31-1.47a.55.55,0,0,1,.59-.93l2.31,1.46a.55.55,0,0,1,.17.77A.54.54,0,0,1,359,190.16Zm-4.62-2.92a.55.55,0,0,1-.3-.09l-2.31-1.46a.55.55,0,0,1,.59-.94l2.31,1.47a.54.54,0,0,1,.17.76A.53.53,0,0,1,354.33,187.24Z"/></g><g class="cls-83"><polygon class="cls-84" points="294.17 256.31 299.61 259.45 302.25 257.93 296.8 254.78 294.17 256.31"/><polygon class="cls-85" points="298.23 253.96 303.68 257.1 306.6 255.41 301.16 252.27 298.23 253.96"/><polygon class="cls-86" points="286.04 261 291.48 264.14 293.54 262.96 288.1 259.81 286.04 261"/><polygon class="cls-87" points="283.28 262.61 288.72 265.75 289.78 265.23 284.34 262.09 283.28 262.61"/><polygon class="cls-88" points="290.1 258.65 295.55 261.8 297.89 260.44 292.45 257.3 290.1 258.65"/><polygon class="cls-89" points="297.81 248.7 312.6 257.24 315.39 247.09 297.81 248.7"/></g><circle class="cls-90" cx="166.68" cy="246.36" r="13.2"/><circle class="cls-91" cx="352.01" cy="185.03" r="13.2"/><path class="cls-89" d="M346,239.71l0-7.27a3.73,3.73,0,0,0-2.17-3l-8.92-5.14-27.08,15.64,20.44,11.8,15.63-9A3.66,3.66,0,0,0,346,239.71ZM343.52,233l0,6.06-5.26-3Zm-15.34,16.73-17-9.84,23.7-13.68,7.46,4.3a.65.65,0,0,1,0,1.23l-7.4,4.27,7.45,4.31c.59.34.59.89,0,1.22ZM321.31,236l13.63,7.87,1.69-1L323,235.05Zm3.39-2,13.63,7.87,1.69-1-13.63-7.87ZM317.93,238l13.62,7.87,1.7-1L319.62,237Z"/></g></g></svg>