<svg id="Layer_1" data-name="Layer 1" xmlns="http://www.w3.org/2000/svg" viewBox="0 0 38.01 8"><defs><style>.cls-1{fill:#f9f9f9;}</style></defs><path class="cls-1" d="M.27,1.09H2.45A2.85,2.85,0,0,1,5.46,4a2.83,2.83,0,0,1-3,2.89H.27ZM2.43,6.15A2.05,2.05,0,0,0,4.58,4,2.07,2.07,0,0,0,2.43,1.85H1.13v4.3Z"/><path class="cls-1" d="M6.32,1.09H8.94c1.07,0,1.82.61,1.82,1.51a1.42,1.42,0,0,1-.88,1.26A1.54,1.54,0,0,1,11,5.29a1.69,1.69,0,0,1-1.9,1.62H6.32ZM8.94,3.53a.85.85,0,0,0,.94-.85.86.86,0,0,0-.94-.86H7.18V3.53Zm.14,2.65a1,1,0,1,0,0-1.93H7.18V6.18Z"/><path class="cls-1" d="M11.84,1.09h2.4a1.9,1.9,0,1,1,0,3.78H12.7v2h-.86Zm2.4,3A1.09,1.09,0,0,0,15.4,3a1.09,1.09,0,0,0-1.16-1.13H12.7V4.11Z"/><path class="cls-1" d="M17,1.09h.39V6.91H17Z"/><path class="cls-1" d="M18.56,1.09h.52l3.8,5.32V1.09h.39V6.91h-.52L19,1.59V6.91h-.39Z"/><path class="cls-1" d="M24.21,4.83h.4a1.6,1.6,0,0,0,1.56,1.8,1.22,1.22,0,0,0,1.36-1.17c0-.82-.62-1-1.52-1.35s-1.62-.74-1.62-1.65A1.47,1.47,0,0,1,26,1a1.71,1.71,0,0,1,1.74,1.88h-.4A1.37,1.37,0,0,0,26,1.37a1.1,1.1,0,0,0-1.2,1.09c0,.73.5,1,1.34,1.31,1.07.37,1.8.68,1.8,1.66A1.6,1.6,0,0,1,26.17,7,2,2,0,0,1,24.21,4.83Z"/><path class="cls-1" d="M28.64,4.83H29a1.6,1.6,0,0,0,1.57,1.8A1.22,1.22,0,0,0,32,5.46c0-.82-.63-1-1.53-1.35s-1.61-.74-1.61-1.65A1.47,1.47,0,0,1,30.44,1a1.71,1.71,0,0,1,1.74,1.88h-.4a1.36,1.36,0,0,0-1.34-1.52,1.11,1.11,0,0,0-1.21,1.09c0,.73.51,1,1.35,1.31,1.06.37,1.79.68,1.79,1.66A1.59,1.59,0,0,1,30.61,7,2,2,0,0,1,28.64,4.83Z"/><path class="cls-1" d="M33.31,1.09h2.54a1.75,1.75,0,0,1,1.89,1.75,1.72,1.72,0,0,1-1.66,1.72l1.59,2.35h-.46L35.64,4.58H33.7V6.91h-.39Zm2.54,3.14a1.37,1.37,0,0,0,1.48-1.39,1.37,1.37,0,0,0-1.48-1.39H33.7V4.23Z"/></svg>