<svg id="Ñëîé_1" data-name="Ñëîé 1" xmlns="http://www.w3.org/2000/svg" viewBox="0 0 513.19 240.9"><defs><style>.cls-1{fill:#fff;}.cls-2{fill:#050505;}</style></defs><path class="cls-1" d="M394.9,11.94H334.64V118.67a109.73,109.73,0,0,0,7.06,38.89,108.44,108.44,0,0,0,9.57,19.38h0a3.64,3.64,0,0,0,.23.39l-.23-.48L343.49,161l-.05-.1-.29-.57-1.36-2.75c2.84-.09,3.65.31,7.35.13,1.61-.08,2.45-.19,3.1-.82s1-1.85.94-3.47c-.18-9.23,0-18.47-.26-27.7-.08-3.18,1-4.53,4.13-5,5.13-.77,10.19-2,16.08-3.19v32.59c0,7.17-.07,14.34,0,21.5,0,4-1.92,5.9-5.78,5.92-5.24,0-10.49,0-15.74,0A110.26,110.26,0,0,0,444.94,229h60.25V122.25A110.3,110.3,0,0,0,394.9,11.94ZM349.68,31.19a5.75,5.75,0,1,1,5.74-5.74A5.74,5.74,0,0,1,349.68,31.19Zm63.07,95.17c0,16.62,0,33.25-.14,49.87-.08,8.71-4.23,15.16-11.76,19.47-9.29,5.31-24.23,4.09-32.6-2.62a29.19,29.19,0,0,0-3.42-2.05c.35-.45.69-.91,1-1.36,2.73.4,5.44.86,8.17,1.17a42.46,42.46,0,0,0,6.06.34c9.81-.34,15.28-5.76,15.35-15.58q.18-27.76,0-55.55c0-3.36,1-4.87,4.33-5.37,4.19-.62,8.32-1.71,13-2.7C412.75,117.23,412.76,121.8,412.75,126.36Zm24.5,92.51c-10.43-1.85-15.66-7.92-15.73-19.06-.14-22.36,0-44.73-.06-67.1,0-28.46.1-15.78-.11-44.24,0-4.32,1.51-6.06,5.44-6.79,5.42-1,10.77-2.29,17.09-3.66V194c0,2,0,3.94.1,5.9.33,4.93,2.85,7.62,7.95,7.3,4.06-.25,8.11-.68,12.66-1.08C461,215.14,448.4,220.85,437.25,218.87ZM460.89,65.29a6.33,6.33,0,0,1-4.36,2.16c-16.44.15-32.87.1-50.84.1,2.22-3.86,3.28-7.6,5.76-9.5s6.39-2,10.14-3c1.55-10.41,2.33-22.29,16.24-25.1,6.63-1.34,13.11-.28,18.12,7.11-3.48-.44-6-.9-8.48-1.06-8.38-.51-13.72,5.92-11.16,13.93a7.78,7.78,0,0,0,5.05,4.54c6,.93,12.06,1,18.1,1.37,1.9.11,3.82,0,7.1,0C464.2,59.88,462.82,62.8,460.89,65.29Zm31.13,156a5.75,5.75,0,1,1,5.74-5.75A5.75,5.75,0,0,1,492,221.31Z"/><polygon class="cls-2" points="351.28 176.85 343.15 160.31 343.44 160.88 343.49 160.98 351.28 176.85"/><path class="cls-2" d="M351.61,177.49h0l-.08-.16,0,.06,0,0Z"/><path class="cls-1" d="M343.49,161l-.05-.1-.29-.57-1.36-2.75h-.09c-1.71.06-2.72,0-5,.13-3.27.16-4.14-1.29-3.94-4.27.24-3.32.21-6.68.22-10,0-8.37,0-16.76,0-26.21-6.08,1.38-11.24,2.72-16.48,3.67-3,.55-3.68,2.08-3.65,4.91.1,9.07-.16,18.14-.07,27.23,0,3.2-.95,4.66-4.36,4.48a95.09,95.09,0,0,0-11.45,0c-3.68.24-4.6-1.33-4.56-4.76.13-10-.05-20.07-.1-30.1,0-1.52,0-3,0-5.09-5.88,1.17-11,2.3-16.13,3.19-3.1.53-4.16,2.07-4.08,5.19.23,9.08,0,18.15.31,27.22.12,3.68-1.2,4.67-4.66,4.57-9.85-.23-19.72-.42-29.57-.17-4.49.1-6.12-1.08-6-5.81.34-11.12.11-22.24.11-34.28-6.1,1.31-11.2,2.45-16.32,3.43-2.77.54-4,1.79-3.91,4.82.15,9.08-.21,18.16,0,27.22.08,3.65-1.2,4.73-4.63,4.67-7.15-.13-14.3-.07-21.45.08-13.45.33-13.45.39-13-13.22,0-.31.05-.63,0-.94-.23-10.65.46-21.4-.91-31.88-2-15.15-16-25.63-31-24.6a30.07,30.07,0,0,0-27.89,28.26c-.84,16.14,9.33,29.36,24.84,31.66,4.58.68,9.34.11,14,.11,1.42,10.37,1.42,10.35-8.37,10.37q-57.52.12-115,.26c-1.69,0-4.24-.08-4.91.9-4.06,5.9-7.7,12.08-11.84,18.77,2.16.15,3.09.27,4,.27H153l198.25-.13h0a2.62,2.62,0,0,0,0-.27c0-.05,0-.1,0-.14a.61.61,0,0,0,0-.14v-.09ZM143.08,127.62a10.36,10.36,0,1,1-.2-20.72c5.5,0,10.57,4.88,10.62,10.25S148.57,127.49,143.08,127.62Z"/><path class="cls-1" d="M351.59,177.49h-.35a2.45,2.45,0,0,0,0-.27c0-.05,0-.1,0-.14v-.14a.28.28,0,0,0,0-.09l.23.48Z"/><path class="cls-1" d="M181.13,207.91c-.07-6.71,4.52-11.55,11.09-11.69,6.81-.14,11.94,4.68,12,11.33a11.32,11.32,0,0,1-11.69,11.71A11,11,0,0,1,181.13,207.91Z"/><path class="cls-1" d="M284.8,93.33c0-5.8,3.81-9.64,9.45-9.59s9.36,4.07,9.28,9.84a9.37,9.37,0,0,1-18.73-.25Z"/><path class="cls-1" d="M322.88,83.61a9.07,9.07,0,0,1,9.25,9.47,9.25,9.25,0,0,1-9.45,9.38,9.46,9.46,0,0,1-9.51-9.78A9.28,9.28,0,0,1,322.88,83.61Z"/><path class="cls-1" d="M238.8,207.75a11.4,11.4,0,1,1-22.8,0,11.08,11.08,0,0,1,11.42-11.4A11,11,0,0,1,238.8,207.75Z"/><path class="cls-1" d="M142.26,70.7a11.42,11.42,0,1,1-.13-22.83,11,11,0,0,1,11.5,11.36A11,11,0,0,1,142.26,70.7Z"/><path class="cls-1" d="M298.08,68.76c-.07-5.81,3.38-9.44,9-9.48s9.82,4,9.82,9.36a9.42,9.42,0,0,1-18.84.12Z"/></svg>