<svg id="Layer_1" data-name="Layer 1" xmlns="http://www.w3.org/2000/svg" viewBox="0 0 23.82 8"><defs><style>.cls-1{fill:#f9f9f9;}</style></defs><path class="cls-1" d="M.4,1.09H2.58A2.84,2.84,0,0,1,5.58,4a2.82,2.82,0,0,1-3,2.89H.4ZM2.56,6.15A2,2,0,0,0,4.7,4,2.06,2.06,0,0,0,2.56,1.85H1.25v4.3Z"/><path class="cls-1" d="M6.45,1.09H7.69L9.81,5.83l2.12-4.74h1.24V6.91h-.85V2.3L10.23,6.91H9.38L7.3,2.32V6.91H6.45Z"/><path class="cls-1" d="M14.1,4.83h.4a1.6,1.6,0,0,0,1.57,1.8,1.22,1.22,0,0,0,1.36-1.17c0-.82-.63-1-1.53-1.35s-1.61-.74-1.61-1.65A1.47,1.47,0,0,1,15.9,1a1.71,1.71,0,0,1,1.74,1.88h-.4a1.36,1.36,0,0,0-1.35-1.52,1.1,1.1,0,0,0-1.2,1.09c0,.73.5,1,1.35,1.31,1.06.37,1.79.68,1.79,1.66A1.59,1.59,0,0,1,16.07,7,2,2,0,0,1,14.1,4.83Z"/><path class="cls-1" d="M18.77,1.09h2.61c1.07,0,1.82.57,1.82,1.47a1.37,1.37,0,0,1-.94,1.31,1.46,1.46,0,0,1,1.16,1.46c0,1-.78,1.58-1.9,1.58H18.77Zm2.61,2.63c.89,0,1.41-.5,1.41-1.15s-.58-1.13-1.41-1.13H19.16V3.72Zm.14,2.84c.88,0,1.49-.47,1.49-1.24s-.55-1.25-1.49-1.25H19.16V6.56Z"/></svg>