<svg id="Ñëîé_1" data-name="Ñëîé 1" xmlns="http://www.w3.org/2000/svg" xmlns:xlink="http://www.w3.org/1999/xlink" viewBox="0 0 513.19 240.9"><defs><style>.cls-1{fill:url(#Áåçûìÿííûé_ãðàäèåíò_24);}.cls-2{fill:#fff;}.cls-3{fill:url(#Áåçûìÿííûé_ãðàäèåíò_24-2);}.cls-4{fill:url(#Áåçûìÿííûé_ãðàäèåíò_24-3);}.cls-5{fill:url(#Áåçûìÿííûé_ãðàäèåíò_24-4);}.cls-6{fill:url(#Áåçûìÿííûé_ãðàäèåíò_24-5);}.cls-7{fill:url(#Áåçûìÿííûé_ãðàäèåíò_24-6);}.cls-8{fill:url(#Áåçûìÿííûé_ãðàäèåíò_24-7);}.cls-9{fill:url(#Áåçûìÿííûé_ãðàäèåíò_24-8);}</style><linearGradient id="Áåçûìÿííûé_ãðàäèåíò_24" x1="333.78" y1="114.92" x2="504.33" y2="114.92" gradientUnits="userSpaceOnUse"><stop offset="0.77" stop-color="#3a9bd5"/><stop offset="0.84" stop-color="#3896d2"/><stop offset="0.92" stop-color="#3189c9"/><stop offset="1" stop-color="#2573ba"/></linearGradient><linearGradient id="Áåçûìÿííûé_ãðàäèåíò_24-2" x1="11.07" y1="126.75" x2="350.42" y2="126.75" xlink:href="#Áåçûìÿííûé_ãðàäèåíò_24"/><linearGradient id="Áåçûìÿííûé_ãðàäèåíò_24-3" x1="180.26" y1="202.21" x2="203.4" y2="202.21" xlink:href="#Áåçûìÿííûé_ãðàäèåíò_24"/><linearGradient id="Áåçûìÿííûé_ãðàäèåíò_24-4" x1="283.94" y1="87.64" x2="302.67" y2="87.64" xlink:href="#Áåçûìÿííûé_ãðàäèåíò_24"/><linearGradient id="Áåçûìÿííûé_ãðàäèåíò_24-5" x1="312.31" y1="87.51" x2="331.27" y2="87.51" xlink:href="#Áåçûìÿííûé_ãðàäèåíò_24"/><linearGradient id="Áåçûìÿííûé_ãðàäèåíò_24-6" x1="215.14" y1="202.28" x2="237.94" y2="202.28" xlink:href="#Áåçûìÿííûé_ãðàäèåíò_24"/><linearGradient id="Áåçûìÿííûé_ãðàäèåíò_24-7" x1="129.86" y1="53.76" x2="152.77" y2="53.76" xlink:href="#Áåçûìÿííûé_ãðàäèåíò_24"/><linearGradient id="Áåçûìÿííûé_ãðàäèåíò_24-8" x1="297.22" y1="63.17" x2="316.05" y2="63.17" xlink:href="#Áåçûìÿííûé_ãðàäèåíò_24"/></defs><path class="cls-1" d="M394,6.41H333.78V113.14A109.71,109.71,0,0,0,340.84,152a108.53,108.53,0,0,0,9.57,19.39h0c.08.15.18.3.27.45l-.27-.54h0l-7.84-16-.29-.58L340.93,152c2.84-.09,3.65.31,7.35.14,1.61-.08,2.45-.2,3.1-.82s1-1.86.94-3.48c-.18-9.23,0-18.47-.26-27.7-.08-3.17,1-4.52,4.13-5,5.13-.77,10.19-2,16.08-3.2,0,11.35,0,22,0,32.6,0,7.17-.07,14.33,0,21.5,0,4-1.92,5.89-5.78,5.92-5.25,0-10.49,0-15.74,0a110.23,110.23,0,0,0,93.33,51.48h60.25V116.71A110.29,110.29,0,0,0,394,6.41ZM348.82,25.66a5.75,5.75,0,1,1,5.74-5.74A5.74,5.74,0,0,1,348.82,25.66Zm63.07,95.17c0,16.62,0,33.24-.14,49.86-.08,8.71-4.23,15.17-11.76,19.47-9.29,5.32-24.23,4.09-32.6-2.61a27.94,27.94,0,0,0-3.42-2.06l1-1.35c2.73.39,5.44.85,8.18,1.16a40.85,40.85,0,0,0,6.05.35c9.81-.34,15.28-5.77,15.35-15.58q.18-27.78,0-55.55c0-3.37,1-4.88,4.33-5.37,4.2-.62,8.32-1.71,13-2.71C411.89,111.7,411.9,116.26,411.89,120.83Zm24.5,92.51c-10.43-1.85-15.66-7.93-15.73-19.06-.14-22.37-.05-44.74-.06-67.11,0-28.45.11-15.78-.11-44.23,0-4.32,1.51-6.07,5.44-6.8,5.42-1,10.77-2.29,17.09-3.66V188.42c0,2,0,3.94.11,5.9.32,4.93,2.84,7.61,7.94,7.3,4.06-.25,8.11-.69,12.66-1.09C460.12,209.61,447.54,215.32,436.39,213.34ZM460,59.75a6.34,6.34,0,0,1-4.36,2.17c-16.44.15-32.87.09-50.84.09,2.22-3.86,3.28-7.6,5.76-9.5s6.39-2,10.14-3c1.55-10.42,2.33-22.29,16.24-25.11,6.63-1.34,13.11-.28,18.12,7.12-3.48-.45-6-.91-8.48-1.06-8.38-.52-13.72,5.91-11.16,13.93a7.79,7.79,0,0,0,5.05,4.53c6,.94,12.06,1,18.1,1.38,1.9.11,3.82,0,7.1,0C463.35,54.34,462,57.26,460,59.75Zm31.13,156A5.75,5.75,0,1,1,496.9,210,5.75,5.75,0,0,1,491.16,215.77Z"/><polygon class="cls-2" points="342.58 155.35 350.42 171.31 342.29 154.77 342.58 155.35"/><path class="cls-2" d="M350.75,172h0l0-.06Z"/><path class="cls-3" d="M342.58,155.35l-.29-.58L340.93,152h-.09c-1.71.06-2.72,0-5,.14-3.27.16-4.14-1.29-3.94-4.27.24-3.33.21-6.69.22-10,0-8.38,0-16.76,0-26.21-6.08,1.38-11.24,2.72-16.48,3.67-3,.55-3.68,2.08-3.65,4.9.1,9.07-.16,18.15-.07,27.23,0,3.21-.95,4.67-4.36,4.48a95.09,95.09,0,0,0-11.45,0c-3.68.24-4.6-1.32-4.56-4.76.13-10,0-20.06-.1-30.09,0-1.52,0-3,0-5.1-5.88,1.18-11,2.31-16.13,3.19-3.1.53-4.16,2.07-4.08,5.2.23,9.07,0,18.15.31,27.22.12,3.67-1.2,4.66-4.66,4.57-9.85-.24-19.72-.43-29.57-.18-4.49.11-6.12-1.07-6-5.81.34-11.11.11-22.24.11-34.27-6.1,1.3-11.2,2.45-16.32,3.43-2.77.54-3.95,1.79-3.91,4.82.15,9.07-.21,18.15,0,27.22.08,3.64-1.2,4.73-4.63,4.67-7.15-.13-14.3-.08-21.45.08-13.45.32-13.45.38-13-13.22,0-.31,0-.63,0-.95-.23-10.64.46-21.4-.91-31.88-2-15.15-16-25.63-30.95-24.6a30.07,30.07,0,0,0-27.89,28.26c-.84,16.15,9.33,29.37,24.84,31.67,4.58.67,9.34.1,14,.1,1.42,10.38,1.42,10.36-8.37,10.38q-57.53.11-115,.26c-1.69,0-4.24-.08-4.91.89-4.06,5.9-7.7,12.09-11.84,18.77,2.16.15,3.09.27,4,.27q68.52,0,137,0,99.14,0,198.25-.13h0a2.53,2.53,0,0,0,0-.27,2.45,2.45,0,0,0,0-.27v-.1ZM142.22,122.08a10.36,10.36,0,1,1-.2-20.72c5.5,0,10.57,4.88,10.62,10.25S147.71,122,142.22,122.08Z"/><path d="M350.74,172h-.36a7.33,7.33,0,0,0,0-.54.28.28,0,0,0,0-.09l.27.54,0,0Z"/><path class="cls-4" d="M180.27,202.38c-.07-6.71,4.52-11.54,11.08-11.68,6.82-.15,11.94,4.67,12.05,11.32a11.32,11.32,0,0,1-11.69,11.71A11,11,0,0,1,180.27,202.38Z"/><path class="cls-5" d="M283.94,87.8c0-5.8,3.81-9.64,9.45-9.59s9.36,4.07,9.28,9.85a9.12,9.12,0,0,1-9.34,9A9,9,0,0,1,283.94,87.8Z"/><path class="cls-6" d="M322,78.09a9.07,9.07,0,0,1,9.25,9.46,9.26,9.26,0,0,1-9.45,9.38,9.46,9.46,0,0,1-9.51-9.78A9.27,9.27,0,0,1,322,78.09Z"/><path class="cls-7" d="M237.94,202.22a11.4,11.4,0,1,1-22.8,0,11.07,11.07,0,0,1,11.42-11.4A11,11,0,0,1,237.94,202.22Z"/><path class="cls-8" d="M141.4,65.17a11.42,11.42,0,1,1-.14-22.83,11.06,11.06,0,0,1,11.51,11.37A11,11,0,0,1,141.4,65.17Z"/><path class="cls-9" d="M297.22,63.23c-.07-5.81,3.38-9.43,9-9.47s9.83,4,9.82,9.36a9.42,9.42,0,0,1-18.83.11Z"/></svg>