<svg id="Layer_1" data-name="Layer 1" xmlns="http://www.w3.org/2000/svg" viewBox="0 0 33.19 8"><defs><style>.cls-1{fill:#f9f9f9;}</style></defs><path class="cls-1" d="M1,1.09H3.14A2.84,2.84,0,0,1,6.14,4a2.82,2.82,0,0,1-3,2.89H1ZM3.12,6.15A2,2,0,0,0,5.26,4,2.06,2.06,0,0,0,3.12,1.85H1.81v4.3Z"/><path class="cls-1" d="M7,1.09H9.63c1.07,0,1.81.61,1.81,1.51a1.41,1.41,0,0,1-.87,1.26,1.53,1.53,0,0,1,1.09,1.43A1.69,1.69,0,0,1,9.77,6.91H7ZM9.63,3.53a.84.84,0,0,0,.93-.85.85.85,0,0,0-.93-.86H7.86V3.53Zm.14,2.65a.94.94,0,0,0,1-1,.94.94,0,0,0-1-1H7.86V6.18Z"/><path class="cls-1" d="M12.53,1.09h2.4A1.88,1.88,0,0,1,17,3a1.88,1.88,0,0,1-2,1.89H13.38v2h-.85Zm2.4,3A1.09,1.09,0,0,0,16.08,3a1.09,1.09,0,0,0-1.15-1.13H13.38V4.11Z"/><path class="cls-1" d="M17.69,1.09h2.17a2.85,2.85,0,0,1,3,2.93,2.83,2.83,0,0,1-3,2.89H17.69Zm2.15,5.46A2.46,2.46,0,0,0,22.46,4a2.48,2.48,0,0,0-2.62-2.57H18.08v5.1Z"/><path class="cls-1" d="M23.51,4.83h.4a1.6,1.6,0,0,0,1.57,1.8,1.22,1.22,0,0,0,1.36-1.17c0-.82-.63-1-1.53-1.35S23.7,3.37,23.7,2.46A1.47,1.47,0,0,1,25.31,1a1.71,1.71,0,0,1,1.74,1.88h-.4A1.36,1.36,0,0,0,25.3,1.37a1.1,1.1,0,0,0-1.2,1.09c0,.73.51,1,1.35,1.31,1.06.37,1.79.68,1.79,1.66A1.59,1.59,0,0,1,25.48,7,2,2,0,0,1,23.51,4.83Z"/><path class="cls-1" d="M28.18,1.09h4v.36H28.57V3.72h3.22v.35H28.57V6.55h3.66v.36h-4Z"/></svg>