<svg version="1.2" xmlns="http://www.w3.org/2000/svg" viewBox="0 0 437 380" width="437" height="380">
	<title>6409671</title>
	<defs>
		<linearGradient id="g1" x2="1" gradientUnits="userSpaceOnUse" gradientTransform="matrix(322.602,0,0,176.59,41.699,171.081)">
			<stop offset="0" stop-color="#82b1ff"/>
			<stop offset="1" stop-color="#1565c0"/>
		</linearGradient>
		<linearGradient id="g2" x2="1" gradientUnits="userSpaceOnUse" gradientTransform="matrix(322.602,0,0,176.59,41.699,98.239)">
			<stop offset="0" stop-color="#82b1ff"/>
			<stop offset="1" stop-color="#1565c0"/>
		</linearGradient>
		<linearGradient id="g3" x2="1" gradientUnits="userSpaceOnUse" gradientTransform="matrix(322.602,0,0,176.59,41.699,25.396)">
			<stop offset="0" stop-color="#82b1ff"/>
			<stop offset="1" stop-color="#1565c0"/>
		</linearGradient>
	</defs>
	<style>
		.s0 { fill: url(#g1) } 
		.s1 { fill: #263238 } 
		.s2 { fill: url(#g2) } 
		.s3 { fill: url(#g3) } 
		.s4 { fill: #37474f } 
		.s5 { opacity: .31;mix-blend-mode: multiply;fill: #1565c0 } 
		.s6 { fill: none;stroke: #ffffff;stroke-miterlimit:10;stroke-width: 7.2 } 
		.s7 { fill: #ffffff } 
	</style>
	<g id="BACKGROUND">
	</g>
	<g id="OBJECTS">
		<g id="&lt;Group&gt;">
			<g id="&lt;Group&gt;">
			</g>
			<g id="&lt;Group&gt;">
				<g id="&lt;Group&gt;">
					<path id="&lt;Path&gt;" class="s0" d="m186 174.4l-136.4 55.5c-4.8 1.9-7.9 6.5-7.9 11.7v35.6c0 5.2 3.1 9.8 7.9 11.8l136.4 55.4c10.9 4.4 23.1 4.4 34 0l136.4-55.4c4.8-2 7.9-6.6 7.9-11.8v-35.6c0-5.2-3.1-9.8-7.9-11.7l-136.4-55.5c-10.9-4.4-23.1-4.4-34 0z"/>
					<path id="&lt;Path&gt;" class="s1" d="m363.4 237.1c-1.2-3.2-3.7-5.9-7-7.2l-136.4-55.5c-10.9-4.4-23.1-4.4-34 0l-136.4 55.5c-3.3 1.3-5.8 4-7 7.2 1.2 3.2 3.7 5.8 7 7.2l132.8 53.9c13.2 5.3 28 5.3 41.2 0l132.8-53.9c3.3-1.4 5.8-4 7-7.2z"/>
					<path id="&lt;Path&gt;" class="s2" d="m186 101.6l-136.4 55.4c-4.8 2-7.9 6.6-7.9 11.8v35.6c0 5.2 3.1 9.8 7.9 11.7l136.4 55.4c10.9 4.4 23.1 4.4 34 0l136.4-55.4c4.8-1.9 7.9-6.5 7.9-11.7v-35.6c0-5.2-3.1-9.8-7.9-11.8l-136.4-55.4c-10.9-4.5-23.1-4.5-34 0z"/>
					<path id="&lt;Path&gt;" class="s1" d="m363.4 164.2c-1.2-3.2-3.7-5.8-7-7.2l-136.4-55.4c-10.9-4.5-23.1-4.5-34 0l-136.4 55.4c-3.3 1.4-5.8 4-7 7.2 1.2 3.2 3.7 5.9 7 7.2l132.8 53.9c13.2 5.4 28 5.4 41.2 0l132.8-53.9c3.3-1.3 5.8-4 7-7.2z"/>
					<path id="&lt;Path&gt;" class="s3" d="m186 28.7l-136.4 55.5c-4.8 1.9-7.9 6.6-7.9 11.7v35.7c0 5.1 3.1 9.8 7.9 11.7l136.4 55.4c10.9 4.4 23.1 4.4 34 0l136.4-55.4c4.8-1.9 7.9-6.6 7.9-11.7v-35.7c0-5.1-3.1-9.8-7.9-11.7l-136.4-55.5c-10.9-4.4-23.1-4.4-34 0z"/>
					<path id="&lt;Path&gt;" class="s1" d="m363.4 91.4c-1.2-3.2-3.7-5.9-7-7.2l-136.4-55.5c-10.9-4.4-23.1-4.4-34 0l-136.4 55.5c-3.3 1.3-5.8 4-7 7.2 1.2 3.2 3.7 5.8 7 7.2l132.8 53.9c13.2 5.3 28 5.3 41.2 0l132.8-53.9c3.3-1.4 5.8-4 7-7.2z"/>
					<path id="&lt;Path&gt;" class="s4" d="m68.5 103.6l68.3-27.8c54.5-22.2 115.6-22.2 170.2 0l52.1 21.2c2-1.4 3.5-3.4 4.3-5.6-1.2-3.2-3.7-5.9-7-7.2l-136.4-55.5c-10.9-4.4-23.1-4.4-34 0l-136.4 55.5c-3.3 1.3-5.8 4-7 7.2 1.2 3.2 3.7 5.8 7 7.2l16.2 6.5c0.8-0.6 1.7-1.1 2.7-1.5z"/>
					<path id="&lt;Path&gt;" class="s5" d="m364.3 241.6c0-1.6-0.3-3.1-0.9-4.5-5.5 35.2-41.2 60.9-67.9 76.6l60.9-24.7c4.8-2 7.9-6.6 7.9-11.8z"/>
					<path id="&lt;Path&gt;" class="s5" d="m364.3 168.7c0-1.5-0.3-3.1-0.9-4.5-5.5 35.3-41.2 61-67.9 76.7l60.9-24.8c4.8-1.9 7.9-6.6 7.9-11.7z"/>
					<path id="&lt;Path&gt;" class="s5" d="m364.3 95.9c0-1.5-0.3-3.1-0.9-4.5-5.5 35.3-41.2 61-67.9 76.7l60.9-24.8c4.8-1.9 7.9-6.6 7.9-11.7z"/>
				</g>
				<g id="&lt;Group&gt;">
					<path id="&lt;Path&gt;" class="s6" d="m214.7 104.6l52.2 21.2c7.7 3.2 12.8 10.7 12.8 19.1v169.7c0 14.7 14.9 24.6 28.5 19l88.1-36.6"/>
					<g id="&lt;Group&gt;">
						<path id="&lt;Path&gt;" class="s7" d="m226.5 97.8c6.6 3.8 6.6 9.9 0.1 13.7-6.5 3.8-17.1 3.8-23.7 0-6.6-3.8-6.6-9.9-0.1-13.7 6.5-3.8 17.2-3.8 23.7 0z"/>
					</g>
					<g id="&lt;Group&gt;">
						<path id="&lt;Path&gt;" class="s7" d="m410.5 286.9c6.6 3.8 6.6 9.9 0.1 13.7-6.5 3.8-17.2 3.8-23.7 0-6.6-3.8-6.6-9.9-0.1-13.7 6.5-3.8 17.1-3.8 23.7 0z"/>
					</g>
				</g>
			</g>
		</g>
	</g>
</svg>