<svg id="Layer_1" data-name="Layer 1" xmlns="http://www.w3.org/2000/svg" viewBox="0 0 28.38 8"><defs><style>.cls-1{fill:#f9f9f9;}</style></defs><path class="cls-1" d="M.44,1.09H2.62A2.84,2.84,0,0,1,5.62,4a2.82,2.82,0,0,1-3,2.89H.44ZM2.59,6.15A2,2,0,0,0,4.74,4,2.06,2.06,0,0,0,2.59,1.85H1.29v4.3Z"/><path class="cls-1" d="M6.49,1.09H9.1c1.07,0,1.82.61,1.82,1.51a1.42,1.42,0,0,1-.87,1.26,1.53,1.53,0,0,1,1.09,1.43A1.69,1.69,0,0,1,9.25,6.91H6.49ZM9.1,3.53A.85.85,0,0,0,10,2.68a.86.86,0,0,0-.94-.86H7.34V3.53Zm.15,2.65a.94.94,0,0,0,1-1,.93.93,0,0,0-1-1H7.34V6.18Z"/><path class="cls-1" d="M12,1.09h2.4a1.88,1.88,0,0,1,2,1.89,1.88,1.88,0,0,1-2,1.89H12.86v2H12Zm2.4,3A1.09,1.09,0,0,0,15.56,3a1.09,1.09,0,0,0-1.15-1.13H12.86V4.11Z"/><path class="cls-1" d="M17.17,1.09h2.17a2.85,2.85,0,0,1,3,2.93,2.82,2.82,0,0,1-3,2.89H17.17Zm2.15,5.47A2.47,2.47,0,0,0,21.94,4a2.49,2.49,0,0,0-2.62-2.58H17.56V6.56Z"/><path class="cls-1" d="M23.22,1.09h.39V3.77h3.93V1.09h.4V6.91h-.4V4.12H23.61V6.91h-.39Z"/></svg>