<svg xmlns="http://www.w3.org/2000/svg" width="333" height="89" fill="none"><path fill="#fff" fill-rule="evenodd" d="M284.634.012c-2.801.187-5.306.583-8.434 1.333-5.378 1.288-9.711 3.139-14.145 6.04-5.387 3.526-9.307 7.356-12.942 12.647-1.876 2.73-3.629 6.097-4.71 9.049-1.343 3.667-2.304 7.879-2.691 11.796-.118 1.197-.118 6.056 0 7.253.468 4.74 1.722 9.685 3.496 13.788 2.315 5.351 6.208 10.838 10.487 14.778 4.75 4.374 10.441 7.8 16.178 9.736a53.803 53.803 0 0 0 11.013 2.418c1.239.134 1.703.15 4.426.15s3.186-.016 4.425-.15c2.344-.253 4.058-.558 6.686-1.187 5.378-1.289 9.711-3.14 14.145-6.041 5.388-3.526 9.307-7.356 12.942-12.647 1.876-2.73 3.629-6.097 4.71-9.048 1.343-3.667 2.304-7.88 2.691-11.797.119-1.197.119-6.056 0-7.253-.468-4.74-1.722-9.685-3.496-13.788-2.655-6.14-7.135-12.099-12.318-16.385-4.376-3.62-9.367-6.447-14.347-8.128-2.598-.877-5.785-1.654-8.661-2.113-2.216-.353-3.4-.438-6.348-.457-1.509-.01-2.907-.007-3.107.006Zm.638 2.643c-14.401.645-27.566 8.332-34.966 20.416-3.437 5.613-5.412 11.745-5.945 18.46-.168 2.12-.09 5.507.18 7.808 1.634 13.91 10.403 26.159 23.299 32.542 7.932 3.927 17.065 5.35 25.951 4.044 15.091-2.217 27.875-12.107 33.547-25.953 1.598-3.904 2.573-8.065 2.924-12.495.104-1.304.104-4.643 0-5.946-.533-6.715-2.508-12.847-5.945-18.46-5.354-8.743-13.933-15.393-23.807-18.454a44.158 44.158 0 0 0-15.238-1.962Zm-1.002 3.009c-13.545 1.01-25.527 8.553-32.098 20.209-2.73 4.843-4.371 10.33-4.766 15.942-.103 1.452-.045 5.223.1 6.544.853 7.788 3.862 14.78 8.985 20.878 1.022 1.216 3.635 3.799 4.87 4.813 3.382 2.779 6.937 4.885 10.86 6.433 12.374 4.884 26.422 3.453 37.437-3.813 2.223-1.467 4.024-2.938 6.056-4.945 2.147-2.123 3.521-3.78 5.123-6.18 3.525-5.282 5.566-11.028 6.257-17.61.117-1.107.116-5.74 0-6.927-1.028-10.477-6.087-19.836-14.318-26.488-6.43-5.197-14.224-8.25-22.621-8.861-1.071-.078-4.817-.075-5.885.005Zm.132 1.044c-3.824.28-7.243 1.003-10.665 2.259-5.106 1.872-9.547 4.58-13.302 8.109-3.463 3.254-5.919 6.483-7.954 10.454-2.213 4.32-3.379 8.235-3.927 13.184-.168 1.52-.168 5.956 0 7.482.339 3.082.894 5.615 1.806 8.248 3.654 10.55 11.789 18.948 22.406 23.133 6.596 2.6 13.892 3.348 21.19 2.171 5.891-.95 12.034-3.558 16.882-7.17 5.109-3.806 9.201-8.777 11.802-14.333 1.872-3.999 2.868-7.58 3.362-12.082.146-1.335.167-5.736.033-7.09-.488-4.95-1.705-9.131-3.916-13.46-1.822-3.566-3.955-6.5-6.838-9.402-4.192-4.22-8.79-7.16-14.465-9.247-3.432-1.262-6.863-1.98-10.794-2.261-1.068-.076-4.551-.073-5.62.005Zm-124.717 1.55c-.42.426-1.794 1.934-3.57 3.92-.938 1.047-1.504 1.632-1.554 1.602-.043-.025-1.016-.694-2.161-1.485-2.131-1.473-3.481-2.357-3.761-2.465a.513.513 0 0 0-.284-.02c-.113.035-2.017 2.07-4.123 4.406-1.576 1.75-2.024 2.287-2.002 2.402.06.305 4.106 3.334 5.853 4.381.423.253.631.34.777.327.17-.017.598-.457 2.919-3.002l2.72-2.982.455.362c1.428 1.135 4.751 3.42 5.361 3.688.158.069.344.107.414.085.11-.034 5.419-5.813 6.001-6.531.118-.146.215-.327.215-.402.001-.236-.8-.818-4.231-3.079-1.889-1.244-2.357-1.522-2.572-1.522-.089 0-.269.124-.457.315ZM291.249 9.69c-.259.278-.484.565-.5.637-.016.073-.105.735-.197 1.472-.249 2.001-.348 2.477-.559 2.685-.354.35-1.067.302-1.513-.104l-.243-.22-.003-1.099c-.004-1.242-.006-1.262-.094-1.262-.124 0-.286.336-.466.966-.247.865-.438 1.319-.648 1.54-.278.292-1.035.7-2.253 1.216-1.731.732-1.785.871-.351.907 1.278.031 1.697-.078 2.592-.677.2-.133.429-.243.509-.243.08 0 .263.091.407.204.565.442 1.13.519 1.711.232 1.033-.508 1.647-2.035 2.129-5.289.164-1.102.174-1.47.043-1.47-.051 0-.305.227-.564.505Zm3.169.071c-.39.248-.482.358-.719.863-.256.543-.47 1.288-.726 2.514-.33 1.59-.47 2.477-.401 2.546.04.04.174-.045.365-.229.426-.41.891-1.378 1.177-2.447.397-1.491.783-3.066.792-3.233.013-.23-.14-.234-.488-.014Zm-10.88.202a16.43 16.43 0 0 0-1.738 1.378c-.361.345-.747 1.14-.94 1.933-.259 1.062-.32 1.243-.511 1.502-.104.142-.271.3-.372.354-.166.087-.191.085-.27-.022-.048-.065-.107-.27-.131-.455-.059-.453-.252-.84-.488-.977-.369-.215-1.272-.108-1.606.191-.194.174-.826 1.496-.909 1.905-.04.19-.072.493-.072.674 0 .18-.03.384-.067.453-.097.178-.759.607-1.259.815-.234.098-.768.346-1.186.553a40.835 40.835 0 0 1-3.399 1.478c-.506.192-.993.416-1.081.498-.232.214-.487.75-.801 1.687-.151.45-.393 1.02-.538 1.265-.271.458-1.034 1.453-1.683 2.193-.46.524-.864 1.1-.809 1.154.077.077 2.317-1.212 2.561-1.473.417-.449.725-1.24 1.023-2.635.08-.377.154-.551.291-.686.113-.112.683-.39 1.499-.731 2.34-.98 4.034-1.853 5.857-3.02.825-.529 1.338-.797 2.576-1.349.762-.34 1.23-.858 1.537-1.701.303-.833.336-.86 1.122-.928.462-.04.541-.068.724-.249.179-.176.209-.256.228-.613.023-.41 0-.48-.273-.862-.175-.245-.089-.395.496-.864.563-.451.773-.8.801-1.329.023-.461-.066-.482-.582-.14Zm-6.188.913a3.213 3.213 0 0 0-.272.4l-.118.214-.444-.046a36.788 36.788 0 0 0-.6-.058c-.141-.01-.179.052-.385.637l-.23.65.154.119c.31.24.966.523 1.107.479.076-.024.231-.181.345-.35.31-.455.342-.47.887-.425l.479.04.188-.259c.104-.142.261-.41.349-.596.155-.328.156-.342.039-.47-.18-.197-.884-.523-1.129-.523-.157 0-.257.05-.37.188Zm7.49.723c-.178.41-.184.81-.013.979.206.203.26.348.327.88.067.533.147.693.347.693.152 0 .495-.455.598-.792.068-.227.06-.268-.097-.471-.143-.185-.175-.305-.192-.702l-.019-.48-.286-.215c-.395-.297-.496-.28-.665.107Zm14.439.406c-.231.126-.562.469-.562.583 0 .16.427 1.06.553 1.164.112.091.265.078.758-.069l.287-.085.392.407c.215.224.438.408.494.408.281 0 .738-.394.791-.682.043-.228-.098-.671-.303-.956-.16-.222-.356-.245-.793-.093-.367.128-.479.087-.7-.259-.278-.434-.609-.585-.917-.418Zm-220.302.167c-.2.048-.362.215-.528.542-.294.577-3.33 7.617-3.397 7.874-.144.56-.328 3.026-.9 12.023-.842 13.253-.907 15.05-.641 17.545.232 2.178.524 3.35 1.16 4.656 1.328 2.73 3.594 4.48 6.554 5.06.82.161 3.094.16 4-.001 1.759-.314 3.235-.948 4.661-2.002 1.104-.815 2.023-1.757 3.535-3.62.57-.703.737-.866 1.02-.996.607-.28 1.448-.197 2.463.24.472.203.473.204.62.606.484 1.32 1.47 2.782 2.494 3.7 1.784 1.598 3.843 2.314 6.333 2.204 1.777-.079 3.11-.51 4.573-1.477 2.214-1.463 3.975-3.958 5.519-7.815.477-1.193 2.001-5.67 2.235-6.567.999-3.825 1.255-7.172 1.392-18.198.064-5.187.064-5.189.426-7.057.33-1.705.293-2.534-.122-2.72-.728-.328-1.521 1.004-2.902 4.876-.692 1.942-1.661 4.91-2.132 6.534-.827 2.85-1.092 5.286-.962 8.822.139 3.76.204 7.753.137 8.331-.13 1.119-.618 2.352-1.335 3.377-.932 1.333-2.424 2.42-3.794 2.767-.578.146-1.586.174-2.157.06-.52-.105-1.243-.333-1.243-.393 0-.029.374-.614.831-1.301.457-.687.874-1.35.926-1.472.122-.29.12-1.187-.004-1.708-.337-1.411-1.507-3.218-3.205-4.947-1.596-1.625-2.532-2.153-3.071-1.734-.231.18-.572.69-1.94 2.901l-1.133 1.83-.45.188c-.785.329-1.675.82-2.195 1.211-.277.209-1.277 1.02-2.223 1.801-.945.783-1.927 1.562-2.182 1.733-1.7 1.137-3.753 1.706-6.156 1.704-1.16 0-2.078-.113-2.757-.338a5.203 5.203 0 0 1-2.722-2.047c-.346-.515-.886-1.66-1.113-2.357-.276-.852-.5-2.873-.549-4.966-.035-1.468 0-2.143.53-10.488 1.056-16.588 1.113-17.955.762-18.302-.07-.07-.15-.122-.176-.118-.028.004-.11.022-.182.04Zm55.384.39c-.464.227-1.172 1.304-1.817 2.766-.936 2.122-2.334 6.273-2.961 8.788-.389 1.562-.39 1.58-.391 6.339-.002 8.003-.146 17.457-.335 21.993-.079 1.895-.056 2.122.244 2.475.136.16.221.2.428.2.424 0 .678-.326 1.441-1.851 1.589-3.176 2.461-6.008 3.012-9.784.515-3.538.595-6.388.362-12.903-.185-5.157.188-13.61.711-16.14a7.06 7.06 0 0 0 .115-1.12c.005-.5-.014-.619-.12-.735-.15-.164-.388-.174-.689-.028Zm55.296.013c-.629.387-1.352 1.628-2.236 3.833a68.005 68.005 0 0 0-2.419 7.349c-.475 1.823-.469 1.756-.47 5.316-.002 7.503-.152 17.769-.337 23.01-.083 2.34-.062 2.584.24 2.883a.528.528 0 0 0 .392.156c.412 0 .69-.328 1.319-1.56 2.107-4.123 3.132-8.083 3.553-13.73.099-1.32.097-5.845-.002-8.267-.221-5.382.086-13.74.616-16.793.226-1.298.255-1.618.172-1.921-.11-.405-.441-.515-.828-.276Zm12.42.053c-.378.336-5.703 6.212-5.865 6.474-.028.045-.033.139-.011.209.124.384 5.734 4.418 6.322 4.545.153.034.249.013.364-.076.221-.171 5.757-6.277 5.957-6.57.102-.15.148-.288.123-.366-.051-.16-.778-.693-2.88-2.112-2.483-1.677-3.344-2.218-3.586-2.255-.172-.027-.258.004-.424.15Zm75.702 2.468c-.265.114-.434.365-.406.603.017.153.056.187.23.204.246.024.902-.283 1.135-.53l.153-.162-.151-.105c-.186-.129-.673-.134-.961-.01Zm21.644.033a1.171 1.171 0 0 0-.43.19 3.069 3.069 0 0 1-.508.297c-.378.176-.958.658-.958.795 0 .118.18.117.76-.004a6.26 6.26 0 0 1 1.044-.098c.722-.002.864.064 1.681.78l.609.534.845-.068c.465-.036.95-.102 1.077-.145.335-.113.853-.457 1.154-.768.357-.368.273-.44-.368-.31-.269.054-.699.118-.956.142-.573.054-.663.014-1.368-.619-.282-.253-.606-.507-.719-.565-.113-.058-.477-.13-.809-.163-.678-.065-.704-.065-1.054.002ZM66.235 16.213c-.428.23-1.047 1.32-1.736 3.056-.819 2.063-2.725 7.876-3.11 9.487-.57 2.376-.762 4.685-.636 7.645.04.934.093 3.184.117 5 .049 3.608.04 3.74-.322 4.769-.677 1.919-2.027 3.46-3.787 4.32-.774.378-1.35.513-2.2.514-2.45.005-4.791-1.611-6.057-4.18l-.338-.687.022-.904.023-.905-.32.18c-.7.396-1.399.947-2.13 1.684-1.046 1.054-2.294 2.132-3.014 2.604-1.583 1.037-3.73 1.77-5.915 2.017-.426.048-1.16.066-1.918.045-1.023-.029-1.332-.061-1.855-.198-1.084-.281-1.7-.61-2.397-1.279l-.38-.364v-.807l-.314-.056c-.306-.055-.321-.07-.56-.514-.216-.404-.633-1.569-.744-2.08-.022-.1-.066-.174-.097-.162-.031.011-.6.506-1.264 1.099l-1.208 1.078-1.89.003c-2.46.005-3.499.157-5.395.793-3.202 1.073-6.04 3.178-8.696 6.45-1.527 1.881-2.864 4.094-4.333 7.171-.786 1.648-.959 2.121-.997 2.736-.04.624.046.809.386.837.21.017.28-.018.528-.263.157-.155.494-.532.748-.837 1.313-1.574 3.388-3.68 4.463-4.532 1.428-1.13 3.687-2.428 4.662-2.68.73-.187 1.512-.236 2.702-.17.961.055 4.164.393 4.671.493.147.03.275-.086 1.058-.949 1.04-1.145 1.376-1.4 2.095-1.582.502-.128.528-.129 1.044-.016.291.063.618.159.727.212.229.111 1.96 1.247 2.564 1.68.224.162.428.286.453.277.025-.01.386-.4.802-.867 2.063-2.317 2.21-2.444 3.047-2.651.554-.138.577-.138 1.082-.028.283.062.633.172.777.244.299.15 2.625 1.678 3.824 2.511.444.309.84.574.882.59.093.035 1.345-.95 2.206-1.737l.641-.587.192.404c.302.637 1.038 1.685 1.59 2.265a9.47 9.47 0 0 0 2.551 1.861c1.267.617 2.59.87 4.183.8 2.511-.11 4.302-.916 6.183-2.785 1.246-1.237 1.982-2.298 2.974-4.285.832-1.665 1.329-2.956 2.503-6.502 1.565-4.724 1.88-7.295 2.06-16.76.034-1.87.064-4.364.065-5.543 0-2.48.06-3.267.371-4.978.125-.683.245-1.436.267-1.674.101-1.068-.248-1.586-.85-1.263Zm232.984 1.962c-.142.051-.361.17-.486.265-.198.15-.222.197-.187.374.061.302.579 1.16.744 1.235.114.051.21.029.455-.107.171-.094.346-.171.39-.171.043 0 .197.13.342.29.349.383.535.425.916.204.508-.294.58-.59.285-1.17-.12-.236-.142-.25-.371-.219a4.162 4.162 0 0 0-.527.119c-.355.107-.441.059-.713-.4-.113-.189-.276-.383-.364-.431-.191-.105-.164-.105-.484.01Zm11.758.017c-.148.068-.46.294-.694.501-.234.208-.552.434-.706.502-.155.069-.281.151-.281.184 0 .306 1.764.316 2.178.013.093-.068.246-.267.34-.441.131-.241.223-.332.381-.372.241-.062.264-.175.071-.348-.203-.182-.933-.204-1.289-.04Zm-24.028.434c-.058.069-.095.738-.132 2.368-.029 1.25-.073 2.324-.1 2.387-.121.288-.316-.006-.703-1.06-.332-.9-.62-1.527-.754-1.637-.077-.063-.119-.062-.204.008-.145.119-.096.54.171 1.464.114.395.225.917.246 1.16.034.381.025.44-.069.44-.224 0-.515-.4-1.655-2.286-.726-1.2-1.087-1.7-1.23-1.7-.034 0-.093.058-.131.128-.096.177.067.563.859 2.03.764 1.415 1.087 2.082 1.033 2.135-.065.064-.305-.125-1.134-.893-.856-.794-1.157-.99-1.342-.874-.271.169-.124.438.781 1.428.793.867 1.048 1.36.638 1.236-.197-.06-1.175-.658-2.126-1.3-1.06-.717-1.781-1.14-2.019-1.188-.5-.098-.079.345 1.745 1.84 1.324 1.084 1.629 1.366 1.629 1.505 0 .157-.247.114-1.157-.204-1.894-.66-2.083-.698-2.083-.418 0 .219.27.41 1.391.985.58.297 1.12.61 1.199.693l.144.151h-.305c-.45 0-1.117-.153-2.592-.597-1.761-.528-2.135-.605-2.333-.476-.119.077-.137.123-.085.218.081.15-.026.107 1.92.758 2.089.699 2.985 1.099 2.871 1.282-.055.087-.787.065-1.449-.042-.755-.123-1.488-.127-1.651-.009-.282.203.103.462.803.54.371.042.829.216.911.348.059.094-.193.205-1.791.79l-1.446.53-.926-.469c-1.118-.566-1.37-.615-1.874-.362-.784.393-2.384 1.54-3.54 2.54-.331.286-.778.634-.993.773-.356.23-.43.253-.838.253-.611 0-.749.123-1.152 1.03-.474 1.063-.849 2.263-1.15 3.675-.364 1.706-.456 2.074-.603 2.401-.256.574-.269.353-.093-1.552.181-1.969.212-2.083.951-3.594 1.011-2.066 1.397-3.327 1.387-4.533-.008-.84-.02-.846-.6-.256-.685.695-1.338 1.702-1.709 2.63-.181.456-.247.946-.331 2.453-.17 3.07-.443 5.165-.657 5.035-.226-.138-.117-1.92.202-3.299.149-.642.205-1.048.205-1.474-.001-.633-.194-1.642-.384-2.004l-.113-.215-.106.156c-.194.286-.479 1.072-.707 1.951-.181.698-.225.994-.225 1.503.001 1.188.264 2.412.738 3.434.354.763.417 1.274.329 2.69-.037.59-.096 1.125-.132 1.189-.071.124-.06.149-.168-.373-.018-.09-.081-.634-.139-1.209-.232-2.313-.65-4.254-.99-4.598-.128-.13-.26.102-.423.743-.343 1.349-.438 2.892-.248 4.035.046.279.077.507.07.507-.008 0-.144-.198-.303-.44l-.288-.438-.036.227c-.08.5-.062 1.887.031 2.487.21 1.349.73 2.281 2.162 3.873.277.309.557.67.621.804.129.27.357 1.469.36 1.9.004.536-.163.337-.932-1.11-.855-1.609-1.902-3.084-2.102-2.961-.181.11-.003 1.188.362 2.192.257.706.55 1.25 1.075 1.997.643.915 1.046 1.33 1.941 1.997.749.56.785.597 1.138 1.216.385.673 1.453 2.822 1.527 3.072.082.277-.122.156-.66-.392-.647-.658-1.546-1.831-2.243-2.924-.286-.45-.662-.993-.834-1.209-.461-.575-1.217-1.274-1.379-1.274-.076 0-.139.014-.139.03 0 .3 1.43 3.25 1.95 4.021.813 1.206 1.544 1.927 2.614 2.576.302.183.544.362.539.398-.004.035-.239.144-.521.24-.473.163-.681.307-.681.471 0 .037.176.235.391.442.574.551.853.619 2.188.529.772-.053 1.037-.051 1.075.006.375.567.617 1.023.9 1.69.596 1.407.884 1.887 1.041 1.732.026-.025.059-.2.072-.39.029-.39-.205-1.102-.74-2.255-.171-.37-.327-.783-.345-.92-.032-.23-.01-.273.264-.526.163-.152.392-.451.507-.665.191-.354.333-.451.333-.227 0 .048.056.154.123.237l.124.15.076-.14c.041-.077.093-.428.115-.78.021-.352.078-.713.126-.803.048-.09.302-.399.565-.686 1.048-1.147 1.935-2.375 2.317-3.208.11-.24.244-.662.297-.935.134-.693.192-2.016.098-2.252-.07-.176-.083-.181-.222-.09-.427.278-1.371 1.997-1.739 3.163-.471 1.498-1.086 2.93-1.235 2.88-.117-.038-.184-.36-.19-.913-.006-.553.063-.736.701-1.847.412-.717.59-1.307.548-1.82-.082-1.004-1.23-3.506-1.609-3.506-.144 0-.183.29-.136 1.006.047.692.092.945.43 2.4.276 1.192.269 2.083-.016 2.083-.197 0-.505-1.163-.505-1.908-.002-1.318-.54-2.587-1.703-4.019-.528-.65-.936-1.092-.973-1.056-.051.051.103 1.383.238 2.048.253 1.248.766 2.31 1.6 3.315.217.262.451.6.519.75.187.416.38 1.411.422 2.177.041.753-.016.775-.199.076-.322-1.228-.781-2.088-1.543-2.893-.438-.463-.792-.691-.969-.624-.095.036-.106.1-.071.419.206 1.85.491 2.625 1.428 3.871.478.637.722 1.04.722 1.193 0 .048-.129.194-.288.325-.158.13-.401.409-.539.618a5.28 5.28 0 0 1-.417.559c-.204.218-.225.205-.739-.48l-.374-.496.152-.745c.228-1.114.262-1.766.125-2.385-.167-.76-.398-1.57-.761-2.673-.177-.539-.352-1.198-.389-1.464-.113-.81-.358-.826-.573-.037-.33 1.215-.155 2.648.559 4.568.313.84.419 1.224.499 1.797l.04.29-.284-.311c-.584-.642-2.008-3.207-2.082-3.75-.025-.188.02-.383.178-.77.33-.805.45-1.169.701-2.12a43.3 43.3 0 0 1 .623-2.058c.492-1.481.592-1.904.592-2.516.001-.56-.214-1.537-.377-1.716-.085-.092-.121-.315-.157-.96-.05-.907-.094-1.135-.212-1.096-.042.014-.126.163-.187.33-.06.169-.357.696-.658 1.172-.301.476-.672 1.13-.825 1.453-.289.615-.683 1.759-.826 2.402-.046.207-.105.376-.131.376-.156 0-.24-1.24-.133-1.967.094-.64.242-.927.984-1.913 1.488-1.977 1.847-2.9 1.911-4.916.026-.831.015-1.13-.044-1.167-.115-.07-.24.13-.408.651-.256.798-.512 1.402-1.181 2.777-.359.737-.745 1.603-.859 1.925-.24.679-.335.83-.408.646-.136-.34.003-1.854.208-2.277.07-.143.31-.482.533-.751.446-.54 1.032-1.63 1.402-2.614.268-.71.414-1.558.51-2.951.068-.994.114-1.211.287-1.353.057-.046.364-.129.684-.183.319-.055.67-.145.78-.2.11-.056.596-.48 1.081-.942 1.056-1.007 2.014-1.73 2.911-2.199l.663-.346.472.235c.456.227 1.001.657 1.126.888.05.093-.045.187-.55.548-.336.24-.789.582-1.007.762-.704.578-1.398.84-2.74 1.034-.534.077-1.183.332-1.372.538-.114.125-.113.133.009.222.163.117.352.115 1.218-.01 2.042-.294 2.713-.508 3.418-1.086.864-.708 2.191-1.6 2.704-1.817.451-.191.949-.171 1.73.069 1.125.346 1.415.39 1.916.285.468-.096.975-.351 1.078-.54.128-.237.002-.276-.858-.26-.801.015-.835.01-1.341-.203-.625-.264-.921-.491-.77-.593.203-.137.929-.32 1.574-.398.512-.061.82-.062 1.336-.004.788.088.899.137 1.046.456.097.212.112.653.129 3.925.014 2.456-.003 3.708-.048 3.753-.037.036-.397.088-.799.114-.648.042-.788.075-1.231.283-.722.338-.863.322-1.341-.158-.215-.215-.421-.392-.458-.392-.158 0-.14.153.051.438.239.356.257.576.063.78-.187.197-.124.327.233.478.212.09.339.203.459.407.36.615.504 1.531.351 2.243-.165.77-.193 1.168-.11 1.565.096.454.365.794.576.728.182-.057.265-.292.314-.887.022-.269.065-.513.096-.544.086-.085.457.404.609.804.083.218.151.594.173.956l.036.597-.188.122c-.165.107-.357.125-1.559.145l-1.372.023-.478.532c-.263.293-.529.592-.591.663-.102.118-.108.253-.062 1.373.05 1.195.087 1.47.199 1.47.103 0 .145-.244.209-1.209.036-.539.093-1.086.126-1.215.072-.276.771-.974.976-.974.149 0 .701.413 1.114.832.269.274.3.348.386.912.043.277.174.455.285.387.034-.021.094-.165.133-.32.082-.321.219-.465.505-.533l.198-.047-.181.141c-.207.16-.24.423-.065.512.063.032.248.075.411.096.162.02.329.083.371.14.104.14.274.128.357-.026.139-.256-.127-.918-.368-.918-.047 0-.094-.08-.106-.18-.02-.177-.027-.18-.63-.225-.649-.05-.879-.132-1.14-.408-.128-.136-.148-.197-.093-.283.101-.158.302-.197 1.06-.204.646-.006.689.002 1.105.22.533.28.604.236.672-.406.058-.555.114-.633.358-.508.304.155.591.538.931 1.242.351.726.568.965 1.131 1.247.463.232.542.187.507-.292-.036-.5-.411-1.27-.632-1.302-.082-.011-.149-.047-.149-.08 0-.098.324-.233 1.091-.454 1.104-.32 1.212-.427.784-.775-.58-.472-1.52-.511-2.515-.105-.66.27-.615.28-1.339-.252-.443-.324-.39-.36.543-.367.654-.004 1.105-.115 1.105-.27 0-.104-.422-.494-.684-.632-.161-.085-.454-.118-1.288-.145-.979-.032-1.089-.048-1.179-.166-.174-.231-.288-.482-.233-.516.03-.018.312.028.626.102.61.144.775.13.775-.061 0-.215-.378-.716-.739-.98-.44-.32-.477-.365-.632-.767-.07-.18-.296-.57-.502-.868-.206-.298-.375-.612-.375-.698 0-.085.075-.244.167-.352.496-.582 1.795-.507 2.303.134.092.116.191.19.219.162.106-.106.146-1.088.153-3.801.008-3.316.052-4.022.274-4.412.351-.617 1.084-.598 1.352.035.122.29.214 1.293.291 3.2.087 2.125.15 2.647.323 2.647.033 0 .08-.066.104-.147.024-.081.071-1.764.103-3.741.033-1.977.088-3.707.123-3.845.136-.532.552-.731 1.039-.498.614.294.667.66.89 6.134.068 1.658.117 2.003.28 1.95.156-.052.194-.48.247-2.826.031-1.33.076-2.492.1-2.581.137-.502.187-.597.365-.688.382-.195.862-.063 1.053.29.118.22.201 1.63.304 5.168.041 1.434.126 2.642.198 2.827.063.162.137.142.391-.109.294-.29.777-.444 1.388-.442.557.002.696.066.895.416.123.217.132.28.066.479a.987.987 0 0 1-.297.394c-.244.184-.719 1.032-.785 1.4-.023.127-.146.375-.273.551-.258.36-.276.483-.131.89.17.476.089.562-.591.63-.463.045-.827.205-1.02.448-.174.218-.123.338.178.42.348.096.656.08 1.052-.055l.347-.119v.204c0 .252-.155.481-.387.572-.097.037-.687.105-1.313.15-1.171.084-1.386.142-1.533.414-.148.273.209.395 1.183.404l.562.005-.198.166a6.663 6.663 0 0 1-.448.334l-.25.169-.476-.19c-.398-.158-.57-.19-1.053-.19-.643 0-.835.091-.75.355.041.127.482.51.803.699.113.066.08.118-.38.595-.586.607-.739.927-.545 1.139.098.106.171.124.377.092.545-.086.97-.43 1.641-1.326.398-.531.925-1.01 1.015-.92.017.016-.015.204-.073.417-.183.682-.113 1.27.153 1.27.164 0 .624-.525.864-.984.237-.454.278-.928.138-1.576-.066-.306-.062-.352.041-.412.213-.124.488-.326.793-.583.166-.14.319-.238.339-.217.02.02-.038.252-.129.515-.217.627-.269 1.024-.161 1.226.132.248.221.232.584-.103.565-.522.6-.656.459-1.743-.109-.84-.062-1.318.171-1.742.226-.41.591-.835.66-.768.029.027.071.31.094.63.063.867.298 1.133.622.704.115-.153.139-.278.139-.719 0-.448-.028-.587-.172-.861a2.418 2.418 0 0 1-.217-.609c-.045-.286.052-.796.151-.796.03 0 .167.088.304.196.291.229.337.237.424.076.045-.083.025-.31-.068-.753l-.133-.633.213-.458c.157-.336.194-.478.14-.53-.053-.054-.198.046-.54.372l-.467.446-.496-.342c-.782-.54-1.164-.69-1.751-.69-.272.001-.603.026-.734.055-.2.045-.245.034-.285-.068-.144-.367-.087-6.382.064-6.771.045-.117.413-.277.866-.377.506-.112 2.004-.203 2.581-.157l.542.043.234.488c.429.891 1.202 1.98 1.406 1.98.219 0 .057-.339-.675-1.413-.507-.746-.619-.992-.489-1.077.136-.09.461-.012.637.151.206.192.867 1.296 1.067 1.783.097.234.174.579.192.85.03.45-.068 1.013-.176 1.013-.124 0-.741-.549-1.081-.962-.201-.244-.603-.78-.894-1.194-.291-.413-.592-.807-.669-.876-.256-.228-.16.04.235.654.803 1.249.953 1.53 1.172 2.196.252.77.327.933.523 1.146.273.296.84.111.84-.274 0-.217.092-.256.325-.137.288.147.436.125.621-.093.224-.263.27-.604.144-1.075a3.354 3.354 0 0 0-.71-1.321c-.956-1.133-1.364-2.207-.679-1.789.292.178.618.601 1.148 1.488.699 1.17 1.211 1.742 1.787 1.993.711.311 1.702-.123 2.024-.887.096-.228.097-.284.001-.653-.26-1.004-1.531-3.284-1.755-3.148-.077.048.063.414.425 1.107.286.548.305.617.305 1.091 0 .68-.106 1.146-.288 1.264-.124.08-.205.08-.605-.002-.946-.195-1.242-.47-2.181-2.03-.594-.986-.821-1.225-1.29-1.359-.431-.124-1.671-.233-2.657-.235-.389 0-.724-.028-.744-.06-.055-.089.263-.174 1.484-.398 1.715-.314 1.785-.346 1.553-.696l-.114-.172-.967.056c-.533.031-1.265.057-1.629.058-.631.003-.662-.004-.682-.14-.015-.103.033-.171.165-.239.163-.083 1.854-.621 3.787-1.204.47-.143.657-.232.757-.364.121-.16.123-.184.027-.28-.112-.11-.586-.009-3.545.758-.976.253-1.617.33-1.696.202-.058-.092.298-.328 1.286-.853.491-.26 1.019-.566 1.174-.679.388-.282.466-.629.142-.629-.179 0-1.135.372-2.002.78-.531.25-.781.332-.954.318-.129-.01-.246-.056-.261-.1-.042-.127.574-.67 1.897-1.674 1.444-1.096 1.922-1.515 1.922-1.683 0-.362-.827.091-3.108 1.703-1.01.713-1.313.887-1.399.802-.114-.112.004-.335.434-.824 1.125-1.279 1.429-1.825 1.111-1.994-.184-.097-.476.084-.756.471-.318.439-1.627 1.744-1.748 1.744-.338 0-.012-1.016 1.1-3.424.251-.543.465-1.075.477-1.183.018-.17-.001-.196-.142-.196-.252 0-.565.47-1.46 2.186-.901 1.73-1.065 1.98-1.276 1.95-.22-.03-.213-.342.028-1.316.248-1.003.289-1.653.11-1.766-.149-.095-.33.01-.392.227-.233.815-.678 2.102-.798 2.306-.182.314-.31.398-.524.345-.318-.08-.406-.53-.518-2.658-.111-2.095-.24-2.663-.527-2.321Zm-25.309.279c-.027.063-.046.323-.044.578.007.86.255 1.19 2.165 2.87 1.874 1.65 2.052 1.8 2.125 1.774.038-.014.063-.153.056-.31-.025-.5-.4-1.117-1.29-2.118-.94-1.058-2.779-2.908-2.889-2.908-.042 0-.097.051-.123.114Zm40.21 1.548c-.063.162.136.4.708.846.689.54 1.185.781 1.613.787.272.004.472-.062 1.126-.371 1.041-.492 1.199-.496 2.465-.056l.921.32.833-.434c.806-.42 1.168-.664 1.168-.787 0-.134-.252-.135-.663-.002l-.439.142-.754-.208c-1.474-.406-2.121-.411-3.447-.026-.981.286-2.3.225-3.025-.139-.322-.161-.464-.182-.506-.072Zm11.743.424c-.468.14-1.092.582-1.947 1.376-.293.272-.77.674-1.061.893-.687.517-.822.662-.692.747.352.23 1.965-.61 3.502-1.827.454-.36 1.043-.76 1.309-.888.265-.129.464-.262.442-.298-.047-.074-1.308-.076-1.553-.003Zm-55.868 1.866c-.065.077-.066.164-.005.403.174.685.558 1.139 1.667 1.973l1.269.958c.212.161.417.294.455.294.124 0-.002-.463-.227-.834-.288-.474-1.201-1.424-2.018-2.099-.891-.736-1.034-.823-1.141-.695Zm4.231.313c-.573.281-.696 2.3-.228 3.721l.183.556-.152.21c-.24.334-.645.592-.929.592-.136 0-.275.037-.311.082-.035.045-.141.508-.236 1.029-.367 2.022-1.107 4.116-2.17 6.142-.616 1.172-1.192 2.015-1.885 2.755-.639.682-.817.933-.818 1.15 0 .33.89 1.96 1.347 2.466.185.205.249.242.297.171.082-.12.002-.37-.276-.868-.273-.488-.34-.753-.25-.987.036-.094.294-.415.573-.713 1.233-1.32 2.354-3.382 3.172-5.836.541-1.624.699-2.42.862-4.355l.036-.433.409-.112c.706-.192 1.204-.475 1.627-.921.556-.587.694-.965.692-1.89-.001-.78-.139-1.309-.548-2.11-.294-.576-.485-.732-.892-.731-.186 0-.412.037-.503.082Zm44.262.353c.113.445 1.254 2.696 1.581 3.12.205.265 1.063.717 1.638.861.562.142.704.221 1.187.663 1.197 1.095 2.588 3.23 4.245 6.518 1.448 2.875 1.569 3.038 2.851 3.878 1.009.66 1.261.782 1.418.685.177-.11.16-.4-.089-1.518-.295-1.326-.341-1.64-.241-1.64.195 0 .643 1.052.895 2.101.304 1.267.895 2.706 1.323 3.223.643.776 1.558 1.463 2.363 1.775.767.297.692.083-.268-.761-1.117-.983-1.443-1.56-2.25-3.975-.287-.858-.587-1.689-.668-1.847a4.612 4.612 0 0 0-1.931-1.956c-.582-.307-.608-.277-.559.642.042.772.168 1.612.317 2.102.092.303.03.425-.117.232-.055-.072-.333-.59-.618-1.15-.285-.56-.606-1.148-.714-1.306-.107-.159-.679-1.185-1.27-2.282-2.274-4.214-2.628-4.635-4.803-5.702-1.159-.569-1.442-.79-2.376-1.86-.917-1.05-1.808-1.978-1.9-1.978-.032 0-.038.079-.014.175Zm-19.931 1.128c-1.917.4-3.415 1.695-4.043 3.495-.146.418-.176.585-.128.709.088.23.385.44.626.44.113.001.503.106.867.234 1.181.414 1.525.49 1.801.4.218-.07.258-.121.383-.482.163-.469.276-.651.594-.966.356-.352.602-.455 1.095-.458.371-.002.482.026.759.195.419.256.592.518.805 1.222l.174.574.514-.042c.431-.036.589-.019.977.105.276.088.551.134.681.115.442-.066 1.13-.238 1.19-.298.212-.209.19-.963-.052-1.776-.385-1.293-1.582-2.614-2.908-3.208-.839-.376-2.251-.486-3.335-.26Zm-23.81.427c-.243.133-.356.449-.356.996 0 .36.027.498.114.584.109.107.123.105.277-.038.216-.2.513-.943.525-1.312.009-.282.002-.294-.189-.309a.785.785 0 0 0-.371.08Zm51.03.161c-.309.363-.441 1.266-.195 1.334.286.08.925.11 1.082.052.2-.075.379-.458.436-.936.048-.397-.025-.483-.454-.54-.186-.024-.419-.06-.517-.079-.142-.028-.213.006-.352.17Zm-8.509 2.913c0 .054.188.461.418.904.645 1.24.657 1.279.7 2.215.022.459.024.831.006.829-.069-.01-.937-1.023-1.162-1.355-.129-.19-.43-.705-.669-1.143-.634-1.162-.916-1.536-1.056-1.397-.063.062.342.857 1.069 2.102.792 1.357 1.247 2.026 1.501 2.211.171.124.192.126.43.025.138-.058.309-.115.381-.126.337-.051.399-.794.124-1.478-.195-.483-1.1-2.144-1.415-2.596-.206-.297-.327-.367-.327-.191Zm-.659.363c-.003.122.541 1.243.732 1.508.149.207.257.241.257.082 0-.291-.981-1.87-.989-1.59Zm-1.523.525c0 .132.532 1.196.804 1.61.248.376.454.526.451.327-.002-.117-.238-.615-.395-.833a5.462 5.462 0 0 1-.331-.577c-.199-.398-.357-.6-.468-.6-.033 0-.061.033-.061.073Zm-3.306.491c0 .283 1.262 2.365 1.536 2.533.083.051.135.048.194-.01.063-.062.055-.132-.038-.325-.201-.42-.957-1.629-1.233-1.975-.263-.328-.459-.424-.459-.223Zm-.704.385c-.051.134.17.635.661 1.496.606 1.06 1.035 1.475 1.035.999 0-.079-.256-.603-.568-1.165-.7-1.258-1.012-1.626-1.128-1.33Zm3.481.107c0 .29 1.559 2.693 1.884 2.904.181.117.857.197 1.119.132.147-.037.171-.078.171-.3 0-.33-.205-.49-1.058-.823-.725-.283-.998-.518-1.434-1.238-.25-.411-.572-.816-.651-.816-.017 0-.031.064-.031.141ZM262.413 30c-.166.051-.358.153-.426.227-.11.12-.115.168-.044.427.142.526.139.534-.431 1.012l-.275.231.334.52c.588.918.673.956 1.343.6.454-.24.497-.345.336-.813-.162-.47-.139-.639.111-.797.5-.316.487-.267.208-.793-.243-.456-.523-.72-.754-.71a2.646 2.646 0 0 0-.402.096Zm-86.253.686c-.282.085-.664.52-.889 1.012-.251.546-.538 2.024-1.385 7.12-.552 3.32-.919 4.915-1.624 7.058-1.11 3.37-2.886 6.515-5.003 8.858-1.544 1.708-3.041 2.949-6.859 5.681-2.382 1.706-3.443 2.557-3.705 2.976-.353.566.07.844 1.192.784 1.907-.103 5.963-1.022 8.836-2.003 2.434-.831 4.36-1.858 5.301-2.827.461-.474.71-.945 1.356-2.56 2.031-5.07 3.399-11.706 3.912-18.98.055-.772.133-2.492.175-3.822.072-2.31.07-2.432-.05-2.737-.068-.176-.199-.375-.289-.441-.2-.146-.683-.205-.968-.12Zm27.38.02c-.367.164-.806.778-1.016 1.42-.107.326-.587 2.98-1.136 6.268-.483 2.902-.759 4.248-1.186 5.788-.91 3.284-1.933 5.562-3.664 8.163-.842 1.264-1.549 2.115-2.748 3.306-1.442 1.433-2.906 2.601-6.117 4.879-2.09 1.483-3.382 2.53-3.575 2.9-.286.547.137.803 1.228.745 1.697-.092 5.648-.957 8.265-1.81 3.172-1.033 5.521-2.348 6.278-3.514.426-.655 1.514-3.426 2.106-5.362 1.738-5.683 2.688-12.028 2.926-19.538.07-2.191.067-2.34-.048-2.674-.07-.204-.192-.406-.288-.475-.221-.161-.768-.212-1.025-.097Zm-50.909.672a5.528 5.528 0 0 0-.617.165c-.322.104-.448.182-.546.34-.552.886-1.798 6.358-2.145 9.419-.146 1.285-.084 1.606.401 2.058.135.126.3.314.366.419.117.187.116.196-.042.504-.829 1.617-1.934 5.105-2.274 7.176-.443 2.7-.28 4.575.54 6.212.623 1.244 1.679 2.095 2.841 2.289.569.095 1.582.052 2.288-.096 2.098-.441 4.317-2.066 6.013-4.404 1.839-2.536 4.084-7.636 4.707-10.695.343-1.682.317-3.026-.097-5.044-.42-2.05-.684-2.707-1.618-4.022-.497-.7-1.616-1.841-2.272-2.318-1.404-1.02-3.001-1.66-4.769-1.912-.564-.08-2.446-.142-2.776-.091Zm67.373.247a4.787 4.787 0 0 0-1.581.594c-1.153.686-1.707 1.52-2.407 3.627-1.115 3.355-1.892 5.796-2.07 6.501-.254 1.011-.322 2.1-.167 2.694.405 1.555 1.925 2.988 3.784 3.567 1.534.478 3.084.367 4.522-.324l.625-.3.183.215c.369.438.481.762.482 1.402 0 .487-.025.635-.15.867-.109.202-.674.732-2.022 1.895-3.31 2.858-6.443 5.45-8.504 7.037-1.537 1.182-2.494 1.982-3.352 2.802-.816.779-1.144 1.22-1.144 1.533 0 .784 1.471.34 10.049-3.036 2.903-1.142 3.702-1.576 4.289-2.33.452-.58 1.268-1.976 2.052-3.508 2.016-3.939 3.015-7.161 3.309-10.671.18-2.155-.019-3.886-.702-6.123-.754-2.465-1.773-4.311-2.89-5.236-.546-.451-1.596-.987-2.223-1.133-.625-.147-1.537-.178-2.083-.073Zm87.274.382c-.418 1.142-.439 1.805-.066 2.047.219.142.401.069.611-.245a.895.895 0 0 0 .173-.567c-.004-.34-.225-1.01-.395-1.196-.128-.14-.28-.158-.323-.04Zm-12.955.044c-.076.12.078.517.312.803.126.154.407.544.626.868.219.323.464.646.544.718.145.128.148.128.24.004.139-.188.113-.404-.069-.573-.089-.082-.454-.53-.811-.994-.649-.843-.762-.954-.842-.826Zm-276.712.805c-.287.249-1.503 1.575-3.627 3.957-.837.938-1.548 1.707-1.58 1.708-.034.002-.881-.566-1.885-1.262-2.61-1.81-3.923-2.655-4.192-2.698-.197-.032-.263-.005-.461.183C5.176 35.4 0 41.155 0 41.267c0 .17.175.34 1.152 1.107 2.002 1.574 4.776 3.496 5.284 3.662.211.069.263.064.401-.04.088-.066 1.266-1.34 2.618-2.832a420.169 420.169 0 0 1 2.642-2.897l.182-.186.82.636c1.344 1.044 4.243 3.034 4.931 3.385.364.185.494.143.92-.3.685-.713 5.473-6.005 5.637-6.23.288-.398.222-.47-1.608-1.72-2.684-1.834-4.85-3.208-5.057-3.208-.036 0-.176.095-.311.212Zm276.279.171c0 .26 1.345 2.294 1.872 2.83.657.672 1.434.868 1.434.364 0-.3-.513-.774-1.046-.965-.513-.184-.961-.568-1.354-1.162l-.538-.813c-.257-.389-.368-.465-.368-.254Zm9.303.511c-.084.165-.233.728-.346 1.31-.125.642.615 1.25.934.769.163-.246.194-.908.065-1.404-.197-.761-.467-1.04-.653-.675Zm5.121-.025c-.152.182-.484 1.068-.519 1.387-.032.291-.015.354.146.543.249.293.53.271.722-.055.194-.329.196-1.368.003-1.694-.153-.259-.246-.306-.352-.18Zm-3.465.116c-.063.037-.116.12-.116.185 0 .155.581.69.886.816.269.11.3.198.106.3-.305.162-.018.676.586 1.048.265.163.279.184.151.224-.344.108.035.736.611 1.012.344.165.909.182 1.061.032.265-.263.064-.614-.539-.94-.348-.188-.416-.297-.22-.348.099-.026.135-.088.135-.234 0-.205-.259-.511-.718-.847-.163-.12-.207-.2-.207-.38 0-.355-.158-.58-.54-.768-.368-.181-.968-.231-1.196-.1Zm-5.245 1.114c-.025.04-.024.576.002 1.192.042 1.01.061 1.134.185 1.267.24.254.58.163.704-.189.105-.297.09-1.022-.029-1.42a1.555 1.555 0 0 0-.386-.632c-.289-.299-.395-.347-.476-.218Zm.927.106c.116.305.494.838.731 1.029.575.463 1.25.67 1.49.456.175-.157.173-.548-.005-.77-.251-.316-.995-.605-2.037-.79-.192-.033-.216-.023-.179.075Zm-27.732-.004-1.213.122c-1.47.147-1.68.284-1.184.776.475.472 1.309.746 2.298.755.519.005.9.096 1.014.242.074.097.084.398.05 1.654-.046 1.695-.124 2.464-.264 2.603-.186.184-.262-.155-.306-1.362-.051-1.4-.094-1.526-.531-1.554-.438-.029-.506.076-.625.968-.054.408-.099.758-.1.778 0 .02-.027.078-.059.129-.047.073-.141.037-.475-.184-.391-.258-.442-.273-.817-.255l-.4.02-.036-1.372a39.59 39.59 0 0 0-.05-1.392c-.043-.064-.501-.209-.662-.209-.253 0-.387.161-.489.591-.116.486-.122 4.725-.007 4.838.131.13.377.016 1.005-.463l.601-.46.48.342c.264.188.748.55 1.076.805.856.668.97.751 1.03.751.03 0 .465-.324.967-.721 1.007-.797 1.005-.796 1.507-.473.889.57 1.17 1 1.21 1.848.022.448 0 .628-.112.93l-.279.752c-.125.338-.132.426-.069.873.077.545.192.859.303.822.039-.012.091-.265.116-.562.049-.568.11-.698.382-.803.092-.036.8-.086 1.573-.112.903-.03 1.433-.072 1.481-.12.056-.056.005-.191-.202-.536-.569-.947-1.312-1.963-1.434-1.963-.043 0-.231.104-.418.23a3.452 3.452 0 0 1-.505.294c-.141.053-.174.04-.22-.084-.08-.213-.011-.63.115-.697.06-.031.479-.119.932-.195.863-.145 1.292-.299 1.292-.463 0-.112-.364-.252-.669-.258-.388-.007-.387.004-.41-2.602l-.022-2.382-.425.027c-.253.015-.464.065-.52.121-.095.096-.137.518-.301 3.051-.079 1.213-.117 1.455-.228 1.455-.098 0-.816-.531-1.577-1.167l-.575-.48-.001-1.873c0-1.096-.028-1.973-.069-2.116-.051-.18-.16-.313-.413-.5-.631-.464-.844-.515-1.765-.419Zm31.411.076c-.104.192-.203.912-.203 1.482-.001.77.21.997.626.673l.182-.141-.047.658c-.076 1.04.047 1.298.526 1.1l.233-.096-.007.241a3.353 3.353 0 0 1-.084.569c-.089.37-.116.376-.654.149l-.316-.134.134-.223c.178-.3.168-.441-.046-.638-.336-.307-1.084-.457-1.502-.3-.252.095-.211.274.154.67.198.212.353.455.398.619.126.464 1.111 1.256 1.567 1.26a.59.59 0 0 0 .297-.118c.231-.175.383-.215.526-.14.253.134.078.403-.315.486-.223.046-.549.264-.549.366 0 .033.097.1.215.15.118.051.332.212.475.36.232.238.263.31.289.658.035.477-.089 1.233-.558 3.402-.418 1.937-.779 3.34-.922 3.585-.093.16-.098.112-.064-.612.02-.431.096-1.108.17-1.503.192-1.037.275-2.32.202-3.14-.051-.58-.096-.764-.29-1.16-.242-.496-.412-.753-.462-.698-.082.09-.109 1.388-.111 5.341l-.002 4.33h-.223c-.351 0-.644.075-.683.175-.02.051.062.213.182.36l.218.269-.18.153c-.217.184-.305.194-.305.035a.5.5 0 0 0-.096-.245c-.093-.122-.104-.123-.303-.012-.274.15-.294.147-.592-.09-.147-.116-.289-.182-.334-.154-.122.075-.032.528.162.819.094.14.171.268.171.285 0 .016-.112.04-.248.05-.197.017-.248.047-.248.151 0 .093.114.19.395.338.375.197.386.21.22.251a.686.686 0 0 0-.292.171c-.113.123-.106.136.193.409.218.197.31.332.31.451 0 .122.079.233.272.386.259.207.269.228.231.499-.056.405-.22.708-.425.784-.097.036-.441.082-.763.101-.557.034-.901.148-.901.3 0 .033.069.14.154.238.154.176.165.178 1.301.231 1.152.053 1.396.107 1.126.25-.129.069-.139.11-.1.424.037.29.025.359-.069.41-.106.06-.104.098.027.61.106.414.19.597.351.76.154.158.182.216.103.216-.123 0-.205.194-.146.346.023.057.114.15.203.209.131.084.158.15.143.343-.017.212.007.254.21.373.384.225.848.725.933 1.006.103.339.041.572-.165.623-.352.088-.705-.21-.837-.703-.13-.487-.215-.564-.629-.564-.201 0-.424.03-.494.068-.219.116-.146.634.128.904.101.1.188.12.39.094.27-.036.576.071.509.179-.021.033-.254.123-.517.199-.589.169-.803.313-.743.5.024.074.117.153.207.175.202.05.202.132-.005.463-.327.525-.131.657.34.228.172-.156.352-.261.449-.261.162 0 .436-.266.436-.422 0-.128.276-.344.628-.493.411-.173.695-.433.695-.637 0-.086-.062-.298-.138-.472l-.138-.317.233-.468c.279-.56.261-.669-.108-.642-.146.011-.276-.01-.289-.045-.013-.036.081-.181.208-.322.275-.305.295-.465.066-.522-.194-.048-.201-.104-.058-.475.155-.401.097-.497-.272-.442-.285.042-.298.037-.298-.117 0-.09.09-.327.199-.53.109-.201.198-.382.198-.4 0-.02-.156-.035-.347-.035-.191-.001-.389-.028-.44-.06-.131-.081-.042-.256.174-.338.322-.123 2.917-.21 4.282-.143.691.034 1.294.049 1.34.033.09-.031.134-.177.163-.537l.018-.229-1.289-.032c-.709-.018-1.327-.057-1.372-.086-.134-.085-.098-.197.181-.566.144-.192.281-.407.304-.477.073-.228-.156-.359-.832-.473-.346-.058-.651-.128-.679-.155-.029-.028-.004-.234.054-.458.096-.369.096-.422.003-.562a.449.449 0 0 0-.282-.176c-.139-.016-.192-.068-.234-.23a.726.726 0 0 0-.252-.347c-.134-.095-.221-.232-.271-.43-.08-.312-.148-.386-.356-.386-.11 0-.135-.05-.149-.294-.032-.537-.06-.588-.315-.588-.156 0-.23-.03-.23-.094 0-.12.981-2.015 1.278-2.472.266-.406.471-.6.572-.538.041.024.19.292.331.594.141.302.29.55.331.55.04 0 .121-.11.18-.245.142-.328.159-1.87.025-2.325-.117-.4-.321-.551-.592-.44-.253.104-.42.339-.954 1.343l-.452.85.041-.425c.059-.616.642-3.434.994-4.803.219-.855.311-1.354.336-1.83.047-.882.129-1.21.395-1.58.269-.374.401-.723.308-.815-.042-.041-.153-.027-.318.04-.362.15-.425.102-.425-.325 0-.538-.129-1.27-.273-1.55-.114-.22-.252-.325-.259-.196-.001.026-.083.141-.182.255l-.179.206-.003-.5c-.002-.519-.159-1.122-.347-1.334-.09-.102-.117-.105-.246-.021-.144.093-.146.09-.226-.473-.098-.697-.273-1.123-.461-1.123a.25.25 0 0 0-.199.12Zm4.737.32c-.182.199-.482 1.782-.338 1.78.032 0 .23-.041.44-.09l.381-.089-.034.319-.07.645c-.044.41.045.588.293.588.375 0 .601-.375.613-1.013.01-.575-.016-.743-.14-.891-.123-.148-.136-.15-.321-.048l-.194.106-.043-.464c-.071-.753-.33-1.124-.587-.843Zm-55.871 1.107c-.625.33-.644.386-.339.982l.251.487-.227.171c-.759.574-.822.83-.354 1.444.166.219.329.414.361.434.032.02.245-.058.474-.171.878-.436.984-.589.779-1.123-.072-.188-.132-.391-.132-.452 0-.06.162-.283.36-.494l.359-.383-.237-.421c-.453-.808-.576-.853-1.295-.474Zm45.222-.132c-.024.024-.044.328-.044.675 0 .348-.017.648-.038.669-.054.054-.459-.066-.978-.289-.525-.226-.642-.19-.503.155.242.602.839 1.12 1.25 1.085.232-.019.238-.026.469-.51.036-.073.136-.092.404-.075.446.026.591-.103.636-.566.028-.286.01-.34-.186-.562a2.605 2.605 0 0 0-.553-.434c-.362-.205-.39-.214-.457-.148Zm3.999.675c-.309.072-.377.155-.261.32.287.404 1.092.782 1.469.688.395-.098.49-.572.176-.882-.181-.178-.227-.19-.678-.185-.266.004-.584.03-.706.059Zm11.866.198c-.12.104-.289.321-.375.482-.209.388-.14.594.268.8.553.28.891.174 1.292-.402.303-.435.285-.499-.225-.773-.581-.312-.707-.327-.96-.107Zm-13.163.21c-.098.3-.167.855-.167 1.33 0 .502.015.57.162.715.179.178.503.215.623.073.177-.212.16-.651-.05-1.271-.268-.79-.482-1.11-.568-.846Zm6.328.378c-.081.033-.148.096-.148.141 0 .046.18.252.4.46.302.283.489.401.757.478.387.112.768.079.928-.08.083-.082.083-.118-.001-.28-.137-.26-.61-.644-.89-.72-.288-.08-.844-.079-1.046.001Zm-7.852.89c-.127.126-.129.674-.003.972.32.756 1.095.717 1.095-.056 0-.234-.041-.304-.351-.6-.391-.375-.593-.461-.741-.315Zm9.999.392c-.87.45-.919.664-.166.735l.416.04.128.359c.108.303.127.538.125 1.503-.002 1.269-.103 2.062-.416 3.268a45.172 45.172 0 0 0-.399 1.731c-.578 2.772-.692 2.334-.594-2.287.023-1.105.011-1.344-.08-1.546-.127-.283-.301-.354-.617-.25-.287.093-.357.224-.654 1.214-.425 1.422-.531 2.153-.336 2.313.158.13.284-.023.64-.777.177-.374.343-.658.37-.632.026.027.048 1.097.048 2.379 0 1.972.017 2.402.113 2.795.145.596.362 1.165.697 1.823.378.743.464 1.087.509 2.037.058 1.207.105 1.654.174 1.654.033 0 .061-.022.061-.049.001-.027.03-.299.065-.604.035-.306.11-1.203.167-1.993.14-1.927.173-2.058 1.025-4.052.971-2.27 1.21-3.227 1.209-4.835 0-1.025-.121-1.928-.358-2.69-.134-.428-.342-.743-.433-.654-.03.03-.075.706-.101 1.503-.082 2.583-.275 3.66-1.113 6.228a57.63 57.63 0 0 0-.533 1.715c-.237.856-.372.628-.299-.507.068-1.061.214-1.94.567-3.406.652-2.708.746-3.452.693-5.483-.044-1.679-.062-1.836-.214-1.834-.062.002-.374.138-.694.302Zm-11.552.623c0 .259.744.918 1.129 1.002.614.133.484-.625-.158-.92-.369-.17-.971-.22-.971-.081Zm4.307.01c-.135.16-.273.56-.273.789 0 .585.508 1.14.869.948.157-.083.321-.438.32-.695-.001-.2-.278-.833-.444-1.015-.124-.135-.369-.15-.472-.027Zm-8.182.713c-.292.194-.621.572-.621.715 0 .202.489.102.94-.192.242-.159.437-.53.35-.668-.078-.126-.349-.067-.669.145Zm6.583.151c-.068.081-.092.256-.083.601.012.431.001.483-.099.454-.792-.233-.995-.266-1.097-.182-.138.113-.134.219.02.514.372.716 1.033.901 1.329.374.106-.19.125-.195.508-.174.367.02.409.008.54-.156.175-.22.18-.484.015-.8-.289-.555-.908-.899-1.133-.63Zm2.086 1.512a5.02 5.02 0 0 0-.544.421c-.154.139-.332.253-.397.254-.297.004-1.076.488-1.076.67 0 .033.211.039.492.013l.491-.046.079.285c.154.561-.002 1.63-.706 4.827-.445 2.023-.56 2.483-.619 2.483-.066 0-.121-1.263-.162-3.725-.033-1.984-.098-2.501-.384-3.065-.342-.674-.415-.403-.41 1.53.002 1.16.03 1.637.12 2.09.065.327.134 1.062.155 1.65l.037 1.062h-.588c-.323-.001-.624-.025-.67-.053-.06-.038-.018-.143.16-.394.199-.281.245-.406.255-.697.008-.208.06-.426.128-.528.289-.436.249-.832-.096-.951-.232-.08-.252-.217-.099-.646.12-.336.078-.507-.143-.59-.181-.068-.417-.029-.709.117-.181.09-.189.112-.153.414.055.453-.123.496-.251.061-.067-.225-.429-.588-.587-.588a.448.448 0 0 0-.252.109c-.067.06-.138.092-.157.073-.019-.019.191-.273.468-.564l.504-.53-.319-.2c-.245-.154-.381-.197-.584-.183l-.264.019-.035-.337c-.036-.355-.201-.609-.396-.609-.063 0-.192.061-.288.136-.206.16-.231.471-.074.912.055.154.087.292.071.308-.015.015-.211.044-.434.064l-.406.037.044.431c.07.686.217 1.385.325 1.549.147.221.015.256-.335.089-.201-.096-.336-.217-.406-.363-.166-.344-.722-.451-.948-.183-.1.12-.316.116-.619-.01-.285-.117-.42-.088-.632.134l-.153.161.176.41c.123.285.176.524.176.788 0 .46.185.699.542.7.289.002.342.047.439.375.102.347.369.507.745.448.188-.03.273-.013.337.066.304.375.442.47.783.542.198.043.468.15.599.24.131.09.398.188.593.219.286.044.391.098.54.274.151.179.205.206.299.148.063-.039.148-.17.189-.292.086-.256.301-.434.591-.49l.203-.039-.086.706c-.049.4-.061.73-.029.762.11.11.516-.39.696-.855.197-.51.353-.688.575-.656.23.033.391.373.434.916.022.263.068.514.103.559.126.157.519.217.739.113.332-.157.509-.464 1.256-2.178.272-.624.509-1.15.527-1.167.075-.074.202.095.41.545.122.265.273.558.335.652.107.16.119.164.2.054.216-.292-.001-2.634-.285-3.083-.068-.107-.156-.147-.328-.147-.501 0-.591.14-.951 1.496-.269 1.013-.676 2.169-.843 2.392-.089.12-.094.099-.055-.228.046-.383.493-2.489 1.04-4.901.183-.809.389-1.804.457-2.213.087-.521.176-.832.301-1.045.343-.588.412-.74.376-.832-.052-.134-.217-.107-.517.084Zm-9.354.354c-.263.104-.398.26-.398.462 0 .386.435.295.658-.137.074-.144.135-.292.135-.33 0-.083-.176-.081-.395.005Zm-18.415.055c-.23.093-.775.61-.862.817-.046.11-.105.566-.13 1.016-.052.903-.115 1.071-.426 1.133-.129.025-.225.095-.261.188-.079.21-.134 1.996-.083 2.679.031.407.075.601.156.681.106.105.116.102.173-.047.033-.087.079-.658.102-1.27.047-1.228.072-1.384.23-1.433.06-.02.516-.079 1.014-.133.992-.109 1.204-.164 1.269-.331.066-.171-.067-.276-.463-.364-.577-.128-.587-.143-.587-.906v-.661l.347-.317c.458-.418.453-.535-.038-.935-.239-.195-.246-.197-.441-.117Zm-122.167.379c-.363.406-1.027 2.26-1.599 4.461-.469 1.806-.764 3.258-.765 3.765-.001.81.425 1.709.973 2.052.528.331 1.682.51 2.53.39 2.387-.332 5.739-2.745 6.261-4.507.091-.305.096-.441.033-.869-.148-1.013-.708-1.983-1.728-2.992a8.733 8.733 0 0 0-4.315-2.311c-.697-.142-1.258-.137-1.39.01Zm117.69.068c-.354.255-.413.449-.395 1.285.019.912.115 1.525.269 1.734.293.397.441.115.534-1.016.084-1.023.141-1.21.436-1.432.125-.095.228-.203.228-.24 0-.038-.101-.17-.225-.291-.277-.274-.508-.285-.847-.04Zm-7.654 1.092c.042.107.19.504.328.882.369 1.012.906 2.372 1.142 2.892.163.362.217.431.255.334.075-.187.067-1.757-.009-1.956-.037-.096-.244-.365-.46-.598a10.78 10.78 0 0 1-.802-1.022c-.489-.714-.554-.79-.454-.532Zm54.743-.115c-.2.013-.39.05-.422.081-.092.09.493.421 1.093.617.746.244 1.467.312 3.395.322 1.746.01 2.04-.02 2.004-.203-.034-.178-1.144-.717-1.64-.796-.396-.063-3.572-.079-4.43-.021Zm-39.543.229a3.426 3.426 0 0 0-.483.461c-.168.207-.186.259-.105.31.15.093 1.472.077 1.606-.02.104-.076.102-.1-.028-.359-.145-.29-.469-.604-.621-.604-.049 0-.215.095-.369.212Zm-10.338 1.835c-.266.55-.62 1.235-.786 1.52-.398.682-.952 1.964-1.107 2.56-.101.39-.111.541-.056.85.084.467.237.949.409 1.288.124.243.136.25.187.116.03-.08.073-.609.096-1.175.022-.568.083-1.203.134-1.412.052-.209.357-.973.68-1.699.323-.725.649-1.51.725-1.743.128-.392.287-1.307.228-1.307-.015 0-.244.45-.51 1.002Zm-15.529-.71c-.72.047-1.328.104-1.351.127-.047.046.264.328.699.635.224.157.399.216.794.267.899.116 4.901-.023 5.327-.184.332-.126-.135-.425-1.121-.717-.534-.159-.712-.178-1.815-.195-.673-.01-1.813.02-2.533.067Zm22.411 1.487c-.405.106-.53.543-.369 1.285.15.691.398.58.532-.24.095-.586.212-.733.582-.733.321 0 .468-.053.468-.168 0-.215-.649-.292-1.213-.144Zm39.807 1.082c-.222.222-.378.435-.378.517 0 .076.073.281.162.455.235.456.268.643.132.75-.334.265-.559.515-.558.622.001.193.294.758.495.954.101.099.244.18.317.18.138 0 .426-.195.853-.576l.244-.217-.239-.43-.239-.431.141-.235c.078-.13.205-.364.283-.52.139-.282.139-.29.019-.554-.171-.375-.599-.893-.738-.893-.064 0-.286.17-.494.378Zm1.773-.23c.025.08.198.426.385.767.777 1.42.819 1.7.359 2.437-.486.78-.548 1.099-.311 1.614.275.6 1.497 2.026 1.736 2.026.151 0 .116-.118-.241-.817-.374-.732-.364-.908.099-1.902.459-.983.487-1.107.356-1.552-.151-.513-.553-1.064-1.42-1.944-.741-.753-1.064-.964-.963-.63Zm-62.847.027c-.894.088-1.985.235-2.165.29-.118.038-.215.11-.215.16s.201.24.446.42l.447.329 2.35-.017c2.114-.016 2.367-.006 2.521.093.195.127.279.441.198.739-.047.171-.093.201-.378.248-.435.073-.533.156-.379.324.065.07.23.185.368.255.278.14.407.382.351.66-.058.287.061.482.439.721.441.279.687.565.78.904.088.324.04.563-.17.845-.182.244-.149.327.196.489.323.151.671.461.785.698.056.118.145.398.198.623l.095.408h-.543c-.299 0-.632.03-.741.068-.413.143-.543.902-.276 1.609.178.469.624.921 1.101 1.116.385.157.379.16.431-.284.071-.616.412-.974.651-.683.46.562-.042 1.47-1.143 2.067-.512.277-.686.436-.631.577.059.151.462.193 1.095.112.318-.04.761-.073.984-.073.343 0 .42.022.508.145.152.215.131.734-.042 1.038-.079.14-.131.264-.115.277.015.013.411.264.878.558a20.48 20.48 0 0 1 1.488 1.039c.771.61 2.882 2.674 3.657 3.575 1.553 1.807 2.044 2.653 2.479 4.27.308 1.148.313 1.151 1.984 1.153 1.051.001 1.149-.01 1.322-.136.225-.165.276-.385.109-.472-.066-.034-.378-.096-.694-.137-.641-.083-.957-.172-1.128-.318-.063-.054-.218-.425-.345-.824-.501-1.585-1.182-2.585-3.349-4.922-1.346-1.45-2.378-2.34-3.86-3.323l-.794-.527-.005-.453c-.006-.683-.194-.99-.871-1.428-.387-.25-.423-.412-.171-.773a.88.88 0 0 0 .188-.599c0-.444-.321-1.108-.753-1.56l-.329-.343.011-.554c.014-.673-.13-1.038-.582-1.479l-.298-.29.014-.569c.017-.658-.077-.896-.573-1.448a3.762 3.762 0 0 1-.369-.465c-.182-.335-.343-.93-.433-1.595-.114-.845-.258-1.177-.665-1.531-.392-.341-1.357-.828-1.883-.951-.389-.09-1.528-.12-2.174-.056Zm5.356 1.037c0 .056.048.195.108.308.103.197.101.22-.041.485-.162.302-.143.478.053.478.152 0 .318.174.374.392.041.161.189.372.75 1.073.157.196.366.513.464.704.202.396.364.453.395.14.023-.231-.163-.64-.46-1.013-.285-.357-.432-.736-.552-1.422-.128-.73-.229-.995-.438-1.14-.203-.14-.653-.144-.653-.005Zm17.919.168c-.267.105-.404.261-.362.412.151.534.243.595.494.33a.885.885 0 0 1 .353-.215c.282-.072.357-.22.218-.43-.122-.184-.389-.22-.703-.097Zm-2.091.056c-.2.08-.22.178-.154.76.074.653.124.875.195.875.062 0 .099-.107.163-.48.072-.42.168-.56.443-.642.471-.14.507-.388.074-.507-.295-.08-.528-.083-.721-.005Zm11.961.82c-1.117.14-2.318.396-3.007.643-1.512.543-3.084 1.344-4.047 2.06-.782.583-2.204 1.927-2.768 2.618-1.58 1.935-2.675 4.527-3.066 7.253-.13.906-.144 2.595-.03 3.467.425 3.25 1.965 6.248 4.381 8.53.646.61 1.373 1.183 1.62 1.276.079.03.321.195.538.368.941.749 3.464 1.771 5.4 2.188.622.134 4.124.11 4.866-.033 2.557-.494 5.602-2.103 7.624-4.028.666-.634 1.626-1.719 1.626-1.837 0-.227-.467-.103-2.256.598-3.652 1.431-4.593 1.643-6.673 1.498-1.78-.125-3.192-.465-4.388-1.06-2.713-1.346-4.799-3.98-5.501-6.945-.105-.443-.124-.791-.124-2.287 0-2.352.113-2.918.901-4.541.556-1.146 1.145-1.987 2.004-2.864 1.648-1.683 3.315-2.571 5.558-2.962.745-.13 1.083-.15 2.545-.15 2.397 0 3.608.184 5.745.873 1.528.492 1.594.507 1.594.361 0-.258-2.235-2.251-3.339-2.978-1.23-.81-3.462-1.608-5.553-1.987-.819-.149-2.701-.18-3.65-.062Zm35.04.56c-.361.177-.811.61-.811.781 0 .074.074.272.165.44.091.17.165.349.165.4 0 .05-.135.234-.301.41-.234.247-.293.351-.261.464.083.295.576 1.233.665 1.267.099.037.797-.329 1.112-.583l.19-.154-.207-.464c-.113-.256-.206-.53-.206-.608 0-.079.134-.29.298-.47.164-.181.316-.397.337-.48.072-.284-.52-1.14-.789-1.14-.043 0-.203.062-.357.137Zm-43.556.267c-.964.077-1.212.146-1.295.362-.036.094-.042.192-.013.219.028.026.663.059 1.41.072 1.287.023 1.369.032 1.546.17.23.178.315.182.463.02.128-.14.079-.295-.185-.583-.322-.35-.498-.375-1.926-.26Zm8.265.487c-.423.065-2.083.499-2.744.717-2.06.68-4.219 2.138-5.671 3.831-1.331 1.553-2.427 3.708-2.901 5.706-.108.459-.123.81-.123 3.002 0 2.746-.009 2.666.468 3.935.532 1.412 1.294 2.793 2.095 3.796.819 1.024 2.12 2.156 3.506 3.048 1.472.948 3.722 1.707 5.733 1.935.968.11 2.747.043 3.604-.135 1.08-.225 2.833-.851 3.096-1.107.083-.08-.379-.127-2.005-.2-1.683-.077-2.288-.144-3.024-.335-2.692-.696-5.313-2.475-6.75-4.581-1.303-1.91-1.848-3.524-2.062-6.101-.166-2.006.198-3.84 1.173-5.907a10.667 10.667 0 0 1 2.175-3.096c2.278-2.25 4.725-3.264 8.454-3.502.582-.037 1.146-.086 1.253-.108.181-.038.186-.046.073-.128-.185-.134-1.493-.549-2.07-.656-.503-.094-3.833-.183-4.28-.114Zm29.19.546c0 .192-.085.574-.206.931a4.095 4.095 0 0 0-.24 1.243c-.033.614-.027.652.171 1.046.114.224.61.966 1.104 1.65.87 1.202 1.437 1.866 1.522 1.782.059-.059-.413-1.123-1.091-2.462-.321-.634-.618-1.27-.659-1.413-.041-.143-.12-.701-.176-1.24-.109-1.058-.266-1.863-.364-1.863-.033 0-.061.147-.061.326Zm-60.71-.015c-.224.25-.455.81-.435 1.05.018.21.049.25.251.314.192.06.235.109.253.279.011.113-.026.364-.083.557-.139.473-.131.605.05.783.194.192.884.45 1.076.402.105-.026.244-.224.489-.695.188-.362.333-.665.32-.672a17.226 17.226 0 0 1-.342-.266c-.291-.229-.316-.27-.277-.455.125-.593.12-.697-.04-.867-.18-.19-.854-.545-1.037-.545a.356.356 0 0 0-.225.115Zm23-.043c-.606.049-.968.166-.968.312 0 .142.292.294.62.32.393.033 1.453-.089 1.64-.187.151-.08.162-.421.015-.477-.124-.047-.43-.04-1.307.032Zm-25.231 1.505c-.276.601-.14.924.48 1.128.653.217.954.104 1.112-.416.073-.24.067-.286-.053-.445-.183-.242-.684-.485-1.08-.522l-.328-.031-.131.286Zm51.575.637c-.253.07-.421.352-.456.767-.025.305-.009.389.087.458.094.068.107.133.066.332-.028.136-.054.35-.058.477-.008.227-.007.228.304.248.293.019 1.027-.08 1.095-.147.017-.017-.048-.122-.143-.234-.096-.112-.174-.245-.174-.295 0-.05-.089-.156-.198-.236-.227-.166-.241-.227-.091-.39.131-.144.076-.319-.1-.319-.137 0-.338-.16-.338-.269 0-.035.075-.137.165-.227.238-.235.208-.267-.159-.165Zm9.747 1.258c-.721.755-1.09 1.4-1.091 1.904-.001.23.228.871.619 1.737.443.984.469 1.11.34 1.682-.059.264-.164.547-.232.629l-.123.15-.274-.262c-.151-.144-.545-.622-.876-1.062-.331-.44-.626-.8-.656-.8-.081 0-.069.106.087.787.088.38.144.856.147 1.238.005.555-.013.656-.172.948-.231.424-.359.572-.671.778a.965.965 0 0 1-.509.17c-.371 0-.458.16-.457.847 0 .723.08.989.373 1.243l.237.206-.592.567c-.367.351-.649.684-.74.875-.194.406-.338 1.233-.355 2.044-.014.626-.008.654.129.674.079.011.414-.12.744-.29.329-.17.619-.29.643-.266.062.062-.356.654-.825 1.17-.806.889-1.069 1.407-1.069 2.113 0 .397.206 1.4.328 1.594.107.172.201-.012.201-.394 0-.714.268-1.233 1.383-2.673.292-.378.636-.892.765-1.144.282-.553.481-1.438.54-2.401.041-.67.037-.703-.088-.703-.071 0-.289.118-.484.262-.665.49-.703.307-.103-.489.235-.31.487-.723.559-.915.073-.193.284-1.079.468-1.969.185-.89.346-1.63.359-1.642.013-.013.39.346.837.797.458.462.866.82.935.82.197 0 .245-.266.204-1.134-.059-1.226.043-1.365.952-1.3l.468.033.305-.278c.381-.348.392-.512.072-1.171-.291-.6-.559-.94-.851-1.076-.323-.151-.497-.133-.958.102-.37.189-.418.199-.512.106-.135-.133-.134-1.065.001-1.76.078-.4.465-1.735.618-2.131.019-.049-.022-.082-.1-.082-.077 0-.314.192-.576.466ZM34.704 56.217c-.269.28-1.14 1.238-1.937 2.13-.797.892-1.485 1.636-1.529 1.653-.044.017-.745-.432-1.56-.998-1.991-1.385-2.83-1.92-3.012-1.92-.113 0-.536.42-1.695 1.683-2.33 2.538-2.901 3.205-2.857 3.335.097.28 3.975 3.113 4.632 3.384l.243.1.263-.28c.145-.156 1.07-1.17 2.057-2.254 1.773-1.95 1.795-1.971 1.938-1.863 2.044 1.552 4.007 2.877 4.344 2.93.184.03.247.008.353-.126a460.8 460.8 0 0 1 3.875-4.286c.274-.3.446-.544.446-.635 0-.11-.147-.254-.578-.566-.6-.434-3.84-2.585-4.095-2.718-.27-.142-.395-.081-.888.431Zm269.952.211c-.605.049-.948.15-1.006.3-.06.153.092.47.245.51.241.065 2.206.045 2.388-.023.198-.075.21-.174.059-.487-.176-.365-.387-.403-1.686-.3Zm-8.863.805c-.119.118-.765.934-1.435 1.813-.669.879-1.228 1.611-1.242 1.628-.068.082-3.427-.747-4.473-1.105-.679-.232-.671-.118.064.96.312.458.863 1.22 1.224 1.693.361.473.687.948.725 1.056.112.316-.031.668-.555 1.366-.264.352-.651.88-.86 1.176-.722 1.017-1.245 1.979-1.076 1.979.015 0 .692-.225 1.504-.5 1.688-.57 2.877-.936 3.052-.937.188 0 .797.614 1.24 1.253.864 1.247 1.602 2.039 1.866 2.001.129-.018.156-.104.294-.935.28-1.691.473-2.676.614-3.126.136-.436.147-.45.482-.595.188-.081.73-.26 1.202-.395 1.031-.296 2.678-.845 2.95-.984.107-.055.177-.129.155-.164-.111-.178-1.267-.594-3.072-1.106-.527-.15-1.129-.348-1.338-.44-.496-.218-.5-.233-.645-2.338-.124-1.802-.236-2.516-.393-2.516-.036 0-.163.097-.283.216Zm-33.8.475c-.138.137-.141.878-.004 1.14.136.258.321.343.742.34.52-.005.547-.046.547-.832 0-.776.027-.748-.739-.75-.314 0-.472.029-.546.102Zm45.23.909a.903.903 0 0 0-.043.272c0 .213-.113.415-.232.415-.116 0-.231.201-.231.405 0 .084-.06.263-.133.398-.123.226-.125.261-.033.437.134.258.126.316-.049.34-.14.02-.148.047-.132.495.015.42.003.474-.103.474a.5.5 0 0 0-.243.089c-.109.079-.114.112-.04.289.046.11.193.308.326.44.212.21.271.235.488.207.334-.044.845-.295.845-.416 0-.053-.121-.144-.268-.2-.359-.14-.319-.269.152-.49.279-.132.38-.215.38-.312 0-.096-.056-.144-.198-.173-.109-.021-.199-.058-.199-.082s.148-.129.329-.233c.18-.104.343-.228.361-.275.037-.095-.019-.28-.085-.284a.568.568 0 0 1-.172-.099c-.128-.095-.127-.098.016-.197.323-.224.322-.551-.002-.551-.105 0-.123-.03-.087-.147.121-.402.117-.605-.014-.722-.192-.172-.579-.221-.633-.08Zm-12.338 1.476c-.144.147-.518.602-.832 1.013-.332.434-.63.761-.714.782-.078.019-.612-.084-1.186-.229-1.109-.28-1.271-.304-1.34-.195-.084.136.04.373.627 1.2l.595.837-.1.238c-.054.13-.191.384-.305.564-.667 1.056-.825 1.405-.638 1.405.051 0 .473-.118.94-.261.466-.144.951-.262 1.078-.262.33 0 .552.184 1.087.903.533.717.905 1.123 1.028 1.123.139 0 .285-.644.404-1.793l.114-1.089 1.094-.356c.602-.195 1.151-.396 1.219-.446.118-.085.109-.099-.145-.227-.149-.075-.554-.214-.9-.309-1.165-.32-1.232-.405-1.303-1.68-.086-1.54-.207-1.744-.723-1.218Zm-22.418.293c-.093.243-.206 1.312-.158 1.501.106.417.359-.006.406-.677.055-.804-.081-1.258-.248-.824Zm-8.589.035c-.299.058-.399.14-.401.33-.002.212.265.952.379 1.05.064.056.287.115.497.131.474.037.644.18.802.677.174.545.29.631.773.578.796-.09.819-.1.843-.39.012-.142-.029-.443-.091-.669-.125-.458-.227-.543-.8-.67-.457-.1-.591-.21-.717-.583-.061-.181-.174-.373-.252-.427-.154-.107-.566-.118-1.033-.027Zm43.318 5.36c-.103.104-.105.22-.006.376.061.097.049.146-.067.26-.078.077-.142.182-.142.233 0 .161.326.484.568.563.46.15.689-.056.689-.622 0-.544-.187-.773-.695-.852-.175-.027-.292-.013-.347.042Zm-45.383.71c-.228.068-.585.276-.585.342 0 .028.088.088.196.133a.96.96 0 0 1 .347.31c.087.132.289.296.473.386l.322.158-.039.277c-.05.367.035.431.42.315.429-.129.808-.36.922-.56.089-.157.088-.198-.013-.406a.661.661 0 0 0-.335-.324 1.035 1.035 0 0 1-.375-.303c-.25-.347-.81-.485-1.333-.329ZM52.329 69.37c-1.978.19-3.355 1.171-3.82 2.722-.338 1.126-.134 2.391.506 3.144.808.95 1.806 1.43 4.383 2.107 2.048.539 2.462.709 3.043 1.252.477.446.636.86.634 1.651-.003 1.298-.637 2.054-2.033 2.422-.54.142-2.034.195-2.776.098-1.016-.132-2.039-.524-2.956-1.132l-.441-.293-.365.543-.365.542.537.34c1.547.982 2.974 1.34 5.11 1.283 1.409-.038 2.013-.163 2.835-.585 1.313-.674 1.959-1.79 1.959-3.384 0-1.364-.466-2.2-1.616-2.902-.778-.476-1.263-.651-3.352-1.216-2.794-.754-3.47-1.196-3.693-2.412a2.1 2.1 0 0 1-.002-.838c.185-1.05.841-1.712 2.002-2.021.519-.138 2.144-.153 2.727-.026.868.19 1.676.599 2.277 1.154l.314.291.274-.273c.358-.358.415-.63.21-1.011-.378-.706-1.802-1.303-3.472-1.458-.804-.074-1.133-.074-1.92.002Zm58.682.005c-.809.092-1.509.3-2.282.677-2.003.977-3.331 2.716-3.818 5-.174.816-.186 2.329-.024 3.154.606 3.1 2.92 5.367 5.919 5.8.751.11 2.193.046 2.882-.125a6.635 6.635 0 0 0 3.011-1.627c1.183-1.098 1.841-2.264 2.222-3.935.082-.36.112-.797.112-1.634 0-1.216-.064-1.648-.387-2.614-.35-1.044-.87-1.874-1.684-2.685-.653-.651-1.164-1.008-2.019-1.408-1.2-.562-2.523-.765-3.932-.603Zm65.092-.017c-.495.126-.804.457-1.197 1.281-.447.94-2.053 4.726-3.125 7.371-.821 2.026-2.191 5.59-2.191 5.702 0 .016.325.03.721.03h.721l.209-.572c.115-.314.478-1.285.807-2.156l.598-1.585h7.428l.083.213c.046.117.368.991.715 1.944.348.952.672 1.827.721 1.944l.09.212h.797c.677 0 .796-.015.796-.102 0-.175-1.593-4.325-2.908-7.575-1.163-2.874-2.585-6.002-2.861-6.292-.344-.362-.931-.535-1.404-.415Zm30.943-.015c-.718.082-1.267.193-1.786.36-2.479.8-4.232 2.856-4.692 5.504-.147.842-.134 2.416.025 3.224.506 2.567 2.204 4.481 4.681 5.28 1.499.484 3.539.478 5.143-.015.621-.19 1.819-.73 1.819-.82 0-.033-.137-.31-.304-.612l-.304-.55-.208.126c-.363.22-1.458.641-1.955.753-.681.153-1.779.2-2.486.108-2.571-.337-4.347-2.011-4.83-4.554-.165-.871-.106-2.515.12-3.362.545-2.035 1.959-3.474 3.917-3.986.706-.185 2.017-.202 2.777-.037.676.148 1.777.678 2.217 1.07l.337.298.177-.13c.432-.316.585-.798.378-1.192-.454-.868-3.214-1.672-5.026-1.465Zm97.447.317c-.073.187.097.872.34 1.374.122.252.458.779.747 1.17.289.39.775 1.102 1.079 1.581.305.479.572.871.595.872.022.001.061-.202.086-.451.05-.496-.023-.878-.235-1.239-.249-.424-2.169-3.05-2.367-3.237-.181-.17-.203-.177-.245-.07Zm-299.6.08c-.213.08-.47.3-.568.486-.08.154-.144.932-.295 3.573-.278 4.892-.526 9.473-.526 9.725v.218h1.38l.035-.278c.019-.152.052-.718.073-1.258.062-1.586.496-9.689.55-10.259l.048-.522.702 1.372c.386.755 1.124 2.24 1.64 3.3a965.73 965.73 0 0 0 1.605 3.283l.667 1.356.667-.003.666-.004 1.288-2.627a868.827 868.827 0 0 1 2.281-4.615c.98-1.963.994-1.986 1.041-1.732.027.142.184 2.801.35 5.91.167 3.109.318 5.748.336 5.865l.033.212h1.382v-.212c0-.117-.103-2.021-.229-4.231l-.37-6.567c-.076-1.402-.167-2.617-.2-2.7-.135-.334-1.03-.457-1.544-.21-.154.074-.39.282-.553.49-.263.334-1.686 3.153-3.415 6.765-.336.7-.698 1.445-.805 1.654l-.195.38-.688-1.393c-3.935-7.971-3.811-7.748-4.424-7.95-.232-.077-.758-.093-.932-.028Zm17.66.044c-.346.19-.333-.098-.335 7.179l-.003 6.78h1.455V69.836l-.208-.071c-.28-.096-.715-.087-.909.02Zm5.7.032c-.519.24-.484-.283-.484 7.225v6.701h1.454l.017-6.191.017-6.192.604.85c1.145 1.612 3.518 5.216 7.52 11.419.063.1.187.114.95.114h.876v-13.86l-.229-.094c-.45-.186-.936-.097-1.14.21-.11.168-.12.528-.151 5.845l-.033 5.665-.458-.729c-1.835-2.92-5.897-9.01-6.762-10.136-.342-.445-.528-.625-.774-.75-.437-.22-1.028-.252-1.407-.077Zm15.296.011a.855.855 0 0 0-.243.376c-.049.166-.065 2.317-.052 6.874l.02 6.632.743.019.744.018V69.831l-.248-.068c-.4-.11-.771-.085-.964.065Zm16.76-.02c-.12.228-.152.543-.076.77.138.412.203.423 2.575.423h2.118l.017 6.355.017 6.354.744.019.744.018V71.002l2.49-.017 2.49-.017.097-.285c.077-.23.08-.336.02-.539-.145-.474.169-.45-5.819-.45-5.034 0-5.36.007-5.417.114Zm14.235-.013c-.455.222-.427-.259-.427 7.211v6.737h1.455v-5.702l.28.045c.155.025.936.06 1.736.077l1.455.033.45.535c.883 1.052 2.312 3.227 2.981 4.541l.24.471h.892c.49 0 .892-.022.892-.05 0-.098-.913-1.701-1.418-2.488-.638-.996-1.485-2.151-2.12-2.891l-.48-.562.225-.08c.378-.135 1.192-.711 1.513-1.071 1.102-1.236 1.328-3.166.553-4.728-.613-1.235-1.675-1.907-3.331-2.107-.328-.04-1.518-.071-2.645-.07-1.69 0-2.085.018-2.251.1Zm10.827-.032c-.21.082-.36.464-.304.764.08.426 3.84 5.788 5.193 7.409l.253.302.017 2.736.017 2.736.744.019.744.018V78.37l.615-.826c1.201-1.61 2.705-3.873 4.172-6.278l.775-1.27-.252-.15c-.29-.174-.705-.199-1.037-.062-.326.135-.578.481-1.845 2.531-1.609 2.606-2.96 4.632-3.09 4.632-.133 0-1.429-1.786-3.387-4.67-.903-1.33-1.707-2.453-1.788-2.498-.171-.094-.61-.103-.827-.016Zm37.57.031c-.455.224-.426-.257-.426 7.212v6.737h1.454V77.34h5.938l.073-.205c.04-.114.072-.332.072-.485 0-.23-.035-.307-.203-.447l-.204-.17h-5.676V71.001h6.553l.102-.243c.129-.305.081-.709-.106-.894-.137-.136-.178-.138-3.757-.153-3.126-.014-3.645-.002-3.82.084Zm16.322.027a.909.909 0 0 0-.281.257c-.048.09-.07 2.24-.07 6.898v6.767h1.454V77.34h5.892l.095-.226c.157-.372.125-.67-.097-.89l-.193-.19h-5.697V71h6.53l.068-.18c.139-.368.146-.428.078-.676-.126-.464-.013-.451-4.011-.45-3.406 0-3.566.005-3.768.126Zm11.072.064-.216.19V83.71l.744.019.743.018V69.831l-.248-.068c-.462-.127-.785-.089-1.023.122Zm5.863-.103c-.111.05-.282.185-.38.3l-.178.21v13.455l.743-.018.744-.019.033-6.142.033-6.142.697.985c.975 1.38 2.671 3.938 5.236 7.901l2.2 3.398.876.019.876.018V69.85l-.22-.079c-.28-.1-.651-.1-.873 0-.375.169-.362-.052-.363 6.143l-.001 5.704-.28-.445c-1.715-2.733-5.488-8.42-6.755-10.181-.541-.752-.692-.918-.977-1.071-.405-.218-1.088-.286-1.411-.14Zm30.125.026a1.21 1.21 0 0 0-.364.3c-.137.183-.137.21-.137 6.893v6.71l.744.018.744.018V71.364l.336.456c.648.877 3.433 5.058 5.462 8.2a805.919 805.919 0 0 0 2.234 3.449l.186.278.866-.018.866-.019.017-6.913.017-6.913-.23-.095c-.391-.162-.793-.125-1.042.096l-.216.19-.033 5.73-.034 5.729-.657-1.035c-1.98-3.121-5.021-7.688-6.316-9.487-.642-.89-.695-.946-1.082-1.127-.484-.227-1.006-.256-1.361-.077Zm29.165.018c-.431.26-.412-.096-.393 7.234l.017 6.65 4.347.017 4.347.017v-1.308H216.599v-5.359h6.93l.072-.205c.092-.26.093-.529.002-.726-.16-.346-.105-.34-3.681-.36l-3.323-.02V71.001h7.186l.077-.166c.042-.092.076-.31.076-.485 0-.274-.027-.34-.203-.487l-.203-.169h-3.913c-3.807 0-3.918.004-4.131.132Zm-104.3.848c-1.822.225-3.311 1.293-4.148 2.973-.383.77-.566 1.43-.656 2.361-.196 2.052.476 4.037 1.794 5.295 1.102 1.052 2.376 1.513 3.985 1.441.907-.04 1.378-.147 2.087-.477 1.929-.898 3.101-2.822 3.219-5.287.126-2.643-1.144-4.901-3.31-5.882-.828-.375-2.006-.543-2.971-.424Zm64.666 1.16a249.592 249.592 0 0 0-2.675 6.273c-.026.065.637.082 3.186.082h3.218l-.046-.147c-.235-.748-1.792-4.521-2.46-5.963-.543-1.17-.628-1.34-.68-1.34-.025 0-.269.493-.543 1.095ZM75.572 73.828c0 2.681.009 2.913.112 2.952.24.09 2.069.156 2.745.098.866-.075 1.444-.248 1.96-.588.923-.61 1.362-1.68 1.197-2.919-.141-1.051-.684-1.782-1.567-2.109-.636-.235-.912-.266-2.712-.306l-1.735-.038v2.91Zm190.308-2.063c-.349.067-.491.524-.34 1.097.1.38.26.489.717.49.165 0 .335.035.376.076.042.042.128.367.191.724l.115.648.335-.042c.6-.074 1.02-.22 1.136-.395.095-.143.098-.212.026-.546a2.71 2.71 0 0 0-.225-.635c-.134-.237-.169-.257-.53-.301-.212-.026-.424-.08-.471-.118-.047-.038-.121-.215-.164-.393-.133-.548-.493-.735-1.166-.605Z" clip-rule="evenodd"/></svg>