<svg id="Layer_1" data-name="Layer 1" xmlns="http://www.w3.org/2000/svg" viewBox="0 0 36.51 8"><defs><style>.cls-1{fill:#f9f9f9;}</style></defs><path class="cls-1" d="M.39.87H2.56a2.85,2.85,0,0,1,3,2.93,2.83,2.83,0,0,1-3,2.89H.39ZM2.54,5.93A2,2,0,0,0,4.69,3.8,2.06,2.06,0,0,0,2.54,1.64H1.24V5.93Z"/><path class="cls-1" d="M6.44.87H9a1.75,1.75,0,0,1,1.89,1.75A1.72,1.72,0,0,1,9.44,4.31l1.61,2.38h-1L8.51,4.36H7.29V6.69H6.44ZM9,3.6a1,1,0,0,0,1-1,1,1,0,0,0-1-1H7.29v2Z"/><path class="cls-1" d="M11.8.87h2.61c1.07,0,1.82.61,1.82,1.51a1.42,1.42,0,0,1-.87,1.26,1.53,1.53,0,0,1,1.09,1.43,1.69,1.69,0,0,1-1.9,1.62H11.8Zm2.61,2.45a.86.86,0,1,0,0-1.71H12.65V3.32ZM14.55,6a1,1,0,1,0,0-1.93h-1.9V6Z"/><path class="cls-1" d="M17,3.78a2.87,2.87,0,0,1,3-3,2.84,2.84,0,0,1,2.9,2.38h-.41a2.46,2.46,0,0,0-2.49-2,2.51,2.51,0,0,0-2.61,2.63,2.52,2.52,0,0,0,2.62,2.64,2.44,2.44,0,0,0,2.48-2H23a2.84,2.84,0,0,1-2.9,2.39A2.87,2.87,0,0,1,17,3.78Z"/><path class="cls-1" d="M23.82.87h.52l2.83,5.38L30,.87h.52V6.69h-.39V1.46L27.37,6.69H27L24.21,1.48V6.69h-.39Z"/><path class="cls-1" d="M31.69.87h2.39a1.89,1.89,0,0,1,2,1.89,1.89,1.89,0,0,1-2,1.9h-2v2h-.39ZM34.08,4.3a1.52,1.52,0,0,0,1.63-1.54,1.51,1.51,0,0,0-1.63-1.53h-2V4.3Z"/></svg>